<svg width="17" height="18" viewBox="0 0 17 18" fill="none" xmlns="http://www.w3.org/2000/svg">
<path fill-rule="evenodd" clip-rule="evenodd" d="M8.11009 0.707247C10.1086 0.571321 12.0882 1.16761 13.6792 2.38472C15.2701 3.60183 16.3635 5.35651 16.7552 7.32096C17.1261 9.18141 16.8436 11.1095 15.961 12.7815L16.8903 16.2331C16.9603 16.4933 16.8854 16.7711 16.694 16.9608C16.5025 17.1505 16.224 17.2229 15.9645 17.1505L12.5622 16.2009C10.8978 17.0924 8.9743 17.3871 7.11368 17.0296C5.14656 16.6516 3.38434 15.5704 2.15621 13.9879C0.928092 12.4055 0.318079 10.43 0.440134 8.43062C0.562188 6.43123 1.40796 4.54466 2.81945 3.12334C4.23094 1.70202 6.1116 0.843174 8.11009 0.707247ZM12.7677 3.57607C11.4662 2.5804 9.84678 2.09259 8.21188 2.20379C6.57698 2.31499 5.03848 3.01758 3.88379 4.18031C2.72909 5.34305 2.03719 6.88639 1.93735 8.52202C1.8375 10.1577 2.33653 11.7737 3.34121 13.0682C4.3459 14.3628 5.78752 15.2473 7.39675 15.5566C9.00598 15.8658 10.6728 15.5786 12.0857 14.7486C12.2612 14.6455 12.4711 14.6182 12.6672 14.6729L15.0996 15.3518L14.4339 12.879C14.382 12.6865 14.409 12.4813 14.5088 12.3087C15.3289 10.89 15.6045 9.2213 15.2841 7.61425C14.9637 6.0072 14.0692 4.57175 12.7677 3.57607Z" fill="black"/>
</svg>
