<svg width="18" height="16" viewBox="0 0 18 16" fill="none" xmlns="http://www.w3.org/2000/svg">
<path d="M12.2601 1.85602C13.246 1.91052 14.1703 2.35245 14.8317 3.0855C15.4931 3.81855 15.838 4.7833 15.7911 5.76952C15.7911 8.07352 13.8021 9.48877 11.8934 11.186C10.0094 12.8683 8.99464 13.7878 8.66614 14C8.30839 13.7683 7.05889 12.6328 5.43889 11.186C3.52189 9.48202 1.54114 8.05327 1.54114 5.76952C1.49432 4.7833 1.83918 3.81855 2.50058 3.0855C3.16199 2.35245 4.08632 1.91052 5.07214 1.85602C5.61825 1.83947 6.15931 1.96491 6.64242 2.22007C7.12554 2.47523 7.53418 2.85139 7.82839 3.31177C8.45839 4.19302 8.56339 4.63402 8.66839 4.63402C8.77339 4.63402 8.87689 4.19302 9.50089 3.30952C9.79344 2.84701 10.2022 2.46936 10.6864 2.2143C11.1706 1.95924 11.7133 1.8357 12.2601 1.85602ZM12.2601 0.356019C11.5791 0.334214 10.9019 0.466331 10.279 0.742532C9.65606 1.01873 9.10349 1.4319 8.66239 1.95127C8.22167 1.43341 7.67023 1.0212 7.0488 0.745083C6.42738 0.468966 5.75185 0.336004 5.07214 0.356019C3.68829 0.410133 2.38217 1.01001 1.43939 2.02446C0.496614 3.03892 -0.00611442 4.38542 0.0411397 5.76952C0.0411397 8.47702 1.95364 10.1398 3.80239 11.747C4.01464 11.9315 4.22914 12.1175 4.44214 12.3073L5.21239 12.9958C6.05242 13.7951 6.93309 14.5506 7.85089 15.2593C8.09373 15.4165 8.37685 15.5002 8.66614 15.5002C8.95543 15.5002 9.23856 15.4165 9.48139 15.2593C10.4284 14.529 11.3362 13.7491 12.2009 12.923L12.8924 12.305C13.1121 12.11 13.3349 11.9158 13.5561 11.7245C15.3066 10.2058 17.2911 8.48452 17.2911 5.76952C17.3384 4.38542 16.8357 3.03892 15.8929 2.02446C14.9501 1.01001 13.644 0.410133 12.2601 0.356019Z" fill="black"/>
</svg>
