<svg width="15" height="16" viewBox="0 0 15 16" fill="none" xmlns="http://www.w3.org/2000/svg">
<path fill-rule="evenodd" clip-rule="evenodd" d="M0.916016 1.17804C0.916016 0.763826 1.2518 0.42804 1.66602 0.42804H13.666C14.0802 0.42804 14.416 0.763826 14.416 1.17804V14.678C14.416 14.9775 14.2378 15.2483 13.9628 15.3668C13.6877 15.4853 13.3686 15.4289 13.1509 15.2231L7.66602 10.0399L2.18114 15.2231C1.96347 15.4289 1.64428 15.4853 1.36924 15.3668C1.09419 15.2483 0.916016 14.9775 0.916016 14.678V1.17804ZM2.41602 1.92804V12.9374L7.15089 8.46293C7.43998 8.18974 7.89206 8.18974 8.18114 8.46293L12.916 12.9374V1.92804H2.41602Z" fill="black"/>
</svg>
