<svg width="17" height="15" viewBox="0 0 17 15" fill="none" xmlns="http://www.w3.org/2000/svg">
<path fill-rule="evenodd" clip-rule="evenodd" d="M1.166 0.428789L16.166 0.42804C16.4356 0.428026 16.6846 0.572767 16.8179 0.807134C16.9513 1.0415 16.9485 1.32942 16.8108 1.56122L9.08427 14.5617C8.92846 14.8239 8.62944 14.9656 8.32788 14.9202C8.02632 14.8748 7.78228 14.6513 7.71057 14.3549L5.90105 6.8753L0.640777 1.71414C0.423326 1.50079 0.356532 1.1771 0.471766 0.895092C0.586999 0.613089 0.861363 0.428805 1.166 0.428789ZM7.44288 6.86933L8.73554 12.2125L14.1053 3.17743L7.44288 6.86933ZM13.265 1.92818L3.00124 1.9287L6.70542 5.56308L13.265 1.92818Z" fill="black"/>
</svg>
