<svg width="72" height="72" viewBox="0 0 72 72" fill="none" xmlns="http://www.w3.org/2000/svg">
<circle cx="35.6984" cy="35.6984" r="35.6984" fill="#E6C34B"/>
<path d="M35.4988 30.4996C32.3164 30.4996 29.2642 31.764 27.0136 34.0142C24.7635 36.2647 23.499 39.317 23.499 42.4994C23.499 45.6822 24.7635 48.7341 27.0136 50.9846C29.2642 53.2351 32.3164 54.4992 35.4988 54.4992C38.6813 54.4992 41.7335 53.2351 43.9841 50.9846C46.2342 48.7341 47.4987 45.6822 47.4987 42.4994C47.4987 39.317 46.2342 36.2647 43.9841 34.0142C41.7335 31.764 38.6813 30.4996 35.4988 30.4996ZM35.4988 52.9996C32.7142 52.9996 30.0434 51.8933 28.0743 49.9242C26.1052 47.9551 24.9989 45.2843 24.9989 42.4997C24.9989 39.715 26.1052 37.0442 28.0743 35.0751C30.0434 33.1061 32.7142 32.0001 35.4988 32.0001C38.2835 32.0001 40.9543 33.1061 42.9234 35.0751C44.8925 37.0442 45.9988 39.715 45.9988 42.4997C45.9988 45.2843 44.8925 47.9551 42.9234 49.9242C40.9543 51.8933 38.2835 52.9996 35.4988 52.9996Z" fill="#9426BA"/>
<path d="M43.7495 28.2499V24.4999C43.7495 23.9032 43.5127 23.3311 43.0907 22.9092C42.6688 22.4869 42.0963 22.25 41.4997 22.25H41.4023L48.1521 12.1628C48.2978 11.9373 48.312 11.6515 48.1894 11.4129C48.0589 11.1532 47.79 10.9927 47.4996 11.0003H39.9997C39.7487 11.0016 39.5153 11.1284 39.3772 11.3379L35.4997 17.1504L31.6223 11.3379C31.4842 11.1284 31.2508 11.0016 30.9997 11.0003H23.4999C23.2233 11.0009 22.9699 11.1539 22.8401 11.3977C22.7175 11.6366 22.7317 11.9225 22.8774 12.1476L29.6272 22.2348H29.4998C28.9032 22.2348 28.3306 22.472 27.9088 22.894C27.4868 23.3159 27.25 23.8884 27.25 24.485V28.2351V28.2348C24.1045 30.0509 21.6461 32.8543 20.256 36.21C18.8659 39.5658 18.6222 43.2862 19.5623 46.7949C20.5022 50.3032 22.5738 53.4036 25.4552 55.6147C28.3369 57.8255 31.8677 59.0243 35.5 59.0243C39.1323 59.0243 42.6628 57.8255 45.5448 55.6147C48.4262 53.4035 50.4978 50.3032 51.4377 46.7949C52.3779 43.2866 52.1341 39.5662 50.744 36.21C49.3539 32.8543 46.8955 30.0509 43.75 28.2348L43.7495 28.2499ZM40.4048 12.5004H46.097L39.5948 22.2499H33.9022L40.4048 12.5004ZM24.9027 12.5004H30.595L34.5999 18.5003L32.0949 22.2504H31.405L24.9027 12.5004ZM28.7501 24.5004C28.7501 24.0864 29.0857 23.7504 29.5001 23.7504H41.5001C41.699 23.7504 41.8899 23.8295 42.0304 23.97C42.171 24.1109 42.25 24.3015 42.25 24.5004V27.4481C40.1276 26.4937 37.827 26.0006 35.5002 26.0006C33.1734 26.0006 30.8727 26.4937 28.7504 27.4481L28.7501 24.5004ZM35.5 57.4995V57.4999C31.5216 57.4999 27.7067 55.9195 24.8939 53.1065C22.0809 50.2936 20.5006 46.4783 20.5006 42.4996C20.5006 38.5216 22.0809 34.7063 24.8939 31.8935C27.7069 29.0805 31.5218 27.5002 35.5 27.5002C39.4781 27.5002 43.2932 29.0805 46.106 31.8935C48.919 34.7065 50.4993 38.5218 50.4993 42.4996C50.4993 45.1327 49.8064 47.7192 48.4899 49.9994C47.1733 52.28 45.2798 54.1735 42.9996 55.4897C40.7194 56.8062 38.1329 57.4995 35.4998 57.4995L35.5 57.4995Z" fill="#9426BA"/>
<path d="M43.1348 39.7921C43.0461 39.52 42.8106 39.3221 42.5275 39.2821L38.1324 38.6447L36.175 34.6698V34.6695C36.0496 34.4109 35.7876 34.2465 35.5 34.2465C35.2123 34.2465 34.9503 34.4109 34.8249 34.6695L32.8675 38.6444L28.4724 39.2817V39.2821C28.1893 39.3232 27.9538 39.522 27.8661 39.7945C27.7784 40.0672 27.8537 40.3659 28.0602 40.5644L31.2326 43.6619L30.4827 48.0342C30.4278 48.3215 30.5448 48.6143 30.7824 48.7845C31.0137 48.9499 31.3186 48.9699 31.57 48.837L35.4999 46.7594L39.4299 48.8218C39.5352 48.8812 39.654 48.9122 39.7748 48.9119C39.9336 48.9122 40.0887 48.8625 40.2175 48.7693C40.455 48.5991 40.5721 48.3066 40.5172 48.0194L39.7672 43.6471L42.9397 40.5496C43.1417 40.3535 43.217 40.061 43.1348 39.7921ZM38.4401 42.8595C38.2612 43.0321 38.1801 43.2821 38.2226 43.5269L38.7774 46.7894L35.845 45.2895C35.6309 45.169 35.3692 45.169 35.1551 45.2895L32.2226 46.7894L32.7775 43.5269C32.82 43.2821 32.7388 43.0321 32.56 42.8595L30.19 40.5496L33.4674 40.0772L33.4677 40.0769C33.7143 40.0427 33.928 39.888 34.0374 39.6646L35.5001 36.6648L37 39.6646C37.1098 39.888 37.3235 40.0427 37.57 40.0769L40.8474 40.5492L38.4401 42.8595Z" fill="#9426BA"/>
</svg>
