<svg width="72" height="72" viewBox="0 0 72 72" fill="none" xmlns="http://www.w3.org/2000/svg">
<circle cx="35.6984" cy="35.6984" r="35.6984" fill="#E6C34B"/>
<path d="M23.6829 21C19.4531 21 16 24.3709 16 28.5V44.5C16 48.6291 19.4531 52 23.6829 52H50.3171C54.5469 52 58 48.6291 58 44.5V28.5C58 24.3709 54.5469 21 50.3171 21H23.6829ZM23.6829 24.0002H50.3171C52.8974 24.0002 54.9266 25.9812 54.9266 28.5V44.5C54.9266 47.0188 52.8973 48.9998 50.3171 48.9998H23.6829C21.1027 48.9998 19.0734 47.0187 19.0734 44.5V28.5C19.0734 25.9812 21.1027 24.0002 23.6829 24.0002ZM32.4384 28.5C32.0226 28.4874 31.6196 28.6399 31.3209 28.9224C31.0222 29.2052 30.8535 29.5937 30.8539 30V43V42.9997C30.8517 43.3718 30.9914 43.7314 31.2458 44.0087C31.5002 44.286 31.8511 44.4611 32.2305 44.4998C32.5399 44.5326 32.8525 44.4726 33.1266 44.3278L45.4193 37.8277H45.4196C45.7465 37.6558 45.9984 37.3737 46.1288 37.0343C46.2592 36.6946 46.2592 36.3204 46.1288 35.981C45.9984 35.6413 45.7465 35.3595 45.4196 35.1872L33.1269 28.6871H33.1266C32.9154 28.5727 32.68 28.5085 32.4385 28.4998L32.4384 28.5ZM33.9268 32.5311L41.4497 36.4997L33.9268 40.4841V32.5311Z" fill="#9426BA"/>
</svg>
