<svg width="72" height="72" viewBox="0 0 72 72" fill="none" xmlns="http://www.w3.org/2000/svg">
<ellipse cx="35.6984" cy="35.7" rx="35.6984" ry="35.7" fill="#E6C34B"/>
<path d="M48.6 16.0002H29.5335C29.3038 16.0002 29.0828 16.0912 28.9226 16.2559L20.256 24.9225C20.091 25.0827 20 25.3037 20 25.5334V52.3999C20 53.8341 21.1655 55 22.6001 55H48.5999C50.0342 55 51.2001 53.8345 51.2001 52.3999V18.6001C51.2001 17.1656 50.0342 16 48.5999 16L48.6 16.0002ZM28.6668 18.9597V23.8002C28.6668 24.2769 28.2769 24.6668 27.8003 24.6668H22.96L28.6668 18.9597ZM49.4667 52.3996C49.4667 52.8763 49.0767 53.2662 48.6001 53.2662L22.6003 53.2665C22.1236 53.2665 21.7337 52.8766 21.7337 52.3999V26.4001H27.8002C29.2344 26.4001 30.4003 25.2346 30.4003 23.8V17.7335H48.6002C49.0768 17.7335 49.4667 18.1235 49.4667 18.6001L49.4667 52.3996Z" fill="#9426BA"/>
<path d="M46.0004 47.6333H25.2006C24.7239 47.6333 24.334 48.0232 24.334 48.4999C24.334 48.9765 24.7239 49.3665 25.2006 49.3665H46.0004C46.4771 49.3665 46.867 48.9765 46.867 48.4999C46.867 48.0232 46.4768 47.6333 46.0001 47.6333H46.0004Z" fill="#9426BA"/>
<path d="M46.0004 43.3H25.2006C24.7239 43.3 24.334 43.6899 24.334 44.1666C24.334 44.6432 24.7239 45.0332 25.2006 45.0332H46.0004C46.4771 45.0332 46.867 44.6432 46.867 44.1666C46.867 43.6899 46.4768 43.3 46.0001 43.3H46.0004Z" fill="#9426BA"/>
<path d="M37.9131 37.0082L37.4322 39.6775C37.376 40.0025 37.506 40.3274 37.7659 40.527C37.9177 40.6397 38.0996 40.7002 38.2858 40.7002C38.42 40.7002 38.55 40.6699 38.6758 40.6092L41.2323 39.3267L43.7889 40.6092C44.0794 40.7564 44.4345 40.7261 44.6945 40.5312C44.9587 40.3362 45.0889 40.0068 45.0282 39.6818L44.5473 37.0125L46.5839 35.1146C46.8266 34.8848 46.9219 34.5381 46.8179 34.2174C46.7139 33.8967 46.4409 33.667 46.1115 33.6195L43.2644 33.2251L41.9991 30.7725C41.8522 30.4823 41.5575 30.3004 41.2326 30.3004C40.9076 30.3004 40.6129 30.4823 40.4612 30.7683L39.1958 33.2208L36.3488 33.6153C36.0193 33.6631 35.7421 33.8928 35.6424 34.2132C35.5426 34.5339 35.6336 34.8806 35.8763 35.1103L37.9131 37.0082ZM39.8806 34.8763C40.1581 34.8373 40.4005 34.6641 40.5305 34.4169L41.2326 33.0561L41.9345 34.4169C42.0645 34.6681 42.3072 34.8373 42.5844 34.8763L44.0752 35.0843L43.0266 36.0636C42.8099 36.2628 42.7101 36.5621 42.7624 36.8522L43.0181 38.2822L41.6226 37.58C41.5014 37.5193 41.3669 37.489 41.2326 37.489C41.0984 37.489 40.9639 37.5193 40.8427 37.58L39.4429 38.2819L39.6986 36.8519C39.7506 36.5614 39.6509 36.267 39.4344 36.0633L38.3859 35.084L39.8806 34.8763Z" fill="#9426BA"/>
<path d="M25.2006 32.0334H32.134C32.6107 32.0334 33.0006 31.6435 33.0006 31.1668C33.0006 30.6902 32.6107 30.3002 32.134 30.3002H25.2006C24.7239 30.3002 24.334 30.6902 24.334 31.1668C24.3337 31.6435 24.7239 32.0334 25.2006 32.0334Z" fill="#9426BA"/>
<path d="M25.2006 36.3667H32.134C32.6107 36.3667 33.0006 35.981 33.0006 35.5001C33.0006 35.0234 32.6107 34.6335 32.134 34.6335H25.2006C24.7239 34.6335 24.334 35.0235 24.334 35.5001C24.3337 35.981 24.7239 36.3667 25.2006 36.3667Z" fill="#9426BA"/>
<path d="M25.2006 40.7H32.134C32.6107 40.7 33.0006 40.3101 33.0006 39.8334C33.0006 39.3568 32.6107 38.9669 32.134 38.9669H25.2006C24.7239 38.9669 24.334 39.3568 24.334 39.8334C24.3337 40.3101 24.7239 40.7 25.2006 40.7Z" fill="#9426BA"/>
</svg>
