<svg width="72" height="72" viewBox="0 0 72 72" fill="none" xmlns="http://www.w3.org/2000/svg">
<ellipse cx="35.6984" cy="35.7" rx="35.6984" ry="35.7" fill="#E6C34B"/>
<path d="M56.631 17.0272C56.5521 16.9666 56.4493 16.9463 56.3533 16.9722L41.6023 20.9385C41.4627 20.9761 41.3656 21.1027 41.3658 21.2474V24.7031H31.9699V21.9165C31.9699 21.8317 31.9362 21.7503 31.8764 21.6904C31.8163 21.6303 31.7351 21.5966 31.6503 21.5966H29.6579V19.2445C29.6579 19.1597 29.6242 19.0785 29.5644 19.0184C29.5043 18.9586 29.4232 18.9249 29.3384 18.9249H20.3874C20.3029 18.9249 20.2214 18.9586 20.1614 19.0184C20.1015 19.0785 20.0678 19.1597 20.0678 19.2445V21.5966H18.0754C17.9906 21.5964 17.9095 21.6301 17.8494 21.6902C17.7896 21.75 17.7559 21.8314 17.7559 21.9162V55.6416C17.7559 55.7264 17.7896 55.8079 17.8494 55.8677C17.9095 55.9275 17.9906 55.9612 18.0754 55.9612H56.4363C56.5211 55.9612 56.6023 55.9275 56.6623 55.8677C56.7222 55.8079 56.7559 55.7264 56.7559 55.6416V17.2808C56.7559 17.1814 56.7098 17.0876 56.6309 17.0269L56.631 17.0272ZM20.7072 19.5644H29.0183V21.5967H20.7072V19.5644ZM18.3952 22.2358H31.3303V55.3221H18.3952V22.2358ZM31.9701 25.3425H41.366V55.3218H31.9701V25.3425ZM56.1163 55.3218H42.0051V21.4921L56.1163 17.698V55.3218ZM23.3491 25.6674H20.8041C20.7193 25.6674 20.6381 25.7011 20.578 25.761C20.5182 25.821 20.4845 25.9022 20.4845 25.987V28.5317C20.4845 28.6166 20.5182 28.6977 20.578 28.7578C20.6381 28.8176 20.7193 28.8513 20.8041 28.8513H23.3491C23.4339 28.8513 23.5154 28.8176 23.5754 28.7578C23.6353 28.6977 23.669 28.6166 23.669 28.5317V25.987C23.669 25.9022 23.6353 25.8208 23.5754 25.761C23.5153 25.7009 23.4339 25.6674 23.3491 25.6674ZM23.0295 28.212H21.1239V26.3069H23.0295V28.212ZM28.9214 25.6674H26.3771C26.2923 25.6674 26.2109 25.7011 26.1511 25.761C26.091 25.821 26.0576 25.9022 26.0576 25.987V28.5317C26.0576 28.6166 26.091 28.6977 26.1511 28.7578C26.2109 28.8176 26.2923 28.8513 26.3771 28.8513H28.9214C29.0062 28.8513 29.0876 28.8176 29.1474 28.7578C29.2075 28.6977 29.2412 28.6166 29.2409 28.5317V25.987C29.2412 25.9022 29.2075 25.821 29.1474 25.761C29.0876 25.7011 29.0062 25.6674 28.9214 25.6674ZM28.6018 28.212H26.6967V26.3069H28.6018V28.212ZM23.3494 30.531H20.8041C20.7193 30.531 20.6381 30.5647 20.5781 30.6245C20.5182 30.6846 20.4845 30.7657 20.4845 30.8505V33.3956C20.4845 33.4804 20.5182 33.5615 20.5781 33.6216C20.6381 33.6814 20.7193 33.7151 20.8041 33.7151H23.3491C23.4339 33.7151 23.5154 33.6814 23.5752 33.6216C23.6353 33.5615 23.669 33.4804 23.6687 33.3956V30.8502C23.6687 30.7654 23.635 30.6843 23.5752 30.6245C23.5151 30.5644 23.4339 30.531 23.3491 30.531L23.3494 30.531ZM23.0296 33.0757H21.1239V31.1701H23.0296V33.0757ZM28.9214 30.531H26.3772C26.2924 30.531 26.2109 30.5647 26.1511 30.6245C26.091 30.6846 26.0576 30.7657 26.0576 30.8505V33.3956C26.0576 33.4804 26.091 33.5615 26.1511 33.6216C26.2109 33.6814 26.2924 33.7151 26.3772 33.7151H28.9214C29.0062 33.7151 29.0877 33.6814 29.1475 33.6216C29.2076 33.5615 29.2413 33.4804 29.241 33.3956V30.8502C29.241 30.7654 29.2073 30.6843 29.1475 30.6245C29.0874 30.5644 29.0062 30.531 28.9214 30.531ZM28.6018 33.0757H26.6968V31.1701H28.6018V33.0757ZM23.3495 35.3941L20.8041 35.3944C20.7193 35.3944 20.6382 35.4278 20.5781 35.4879C20.5183 35.5477 20.4846 35.6292 20.4846 35.714V38.2587C20.4846 38.3435 20.5183 38.425 20.5781 38.485C20.6382 38.5449 20.7193 38.5786 20.8041 38.5786H23.3492C23.434 38.5786 23.5154 38.5449 23.5752 38.485C23.6353 38.425 23.669 38.3435 23.6687 38.2587V35.714C23.669 35.6292 23.6353 35.5477 23.5752 35.4879C23.5154 35.4278 23.434 35.3944 23.3492 35.3944L23.3495 35.3941ZM23.0296 37.9394H21.124V36.0335H23.0296V37.9394ZM28.9214 35.3944H26.3772C26.2924 35.3944 26.211 35.4278 26.1512 35.4879C26.0911 35.5477 26.0576 35.6292 26.0576 35.714V38.2587C26.0576 38.3435 26.0911 38.425 26.1512 38.4851C26.211 38.5449 26.2924 38.5786 26.3772 38.5786H28.9214C29.0063 38.5786 29.0877 38.5449 29.1475 38.4851C29.2076 38.425 29.2413 38.3435 29.241 38.2587V35.714C29.2413 35.6292 29.2076 35.5477 29.1475 35.4879C29.0877 35.4278 29.0063 35.3944 28.9214 35.3944ZM28.6019 37.9394H26.6968V36.0335H28.6019V37.9394ZM23.3495 40.2584H20.8042C20.7194 40.2582 20.6382 40.2919 20.5781 40.352C20.5183 40.4118 20.4846 40.4932 20.4846 40.578V43.1227C20.4846 43.2076 20.5183 43.2887 20.5781 43.3488C20.6382 43.4086 20.7194 43.4423 20.8042 43.4423H23.3492C23.434 43.4423 23.5155 43.4089 23.5755 43.3488C23.6354 43.2887 23.6691 43.2076 23.6691 43.1227V40.5777C23.6691 40.4929 23.6354 40.4115 23.5755 40.3517C23.5154 40.2916 23.434 40.2579 23.3492 40.2581L23.3495 40.2584ZM23.0299 42.8032H21.124V40.8972H23.0296L23.0299 42.8032ZM28.9215 40.2581H26.3772C26.2924 40.2579 26.211 40.2916 26.1512 40.3517C26.0911 40.4115 26.0577 40.4929 26.0577 40.5777V43.1227C26.0577 43.2076 26.0911 43.2887 26.1512 43.3488C26.211 43.4086 26.2924 43.4423 26.3772 43.4423H28.9215C29.0063 43.4423 29.0877 43.4086 29.1475 43.3488C29.2076 43.2887 29.2413 43.2076 29.241 43.1227V40.5777C29.2413 40.4929 29.2076 40.4115 29.1475 40.3517C29.0877 40.2916 29.0063 40.2579 28.9215 40.2581ZM28.6019 42.8029H26.6968V40.8972H28.6019V42.8029ZM23.3495 45.1216H20.8042C20.7194 45.1213 20.6382 45.155 20.5782 45.2151C20.5183 45.2749 20.4846 45.3564 20.4846 45.4412V47.9859C20.4846 48.0707 20.5183 48.1521 20.5782 48.2122C20.6383 48.2721 20.7194 48.3058 20.8042 48.3058H23.3492C23.434 48.3058 23.5155 48.2721 23.5753 48.2122C23.6354 48.1521 23.6691 48.0707 23.6688 47.9859V45.4412C23.6691 45.3564 23.6354 45.2749 23.5753 45.2151C23.5155 45.155 23.434 45.1213 23.3492 45.1216H23.3495ZM23.03 47.6663H21.124V45.7607H23.0297L23.03 47.6663ZM28.9215 45.1216H26.3773C26.2925 45.1213 26.211 45.155 26.1512 45.2151C26.0911 45.2749 26.0577 45.3564 26.0577 45.4412V47.9859C26.0577 48.0707 26.0911 48.1521 26.1512 48.2122C26.211 48.2721 26.2925 48.3058 26.3773 48.3058H28.9215C29.0063 48.3058 29.0877 48.2721 29.1476 48.2122C29.2077 48.1521 29.2414 48.0707 29.2411 47.9859V45.4412C29.2414 45.3564 29.2077 45.2749 29.1476 45.2151C29.0877 45.155 29.0063 45.1213 28.9215 45.1216ZM28.6019 47.6663H26.6969V45.7607H28.6019V47.6663ZM23.3493 49.9853H20.8042C20.7194 49.9853 20.6383 50.019 20.5782 50.0789C20.5184 50.1389 20.4847 50.2201 20.4847 50.3049V52.8496C20.4847 52.9344 20.5184 53.0156 20.5782 53.0757C20.6383 53.1355 20.7194 53.1692 20.8042 53.1692H23.3493C23.4341 53.1692 23.5155 53.1355 23.5753 53.0757C23.6354 53.0156 23.6691 52.9344 23.6688 52.8496V50.3049C23.6688 50.2201 23.6351 50.1387 23.5753 50.0789C23.5152 50.019 23.4341 49.9853 23.3493 49.9853ZM23.0297 52.5299H21.1241V50.6245H23.0297V52.5299ZM28.9215 49.9853H26.3773C26.2925 49.9853 26.211 50.019 26.1512 50.0789C26.0911 50.1389 26.0577 50.2201 26.0577 50.3049V52.8496C26.0577 52.9344 26.0911 53.0156 26.1512 53.0757C26.2111 53.1355 26.2925 53.1692 26.3773 53.1692H28.9215C29.0063 53.1692 29.0878 53.1355 29.1476 53.0757C29.2077 53.0156 29.2414 52.9344 29.2411 52.8496V50.3049C29.2411 50.2201 29.2074 50.1387 29.1476 50.0789C29.0875 50.019 29.0063 49.9853 28.9215 49.9853ZM28.602 52.5299H26.6969V50.6245H28.602V52.5299ZM39.6485 50.9837H33.689C33.6042 50.9834 33.5227 51.0171 33.4627 51.0772C33.4028 51.137 33.3691 51.2184 33.3691 51.3032V52.8494C33.3691 52.9342 33.4028 53.0157 33.4627 53.0755C33.5228 53.1356 33.6042 53.1693 33.689 53.1693H39.6485C39.7333 53.1693 39.8144 53.1356 39.8745 53.0755C39.9343 53.0157 39.968 52.9342 39.968 52.8494V51.3032C39.968 51.2184 39.9343 51.137 39.8745 51.0772C39.8144 51.0171 39.7333 50.9834 39.6485 50.9837ZM39.3289 52.5299H34.0085V51.6228H39.3286L39.3289 52.5299ZM39.6485 47.6664H33.689C33.6042 47.6664 33.5227 47.7001 33.4627 47.7599C33.4028 47.82 33.3691 47.9012 33.3691 47.986V49.5325C33.3691 49.6173 33.4028 49.6987 33.4627 49.7585C33.5228 49.8186 33.6042 49.8523 33.689 49.8523H39.6485C39.7333 49.8523 39.8144 49.8186 39.8745 49.7585C39.9343 49.6987 39.968 49.6173 39.968 49.5325V47.986C39.968 47.9012 39.9343 47.82 39.8745 47.7599C39.8144 47.7001 39.7333 47.6664 39.6485 47.6664ZM39.3289 49.2129H34.0085V48.3059H39.3286L39.3289 49.2129ZM39.6485 44.3491H33.689C33.6042 44.3491 33.5227 44.3828 33.4627 44.4427C33.4028 44.5028 33.3691 44.5842 33.3691 44.669V46.2155C33.3691 46.3003 33.4028 46.3814 33.4627 46.4415C33.5228 46.5014 33.6042 46.535 33.689 46.535H39.6485C39.7333 46.535 39.8144 46.5014 39.8745 46.4415C39.9343 46.3814 39.968 46.3003 39.968 46.2155V44.669C39.968 44.5842 39.9343 44.5028 39.8745 44.4429C39.8144 44.3828 39.733 44.3492 39.6485 44.3494V44.3491ZM39.3289 45.8956H34.0085V44.9886H39.3286L39.3289 45.8956ZM39.6485 32.1892H33.689C33.6042 32.1892 33.5227 32.2229 33.4627 32.2827C33.4028 32.3428 33.3691 32.4243 33.3691 32.5091V34.0556C33.3691 34.1404 33.4028 34.2215 33.4627 34.2816C33.5228 34.3414 33.6042 34.3751 33.689 34.3751H39.6485C39.7333 34.3751 39.8144 34.3414 39.8745 34.2816C39.9343 34.2215 39.968 34.1404 39.968 34.0556V32.5091C39.968 32.4243 39.9343 32.3428 39.8745 32.2827C39.8144 32.2229 39.7333 32.1892 39.6485 32.1892ZM39.3289 33.7357H34.0085V32.8287H39.3286L39.3289 33.7357ZM39.6485 28.872L33.689 28.8723C33.6042 28.872 33.5227 28.9057 33.4627 28.9658C33.4028 29.0256 33.3691 29.107 33.3691 29.1918V30.7383C33.3691 30.8231 33.4028 30.9046 33.4627 30.9644C33.5228 31.0245 33.6042 31.0582 33.689 31.0582H39.6485C39.7333 31.0582 39.8144 31.0245 39.8745 30.9644C39.9343 30.9045 39.968 30.8231 39.968 30.7383V29.1918C39.968 29.107 39.9343 29.0256 39.8745 28.9658C39.8144 28.9057 39.7333 28.872 39.6485 28.8723V28.872ZM39.3289 30.4185L34.0085 30.4187V29.5114H39.3286L39.3289 30.4185ZM45.0028 28.8509H47.5479L47.5476 28.8512C47.6324 28.8512 47.7135 28.8175 47.7736 28.7577C47.8335 28.6976 47.8672 28.6164 47.8672 28.5316V25.9869C47.8672 25.9021 47.8335 25.8209 47.7736 25.7608C47.7135 25.701 47.6324 25.6673 47.5476 25.6673H45.0028C44.918 25.6673 44.8369 25.701 44.7768 25.7608C44.7167 25.8209 44.6833 25.9021 44.6833 25.9869V28.5316C44.6833 28.6164 44.7167 28.6976 44.7768 28.7577C44.8369 28.8175 44.918 28.8512 45.0028 28.8512L45.0028 28.8509ZM45.3224 26.3064H47.228V28.2117H45.3227L45.3224 26.3064ZM50.5748 28.8509H53.1198L53.1195 28.8512C53.2043 28.8512 53.2858 28.8175 53.3456 28.7577C53.4057 28.6976 53.4394 28.6164 53.4391 28.5316V25.9869C53.4394 25.9021 53.4057 25.8209 53.3456 25.7608C53.2858 25.701 53.2043 25.6673 53.1195 25.6673H50.5753C50.4905 25.6673 50.4091 25.701 50.349 25.7608C50.2891 25.8209 50.2554 25.9021 50.2554 25.9869V28.5316C50.2554 28.6164 50.2891 28.6976 50.349 28.7577C50.4091 28.8175 50.4905 28.8512 50.5753 28.8512L50.5748 28.8509ZM50.8944 26.3064H52.8V28.2117H50.8949L50.8944 26.3064ZM45.0028 33.7146H47.5478C47.6326 33.7146 47.7138 33.6809 47.7739 33.6211C47.8337 33.561 47.8674 33.4798 47.8674 33.395V30.8497C47.8674 30.7649 47.8337 30.6837 47.7739 30.6236C47.7138 30.5638 47.6326 30.5301 47.5478 30.5301H45.0028C44.918 30.5301 44.8368 30.5638 44.7768 30.6236C44.7167 30.6837 44.6832 30.7649 44.6832 30.8497V33.3947C44.683 33.4795 44.7167 33.561 44.7768 33.6211C44.8366 33.6809 44.918 33.7146 45.0028 33.7146ZM45.3224 31.1696H47.228V33.0752H45.3227L45.3224 31.1696ZM50.5748 33.7146H53.1198C53.2046 33.7146 53.286 33.6809 53.3458 33.6211C53.4059 33.561 53.4396 33.4798 53.4394 33.395V30.8497C53.4396 30.7649 53.4059 30.6837 53.3458 30.6236C53.286 30.5638 53.2046 30.5301 53.1198 30.5301H50.5753C50.4905 30.5301 50.409 30.5638 50.3492 30.6236C50.2891 30.6837 50.2554 30.7649 50.2554 30.8497V33.3947C50.2554 33.4795 50.2891 33.561 50.3489 33.6211C50.409 33.6809 50.4905 33.7146 50.5753 33.7146L50.5748 33.7146ZM50.8943 31.1696H52.8L52.8002 33.0752H50.8949L50.8943 31.1696ZM45.0028 38.5777H47.5478C47.6326 38.5777 47.7138 38.544 47.7739 38.4842C47.8337 38.4241 47.8674 38.3427 47.8674 38.2579V35.7132C47.8674 35.6283 47.8337 35.5469 47.7739 35.4871C47.7138 35.427 47.6326 35.3936 47.5478 35.3936H45.0028C44.918 35.3936 44.8368 35.427 44.7767 35.4871C44.7166 35.5469 44.6832 35.6283 44.6832 35.7132V38.2579C44.6832 38.3427 44.7166 38.4241 44.7767 38.4842C44.8368 38.544 44.918 38.5777 45.0028 38.5777ZM45.3226 36.0327H47.2283L47.228 37.9386H45.3226L45.3226 36.0327ZM50.575 38.5775H53.12H53.1198C53.2046 38.5775 53.286 38.5438 53.3458 38.4839C53.4059 38.4238 53.4396 38.3427 53.4393 38.2579V35.7131C53.4396 35.6283 53.4059 35.5469 53.3458 35.4871C53.286 35.427 53.2046 35.3936 53.1198 35.3936H50.5752C50.4904 35.3936 50.409 35.427 50.3489 35.4871C50.2891 35.5469 50.2554 35.6283 50.2554 35.7131V38.2579C50.2554 38.3427 50.2891 38.4241 50.3489 38.4842C50.409 38.544 50.4904 38.5777 50.5752 38.5777L50.575 38.5775ZM50.8946 36.0327H52.8002V37.9386H50.8949L50.8946 36.0327ZM45.0027 43.4416H47.5478C47.6326 43.4416 47.7137 43.4079 47.7738 43.3481C47.8336 43.288 47.8673 43.2066 47.8673 43.1218V40.577C47.8673 40.4922 47.8336 40.4108 47.7738 40.351C47.7137 40.2909 47.6326 40.2572 47.5478 40.2575H45.0027C44.9179 40.2572 44.8368 40.2909 44.7767 40.351C44.7166 40.4108 44.6832 40.4922 44.6832 40.577V43.1221C44.6832 43.2069 44.7169 43.288 44.7767 43.3481C44.8368 43.4079 44.9179 43.4416 45.0027 43.4416ZM45.3223 40.8969H47.228V42.8025L45.3226 42.8022L45.3223 40.8969ZM50.5747 43.4416H53.1197C53.2045 43.4416 53.286 43.4079 53.3458 43.3481C53.4059 43.288 53.4396 43.2066 53.4393 43.1218V40.577C53.4396 40.4922 53.4059 40.4108 53.3458 40.351C53.286 40.2909 53.2045 40.2572 53.1197 40.2575H50.5752C50.4904 40.2572 50.409 40.2909 50.3489 40.351C50.289 40.4108 50.2553 40.4922 50.2553 40.577V43.1221C50.2553 43.2069 50.289 43.288 50.3491 43.3481C50.409 43.4079 50.4904 43.4416 50.5752 43.4416L50.5747 43.4416ZM50.8943 40.8969H52.7999V42.8025L50.8948 42.8022L50.8943 40.8969ZM45.0027 48.3051H47.5477C47.6326 48.3051 47.7137 48.2717 47.7738 48.2116C47.8336 48.1515 47.8673 48.0703 47.8673 47.9855V45.4405C47.8673 45.3557 47.8336 45.2742 47.7738 45.2144C47.7137 45.1543 47.6326 45.1206 47.5477 45.1209H45.0027C44.9179 45.1206 44.8368 45.1543 44.7767 45.2144C44.7166 45.2742 44.6831 45.3557 44.6831 45.4405V47.9852C44.6829 48.07 44.7166 48.1515 44.7767 48.2116C44.8365 48.2714 44.9179 48.3051 45.0027 48.3051ZM45.3223 45.7603H47.2279V47.666L45.3226 47.6657L45.3223 45.7603ZM50.5747 48.3051H53.1197C53.2045 48.3051 53.2859 48.2717 53.3457 48.2116C53.4058 48.1515 53.4395 48.0703 53.4393 47.9855V45.4405C53.4395 45.3557 53.4058 45.2742 53.3457 45.2144C53.2859 45.1543 53.2045 45.1206 53.1197 45.1209H50.5752C50.4904 45.1206 50.4089 45.1543 50.3488 45.2144C50.289 45.2742 50.2553 45.3557 50.2553 45.4405V47.9852C50.2553 48.07 50.289 48.1515 50.3488 48.2116C50.4089 48.2714 50.4904 48.3051 50.5752 48.3051L50.5747 48.3051ZM50.8942 45.7603H52.7999V47.666L50.8948 47.6657L50.8942 45.7603ZM45.0027 53.1685H47.5477C47.6325 53.1685 47.7137 53.1348 47.7738 53.0747C47.8336 53.0149 47.8673 52.9335 47.8673 52.8487V50.3042C47.8673 50.2193 47.8336 50.1379 47.7738 50.0781C47.7137 50.018 47.6325 49.9843 47.5477 49.9846H45.0027C44.9179 49.9843 44.8367 50.018 44.7766 50.0781C44.7165 50.1379 44.6831 50.2193 44.6831 50.3042V52.8487C44.6831 52.9335 44.7165 53.0149 44.7766 53.0747C44.8367 53.1348 44.9179 53.1685 45.0027 53.1685ZM45.3223 50.624H47.2279V52.5291H45.3225L45.3223 50.624ZM50.5746 53.1685H53.1197C53.2045 53.1685 53.2859 53.1348 53.3457 53.0747C53.4058 53.0149 53.4395 52.9335 53.4392 52.8487V50.3042C53.4395 50.2193 53.4058 50.1379 53.3457 50.0781C53.2859 50.018 53.2045 49.9843 53.1197 49.9846H50.5751C50.4903 49.9843 50.4089 50.018 50.3488 50.0781C50.289 50.1379 50.2553 50.2193 50.2553 50.3042V52.8487C50.2553 52.9335 50.289 53.0149 50.3488 53.0747C50.4089 53.1348 50.4903 53.1685 50.5751 53.1685H50.5746ZM50.8942 50.624H52.7998L52.8001 52.5291H50.8948L50.8942 50.624ZM37.7306 40.4661C37.73 40.0325 37.3784 39.6812 36.9451 39.6809H36.3924C35.8884 39.6823 35.4211 39.4169 35.1641 38.9833C34.9072 38.5495 34.8988 38.0123 35.1422 37.5709C35.3857 37.1294 35.8446 36.8497 36.3483 36.8356V36.4158C36.3483 36.2392 36.4915 36.096 36.6679 36.096C36.8445 36.096 36.9877 36.2392 36.9877 36.4158V36.8356C37.3573 36.8466 37.7083 37.0008 37.9664 37.2659C38.2245 37.5309 38.3691 37.8862 38.3699 38.256C38.3699 38.4323 38.2267 38.5756 38.0501 38.5756C37.8737 38.5756 37.7305 38.4323 37.7305 38.256C37.7299 37.8224 37.3786 37.4708 36.945 37.4705H36.3924C36.1829 37.4686 35.9813 37.5506 35.8324 37.698C35.6836 37.8454 35.5999 38.0465 35.5999 38.256C35.5999 38.4655 35.6836 38.6662 35.8324 38.814C35.9813 38.9614 36.1829 39.0434 36.3924 39.0414H36.945C37.4485 39.0411 37.9147 39.3068 38.1708 39.7404C38.4269 40.1737 38.4351 40.7103 38.1922 41.1512C37.9492 41.5921 37.4912 41.8717 36.988 41.8869V42.3065C36.988 42.4828 36.8451 42.626 36.6684 42.626C36.4918 42.626 36.3489 42.4828 36.3489 42.3065V41.8869C35.9793 41.8757 35.6285 41.721 35.3708 41.4559C35.113 41.1908 34.9684 40.8358 34.9678 40.4659C34.9678 40.2896 35.1108 40.1464 35.2874 40.1464C35.464 40.1464 35.607 40.2896 35.607 40.4659C35.6073 40.8998 35.9588 41.2514 36.3924 41.252H36.9451C37.3787 41.2514 37.7303 40.8998 37.7306 40.4659V40.4661Z" fill="#9426BA" stroke="#9426BA" stroke-width="0.5"/>
</svg>
