<svg width="72" height="72" viewBox="0 0 72 72" fill="none" xmlns="http://www.w3.org/2000/svg">
<ellipse cx="35.7" cy="35.6984" rx="35.7" ry="35.6984" fill="#E6C34B"/>
<path d="M36.0062 23.0001C33.0891 23.0001 30.6853 25.3228 30.6853 28.1764C30.6853 31.03 33.0891 33.3592 36.0062 33.3592C38.9233 33.3592 41.3272 31.03 41.3272 28.1764C41.3272 25.3228 38.9233 23.0001 36.0062 23.0001ZM36.0062 25.1998C37.732 25.1998 39.0901 26.5266 39.0901 28.1764C39.0901 29.8262 37.732 31.1616 36.0062 31.1616C34.2805 31.1616 32.9202 29.8261 32.9202 28.1764C32.9202 26.5267 34.2805 25.1998 36.0062 25.1998ZM23.6664 26.4896C21.1665 26.4896 19.1115 28.5023 19.1115 30.9578C19.1115 33.4132 21.1665 35.4195 23.6664 35.4195C26.1663 35.4195 28.2278 33.4132 28.2278 30.9578C28.2278 28.5023 26.1663 26.4896 23.6664 26.4896ZM48.3373 26.4896C45.8374 26.4896 43.7845 28.5023 43.7845 30.9578C43.7845 33.4132 45.8374 35.4195 48.3373 35.4195C50.8372 35.4195 52.8922 33.4132 52.8922 30.9578C52.8922 28.5023 50.8372 26.4896 48.3373 26.4896ZM23.6664 28.6872C24.9628 28.6872 25.9929 29.6943 25.9929 30.9578C25.9929 32.2212 24.9628 33.2219 23.6664 33.2219C22.37 33.2219 21.3486 32.2212 21.3486 30.9578C21.3486 29.6943 22.37 28.6872 23.6664 28.6872ZM48.3373 28.6872C49.6337 28.6872 50.6551 29.6943 50.6551 30.9578C50.6551 32.2212 49.6337 33.2219 48.3373 33.2219C47.0409 33.2219 46.0194 32.2212 46.0194 30.9578C46.0194 29.6943 47.0409 28.6872 48.3373 28.6872ZM36.0062 33.9343C31.6558 33.9343 28.1033 37.3644 28.1033 41.6087V46.8966C28.1008 47.5033 28.5994 47.9972 29.2164 47.9997H42.7942C43.091 47.9991 43.3753 47.8826 43.5845 47.6757C43.7938 47.4687 43.9107 47.1885 43.9094 46.8966V41.6087C43.9094 37.3644 40.3569 33.9343 36.0065 33.9343L36.0062 33.9343ZM23.6664 36.0031C19.9957 36.0031 17.001 38.9282 17.001 42.5315V46.8966C16.9997 47.1894 17.1176 47.4708 17.3284 47.6778C17.5388 47.885 17.825 48.0009 18.1228 47.9997H25.3164C25.6169 48.0061 25.9078 47.8933 26.1227 47.6867C26.3378 47.4797 26.4588 47.1968 26.4588 46.9009C26.4588 46.6053 26.3378 46.3221 26.1227 46.1151C25.9079 45.9085 25.617 45.7956 25.3164 45.8021H19.2359V42.5314C19.2359 40.1125 21.1901 38.2006 23.6664 38.2006C24.4134 38.2006 25.1084 38.376 25.7201 38.6878C25.9842 38.8267 26.2938 38.8558 26.58 38.7684C26.8659 38.681 27.1044 38.4848 27.2422 38.2233C27.38 37.9618 27.4056 37.657 27.313 37.3768C27.2207 37.0969 27.018 36.8648 26.7502 36.7327C25.8282 36.263 24.7738 36.003 23.6663 36.003L23.6664 36.0031ZM48.3373 36.0031C47.208 36.0031 46.1379 36.2781 45.2031 36.765C44.931 36.8959 44.7246 37.1295 44.631 37.4128C44.5375 37.6961 44.5649 38.0045 44.7068 38.2676C44.8489 38.5306 45.0934 38.7256 45.3846 38.8081C45.6755 38.8905 45.9882 38.8534 46.2508 38.705C46.8712 38.3819 47.5756 38.2007 48.3373 38.2007C50.8135 38.2007 52.7765 40.1125 52.7765 42.5315V45.8022H46.696C46.3955 45.7957 46.1045 45.9086 45.8897 46.1152C45.6746 46.3221 45.5536 46.6054 45.5536 46.901C45.5536 47.1968 45.6746 47.4798 45.8897 47.6868C46.1045 47.8934 46.3954 48.0062 46.696 47.9998H53.8896C54.5066 47.9973 55.0052 47.5034 55.0026 46.8967V42.5316C55.0026 38.9283 52.0079 36.0032 48.3372 36.0032L48.3373 36.0031ZM36.0062 36.1319C39.174 36.1319 41.672 38.5606 41.672 41.6086V45.8021H30.3379V41.6086C30.3379 38.5606 32.8381 36.1319 36.0059 36.1319H36.0062Z" fill="#9426BA"/>
</svg>
