<svg width="72" height="72" viewBox="0 0 72 72" fill="none" xmlns="http://www.w3.org/2000/svg">
<circle cx="35.6984" cy="35.6984" r="35.6984" fill="#E6C34B"/>
<path d="M26.6274 25.285H27.1518C27.7297 25.285 28.1986 24.8174 28.1986 24.2382V20.0468C28.1975 19.4686 27.7286 19 27.1507 19H26.6273C26.0481 19 25.5781 19.4686 25.5781 20.0468V24.2372C25.5781 24.8178 26.0481 25.2851 26.6273 25.2851L26.6274 25.285Z" fill="#9426BA"/>
<path d="M41.129 25.285H41.6534C42.2313 25.285 42.7002 24.8174 42.7002 24.2382V20.0468C42.7002 19.4686 42.2313 19 41.6534 19H41.129C40.5497 19 40.0811 19.4686 40.0811 20.0468V24.2372C40.0808 24.8178 40.5497 25.285 41.129 25.285Z" fill="#9426BA"/>
<path d="M31.1581 30.6036C31.1581 30.345 30.9456 30.1325 30.6857 30.1325H27.989C27.7291 30.1325 27.5166 30.345 27.5166 30.6036V32.6521C27.5166 32.9131 27.728 33.1245 27.989 33.1245H30.6859C30.9459 33.1245 31.1584 32.9131 31.1584 32.6521L31.1581 30.6036Z" fill="#9426BA"/>
<path d="M35.9548 30.6036C35.9548 30.345 35.7434 30.1325 35.4838 30.1325H32.8343C32.5757 30.1325 32.3643 30.345 32.3643 30.6036V32.6521C32.3643 32.9131 32.5757 33.1245 32.8343 33.1245H35.4838C35.7437 33.1245 35.9548 32.9131 35.9548 32.6521V30.6036Z" fill="#9426BA"/>
<path d="M37.6361 33.1231H40.2856C40.5456 33.1231 40.7567 32.9117 40.7567 32.6506V30.6021C40.7567 30.3435 40.5467 30.131 40.2856 30.131H37.6361C37.3775 30.131 37.165 30.3435 37.165 30.6021V32.6506C37.1648 32.9117 37.3773 33.1231 37.6361 33.1231Z" fill="#9426BA"/>
<path d="M42.4373 33.1231H45.0843C45.3442 33.1231 45.5567 32.9117 45.5567 32.6506V30.6021C45.5567 30.3435 45.3453 30.131 45.0843 30.131H42.4373C42.1773 30.131 41.9648 30.3435 41.9648 30.6021V32.6506C41.9648 32.9117 42.1773 33.1231 42.4373 33.1231Z" fill="#9426BA"/>
<path d="M26.3127 34.7953C26.3127 34.5354 26.1013 34.3242 25.8392 34.3242H23.1932C22.9333 34.3242 22.7197 34.5357 22.7197 34.7953V36.8426C22.7197 37.1025 22.9322 37.3136 23.1932 37.3136H25.8392C26.1002 37.3136 26.3127 37.1022 26.3127 36.8426V34.7953Z" fill="#9426BA"/>
<path d="M31.1581 34.7953C31.1581 34.5354 30.9456 34.3242 30.6857 34.3242H27.989C27.7291 34.3242 27.5166 34.5357 27.5166 34.7953V36.8426C27.5166 37.1025 27.728 37.3136 27.989 37.3136H30.6859C30.9459 37.3136 31.1584 37.1022 31.1584 36.8426L31.1581 34.7953Z" fill="#9426BA"/>
<path d="M35.9548 34.7953C35.9548 34.5354 35.7434 34.3242 35.4838 34.3242H32.8343C32.5757 34.3242 32.3643 34.5357 32.3643 34.7953V36.8426C32.3643 37.1025 32.5757 37.3136 32.8343 37.3136H35.4838C35.7437 37.3136 35.9548 37.1022 35.9548 36.8426V34.7953Z" fill="#9426BA"/>
<path d="M37.165 36.8423C37.165 37.1022 37.3765 37.3133 37.6361 37.3133H40.2856C40.5456 37.3133 40.7567 37.1019 40.7567 36.8423V34.795C40.7567 34.5351 40.5467 34.3239 40.2856 34.3239H37.6361C37.3775 34.3239 37.165 34.5354 37.165 34.795V36.8423Z" fill="#9426BA"/>
<path d="M41.9658 36.8423C41.9658 37.1022 42.1783 37.3133 42.4383 37.3133H45.0853C45.3452 37.3133 45.5577 37.1019 45.5577 36.8423V34.795C45.5577 34.5351 45.3463 34.3239 45.0853 34.3239H42.4383C42.1783 34.3239 41.9658 34.5354 41.9658 34.795V36.8423Z" fill="#9426BA"/>
<path d="M26.3127 38.9884C26.3127 38.7274 26.1013 38.5174 25.8392 38.5174H23.1932C22.9333 38.5174 22.7197 38.7263 22.7197 38.9884V41.0357C22.7197 41.2956 22.9322 41.5068 23.1932 41.5068H25.8392C26.1002 41.5068 26.3127 41.2967 26.3127 41.0357V38.9884Z" fill="#9426BA"/>
<path d="M31.1581 38.9884C31.1581 38.7274 30.9456 38.5174 30.6857 38.5174H27.989C27.7291 38.5174 27.5166 38.7263 27.5166 38.9884V41.0357C27.5166 41.2956 27.728 41.5068 27.989 41.5068H30.6859C30.9459 41.5068 31.1584 41.2967 31.1584 41.0357L31.1581 38.9884Z" fill="#9426BA"/>
<path d="M35.9548 38.9884C35.9548 38.7274 35.7434 38.5174 35.4838 38.5174H32.8343C32.5757 38.5174 32.3643 38.7263 32.3643 38.9884V41.0357C32.3643 41.2956 32.5757 41.5068 32.8343 41.5068H35.4838C35.7437 41.5068 35.9548 41.2967 35.9548 41.0357V38.9884Z" fill="#9426BA"/>
<path d="M25.8403 42.709H23.1932C22.9333 42.709 22.7197 42.9191 22.7197 43.1801V45.2273C22.7197 45.4873 22.9322 45.6984 23.1932 45.6984H25.8392C26.1002 45.6984 26.3127 45.487 26.3127 45.2273V43.1801C26.3127 42.9204 26.1013 42.709 25.8403 42.709Z" fill="#9426BA"/>
<path d="M30.6859 42.709H27.989C27.7291 42.709 27.5166 42.9191 27.5166 43.1801V45.2273C27.5166 45.4873 27.728 45.6984 27.989 45.6984H30.6859C30.9459 45.6984 31.1584 45.487 31.1584 45.2273V43.1801C31.1581 42.9204 30.9456 42.709 30.6859 42.709Z" fill="#9426BA"/>
<path d="M35.4838 42.709H32.8343C32.5757 42.709 32.3643 42.9191 32.3643 43.1801V45.2273C32.3643 45.4873 32.5757 45.6984 32.8343 45.6984H35.4838C35.7437 45.6984 35.9548 45.487 35.9548 45.2273V43.1801C35.9548 42.9204 35.7437 42.709 35.4838 42.709Z" fill="#9426BA"/>
<path d="M20.2578 49.2731H37.2822C36.9968 48.6782 36.7734 48.0504 36.6325 47.3886H20.887V28.4408H47.3911V37.6923C48.0614 37.9083 48.6916 38.2108 49.2768 38.5799V23.0821C49.2768 22.3874 48.7146 21.8242 48.02 21.8242H43.4287V24.237C43.4287 25.2157 42.6321 26.0124 41.6533 26.0124H41.1289C40.149 26.0124 39.3524 25.2158 39.3524 24.237V21.8252H28.9268V24.2381C28.9268 25.2168 28.1303 26.0134 27.1515 26.0134L26.627 26.0132C25.6472 26.0132 24.8492 25.2166 24.8492 24.2378V21.8252H20.2579C19.5632 21.8252 19 22.3887 19 23.0831V48.017C19.0014 48.7106 19.5635 49.2728 20.2579 49.2728L20.2578 49.2731Z" fill="#9426BA"/>
<path d="M37.4912 45.6636C37.4912 49.7095 40.782 53 44.8276 53C48.8732 53 52.164 49.7092 52.164 45.6636C52.164 41.618 48.8732 38.3272 44.8276 38.3272C40.7815 38.3272 37.4912 41.6177 37.4912 45.6636ZM50.659 45.6636C50.659 48.879 48.0434 51.4946 44.828 51.4946C41.6125 51.4946 38.9969 48.879 38.9969 45.6636C38.9969 42.4481 41.6125 39.8326 44.828 39.8326C48.0434 39.8326 50.659 42.4481 50.659 45.6636Z" fill="#9426BA"/>
<path d="M42.2811 45.3354C41.952 45.0064 41.3763 45.0039 41.0438 45.333C40.7025 45.6729 40.7014 46.2279 41.0413 46.5703L42.9538 48.4901C43.1189 48.6552 43.3387 48.7463 43.5731 48.7476C43.8062 48.7476 44.0261 48.6565 44.1911 48.4915L48.61 44.0726C48.7751 43.9075 48.8662 43.6877 48.8662 43.4546C48.8662 43.2215 48.7751 43.0017 48.61 42.8366C48.2796 42.5076 47.7042 42.5076 47.3727 42.8366L43.5732 46.6362L42.2811 45.3354Z" fill="#9426BA"/>
</svg>
