<svg width="72" height="72" viewBox="0 0 72 72" fill="none" xmlns="http://www.w3.org/2000/svg">
<ellipse cx="35.6984" cy="35.7" rx="35.6984" ry="35.7" fill="#E6C34B"/>
<path fill-rule="evenodd" clip-rule="evenodd" d="M25.7099 36.6971C22.7402 35.8972 19.6121 37.1961 18.0772 39.8732C16.5395 42.55 16.9818 45.9216 19.156 48.1065C20.1657 49.122 20.6999 50.2303 20.9529 51.4327C21.1675 52.4585 21.1587 53.6073 21.1616 54.8353H28.0271V52.6847L30.7411 50.4826V47.1641L32.038 45.9539L30.7411 43.4221V43.2823C30.7408 40.1923 28.6766 37.4941 25.7099 36.6971ZM26.0131 35.5662C29.4905 36.5007 31.9087 39.6714 31.9087 43.2826L33.4794 46.2038L31.9087 47.6696V51.036L29.1943 53.24V56.0029H20.0289V55.4204C20.0289 53.9244 20.0237 52.7035 19.8091 51.6725C19.591 50.6442 19.1885 49.7983 18.3267 48.9346C15.7845 46.3785 15.2665 42.4212 17.065 39.2911C18.8614 36.1632 22.5393 34.6297 26.0127 35.5662L26.0131 35.5662Z" fill="#9426BA"/>
<path fill-rule="evenodd" clip-rule="evenodd" d="M47.2923 36.6971C50.2588 35.8972 53.3866 37.1961 54.9247 39.8732C56.4637 42.55 56.0181 45.9216 53.8432 48.1065C52.8335 49.122 52.2993 50.2303 52.0472 51.4327C51.8323 52.4585 51.843 53.6073 51.8378 54.8353H44.9728V52.6847L42.2614 50.4826V47.1641L40.9644 45.9539L42.2614 43.4221V43.2823C42.2614 40.1923 44.3234 37.4941 47.2923 36.6971ZM46.9862 35.5662C43.512 36.5007 41.0925 39.6714 41.0925 43.2826L39.5195 46.2038L41.0925 47.6696V51.036L43.8049 53.24V56.0029H52.972V55.4204C52.972 53.9244 52.9778 52.7035 53.1927 51.6725C53.4073 50.6442 53.8101 49.7983 54.6722 48.9346C57.2144 46.3785 57.733 42.4212 55.9365 39.2911C54.1376 36.1632 50.4619 34.6297 46.9855 35.5662L46.9862 35.5662Z" fill="#9426BA"/>
<path fill-rule="evenodd" clip-rule="evenodd" d="M33.8903 36.2267H39.152V37.9317L37.8767 39.0322L37.8278 39.1966C37.667 39.7461 37.1331 40.1062 36.5687 40.1389C36.0028 40.1735 35.474 39.9477 35.2054 39.1704L35.1517 39.02L33.89 37.933L33.8897 36.2267H33.8903ZM36.5186 22.7336C39.064 22.7336 41.3593 24.2723 42.3333 26.6427C43.3076 29.0133 42.7682 31.7409 40.9674 33.5527L39.4688 35.0588H37.1065V30.9432C37.356 30.8869 37.5997 30.7983 37.8314 30.6692C38.6423 30.21 39.1526 29.3512 39.1526 28.4224H37.9796C37.9796 28.9269 37.711 29.3971 37.2573 29.6525C36.8036 29.91 36.2399 29.91 35.7843 29.6525C35.3306 29.3975 35.0591 28.9273 35.0591 28.4224H33.8912C33.8912 29.3512 34.3983 30.21 35.2092 30.6692C35.4406 30.7979 35.6872 30.8866 35.9367 30.9432V35.0588H33.5744L32.0765 33.5527C30.275 31.7402 29.7327 29.0126 30.7099 26.6427C31.683 24.2727 33.9731 22.7336 36.5185 22.7336H36.5186ZM36.5186 21.5687C33.5007 21.5687 30.7812 23.3996 29.6276 26.2019C28.4756 29.0029 29.1147 32.2293 31.2462 34.374L32.7231 35.8616V38.4681L34.1725 39.7192C34.6368 40.8226 35.6733 41.3599 36.637 41.3032C37.5874 41.2469 38.5087 40.6696 38.8762 39.714L40.3201 38.4681V35.8616L41.7974 34.374C43.9283 32.2292 44.5674 29.0026 43.4128 26.2019C42.2611 23.3996 39.5361 21.5687 36.5185 21.5687H36.5186Z" fill="#9426BA"/>
<path d="M35.6025 15H36.773V19.2928H35.6025V15Z" fill="#9426BA"/>
<path d="M45.4598 18.5942L42.4238 21.6308L43.248 22.4579L46.284 19.4242L45.4598 18.5942Z" fill="#9426BA"/>
<path d="M26.0859 19.4248L26.9131 18.5951L29.9529 21.6252L29.1258 22.455L26.0859 19.4248Z" fill="#9426BA"/>
<path d="M22.4912 28.1115H26.7814V29.2794H22.4912V28.1115Z" fill="#9426BA"/>
<path d="M45.5957 28.1115H49.8853V29.2794H45.5957V28.1115Z" fill="#9426BA"/>
</svg>
