<svg width="18" height="18" viewBox="0 0 18 18" fill="none" xmlns="http://www.w3.org/2000/svg">
<path d="M11.0762 8.62271L7.09909 4.65951C7.03376 4.59377 6.95605 4.54158 6.87042 4.50597C6.7848 4.47036 6.69295 4.45203 6.60019 4.45203C6.50743 4.45203 6.41559 4.47036 6.32997 4.50597C6.24434 4.54158 6.16662 4.59377 6.1013 4.65951C5.97043 4.79094 5.89697 4.96872 5.89697 5.15404C5.89697 5.33935 5.97043 5.51714 6.1013 5.64856L9.57949 9.15582L6.1013 12.628C5.97043 12.7594 5.89697 12.9372 5.89697 13.1225C5.89697 13.3078 5.97043 13.4856 6.1013 13.617C6.16638 13.6833 6.24398 13.7361 6.32962 13.7722C6.41526 13.8083 6.50723 13.8271 6.60019 13.8275C6.69316 13.8271 6.78513 13.8083 6.87077 13.7722C6.9564 13.7361 7.03401 13.6833 7.09909 13.617L11.0762 9.65385C11.1475 9.58816 11.2044 9.50844 11.2433 9.41971C11.2823 9.33097 11.3024 9.23515 11.3024 9.13828C11.3024 9.04141 11.2823 8.94559 11.2433 8.85685C11.2044 8.76812 11.1475 8.6884 11.0762 8.62271V8.62271Z" fill="#1EA1F7"/>
</svg>
