<svg width="18" height="17" viewBox="0 0 18 17" fill="none" xmlns="http://www.w3.org/2000/svg">
<path d="M11.2327 7.9194L7.26254 3.95621C7.19733 3.89046 7.11975 3.83828 7.03427 3.80266C6.94879 3.76705 6.85711 3.74872 6.76451 3.74872C6.67191 3.74872 6.58022 3.76705 6.49475 3.80266C6.40927 3.83828 6.33169 3.89046 6.26648 3.95621C6.13583 4.08763 6.0625 4.26542 6.0625 4.45073C6.0625 4.63604 6.13583 4.81383 6.26648 4.94525L9.73866 8.45251L6.26648 11.9247C6.13583 12.0561 6.0625 12.2339 6.0625 12.4192C6.0625 12.6045 6.13583 12.7823 6.26648 12.9137C6.33144 12.98 6.40891 13.0327 6.4944 13.0689C6.57989 13.105 6.6717 13.1238 6.76451 13.1242C6.85731 13.1238 6.94912 13.105 7.03461 13.0689C7.1201 13.0327 7.19757 12.98 7.26254 12.9137L11.2327 8.95054C11.304 8.88485 11.3608 8.80513 11.3996 8.7164C11.4385 8.62766 11.4586 8.53184 11.4586 8.43497C11.4586 8.3381 11.4385 8.24228 11.3996 8.15354C11.3608 8.06481 11.304 7.98509 11.2327 7.9194V7.9194Z" fill="#1EA1F7"/>
</svg>
