<svg width="18" height="18" viewBox="0 0 18 18" fill="none" xmlns="http://www.w3.org/2000/svg">
<path d="M11.415 8.62271L7.43795 4.65951C7.37263 4.59377 7.29492 4.54158 7.20929 4.50597C7.12366 4.47036 7.03182 4.45203 6.93906 4.45203C6.8463 4.45203 6.75446 4.47036 6.66883 4.50597C6.58321 4.54158 6.50549 4.59377 6.44017 4.65951C6.3093 4.79094 6.23584 4.96872 6.23584 5.15404C6.23584 5.33935 6.3093 5.51714 6.44017 5.64856L9.91836 9.15582L6.44017 12.628C6.3093 12.7594 6.23584 12.9372 6.23584 13.1225C6.23584 13.3078 6.3093 13.4856 6.44017 13.617C6.50525 13.6833 6.58285 13.7361 6.66849 13.7722C6.75413 13.8083 6.84609 13.8271 6.93906 13.8275C7.03203 13.8271 7.124 13.8083 7.20963 13.7722C7.29527 13.7361 7.37288 13.6833 7.43795 13.617L11.415 9.65385C11.4864 9.58816 11.5433 9.50844 11.5822 9.41971C11.6211 9.33097 11.6412 9.23515 11.6412 9.13828C11.6412 9.04141 11.6211 8.94559 11.5822 8.85685C11.5433 8.76812 11.4864 8.6884 11.415 8.62271V8.62271Z" fill="#1EA1F7"/>
</svg>
