<svg width="18" height="18" viewBox="0 0 18 18" fill="none" xmlns="http://www.w3.org/2000/svg">
<path d="M11.4439 8.62271L7.4709 4.65951C7.40565 4.59377 7.32801 4.54158 7.24247 4.50597C7.15694 4.47036 7.06519 4.45203 6.97252 4.45203C6.87986 4.45203 6.78811 4.47036 6.70257 4.50597C6.61703 4.54158 6.5394 4.59377 6.47414 4.65951C6.3434 4.79094 6.27002 4.96872 6.27002 5.15404C6.27002 5.33935 6.3434 5.51714 6.47414 5.64856L9.94878 9.15582L6.47414 12.628C6.3434 12.7594 6.27002 12.9372 6.27002 13.1225C6.27002 13.3078 6.3434 13.4856 6.47414 13.617C6.53915 13.6833 6.61668 13.7361 6.70223 13.7722C6.78778 13.8083 6.87965 13.8271 6.97252 13.8275C7.0654 13.8271 7.15727 13.8083 7.24282 13.7722C7.32837 13.7361 7.40589 13.6833 7.4709 13.617L11.4439 9.65385C11.5152 9.58816 11.572 9.50844 11.6109 9.41971C11.6498 9.33097 11.6699 9.23515 11.6699 9.13828C11.6699 9.04141 11.6498 8.94559 11.6109 8.85685C11.572 8.76812 11.5152 8.6884 11.4439 8.62271V8.62271Z" fill="#1EA1F7"/>
</svg>
