<svg width="18" height="17" viewBox="0 0 18 17" fill="none" xmlns="http://www.w3.org/2000/svg">
<path d="M11.5667 7.9194L7.59652 3.95621C7.53131 3.89046 7.45373 3.83828 7.36825 3.80266C7.28277 3.76705 7.19109 3.74872 7.09849 3.74872C7.00589 3.74872 6.91421 3.76705 6.82873 3.80266C6.74325 3.83828 6.66567 3.89046 6.60046 3.95621C6.46982 4.08763 6.39648 4.26542 6.39648 4.45073C6.39648 4.63604 6.46982 4.81383 6.60046 4.94525L10.0726 8.45251L6.60046 11.9247C6.46982 12.0561 6.39648 12.2339 6.39648 12.4192C6.39648 12.6045 6.46982 12.7823 6.60046 12.9137C6.66543 12.98 6.7429 13.0327 6.82839 13.0689C6.91388 13.105 7.00568 13.1238 7.09849 13.1242C7.1913 13.1238 7.28311 13.105 7.3686 13.0689C7.45409 13.0327 7.53156 12.98 7.59652 12.9137L11.5667 8.95054C11.6379 8.88485 11.6948 8.80513 11.7336 8.7164C11.7725 8.62766 11.7926 8.53184 11.7926 8.43497C11.7926 8.3381 11.7725 8.24228 11.7336 8.15354C11.6948 8.06481 11.6379 7.98509 11.5667 7.9194V7.9194Z" fill="#1EA1F7"/>
</svg>
