<svg width="74" height="73" viewBox="0 0 74 73" fill="none" xmlns="http://www.w3.org/2000/svg">
<circle cx="37.0002" cy="36.1906" r="36.1906" fill="#E6C34B"/>
<path d="M20.7281 36.3208C20.7281 36.3208 20.7281 36.3208 20.7281 36.3208C21.292 36.3213 21.8451 36.1661 22.3272 35.8717C22.438 35.804 22.5441 35.7296 22.6449 35.649C23.2342 35.1778 23.9838 34.8026 24.7086 35.012L25.7057 35.3C26.028 35.3931 26.3614 35.1977 26.4571 34.8762V34.8762C26.5539 34.5509 26.3764 34.2014 26.0503 34.1072L23.9511 33.5008C23.8632 33.4754 23.8096 33.3921 23.812 33.3006V33.3006V33.3008C23.8365 32.4773 23.5327 31.678 22.9682 31.0815C22.3845 30.4633 21.5749 30.1126 20.7276 30.1112C19.6254 30.1112 18.6067 30.7031 18.0558 31.6639C17.5048 32.6244 17.5048 33.8082 18.056 34.7687C18.6072 35.7293 19.6259 36.3208 20.7281 36.3208C20.7281 36.3208 20.7281 36.3208 20.7281 36.3208V36.3208ZM19.4551 31.8632C19.8116 31.5236 20.2876 31.3404 20.7785 31.3539C21.2691 31.3673 21.7344 31.5765 22.0721 31.9353C22.4096 32.294 22.5917 32.773 22.5782 33.267C22.5649 33.7608 22.357 34.229 22.0005 34.5689C21.644 34.9085 21.168 35.0917 20.6771 35.0781C20.1865 35.0648 19.7212 34.8555 19.3835 34.4968C19.0444 34.1389 18.8615 33.6596 18.8747 33.165C18.8882 32.6707 19.097 32.2023 19.4551 31.8632Z" fill="#9426BA"/>
<path d="M56.2896 40.7067C55.7059 40.0885 54.8963 39.7379 54.049 39.7365C53.4851 39.7359 52.9319 39.8911 52.4498 40.1855C52.3254 40.2615 52.2069 40.3461 52.0952 40.4383C51.5346 40.9009 50.8124 41.2602 50.1141 41.0585L49.1523 40.7807C48.8248 40.6861 48.4872 40.8893 48.3973 41.2181V41.2181C48.3093 41.5402 48.4872 41.8807 48.808 41.9734L50.826 42.5562C50.9139 42.5816 50.9674 42.6649 50.965 42.7564V42.7564C50.9405 43.58 51.2444 44.3792 51.8088 44.9758C52.3713 45.5737 53.1471 45.9225 53.9649 45.9449C54.7828 45.9674 55.5762 45.6619 56.1703 45.0958C56.7645 44.5297 57.1111 43.749 57.1334 42.926C57.1557 42.1029 56.8521 41.3046 56.2896 40.7067L56.2896 40.7067ZM55.3219 44.1941C54.9654 44.5337 54.4894 44.717 53.9985 44.7034C53.5079 44.6901 53.0426 44.4808 52.7049 44.1221C52.3674 43.7633 52.1853 43.2843 52.1988 42.7903C52.212 42.2966 52.42 41.8283 52.7765 41.4885C53.1329 41.1489 53.609 40.9656 54.0999 40.9792C54.5905 40.9925 55.0558 41.2018 55.3935 41.5605C55.7326 41.9184 55.9155 42.3977 55.9023 42.8923C55.8888 43.3866 55.68 43.855 55.3219 44.1941Z" fill="#9426BA"/>
<path d="M27.2066 38.1836C27.2066 38.1836 27.2066 38.1836 27.2066 38.1836C27.2066 40.9008 28.2793 43.5069 30.1886 45.4286C32.0982 47.35 34.6879 48.4294 37.3881 48.4294C40.0883 48.4294 42.678 47.35 44.5876 45.4286C46.4969 43.5069 47.5696 40.9008 47.5696 38.1835C47.5696 35.4663 46.4969 32.8601 44.5876 30.9385C42.678 29.0171 40.0883 27.9376 37.3881 27.9376C34.6888 27.9407 32.1009 29.0213 30.1921 30.9421C28.2834 32.8629 27.2096 35.4671 27.2065 38.1836C27.2065 38.1836 27.2066 38.1836 27.2066 38.1836V38.1836ZM36.2975 39.2813C36.0082 38.9902 35.8457 38.5952 35.8457 38.1835C35.8457 37.7719 36.0082 37.3768 36.2975 37.0857C36.5867 36.7946 36.9793 36.6311 37.3884 36.6311C37.7975 36.6311 38.19 36.7947 38.4793 37.0857C38.7685 37.3768 38.931 37.7719 38.931 38.1835C38.931 38.5952 38.7685 38.9902 38.4793 39.2813C38.1897 39.5719 37.7975 39.7351 37.3884 39.7351C36.9793 39.7351 36.587 39.5718 36.2975 39.2813ZM37.3884 29.1798C40.5114 29.1793 43.4088 30.8179 45.0321 33.5025C46.6557 36.1873 46.7703 39.53 45.3346 42.3209C44.4596 44.0223 43.0855 45.3687 41.4402 46.2096C39.7122 47.0928 38.0054 45.5154 38.0054 43.5748V43.5748C38.0054 42.0124 39.3704 40.6856 39.9636 39.2403C39.9695 39.2258 39.9754 39.2113 39.9811 39.1967C40.3185 38.3334 40.2097 37.3585 39.6907 36.5919C39.172 35.8254 38.3101 35.3666 37.3884 35.3666C36.4667 35.3666 35.6047 35.8254 35.086 36.5919C34.567 37.3585 34.4582 38.3334 34.7956 39.1967C34.8013 39.2112 34.8072 39.2258 34.8131 39.2402C35.4062 40.6856 36.7714 42.0125 36.7714 43.5748V43.5748C36.7714 45.5154 35.0645 47.0928 33.3366 46.2096C31.6913 45.3687 30.3172 44.0223 29.4421 42.3209C28.0064 39.5299 28.121 36.1872 29.7446 33.5025C31.368 30.8179 34.2653 29.1793 37.3884 29.1798Z" fill="#9426BA"/>
<path d="M31.9344 43.6723C32.1755 43.9141 32.5656 43.9138 32.806 43.6715C33.0468 43.4295 33.0471 43.037 32.8068 42.7944C31.5918 41.5716 30.9091 39.913 30.9091 38.1837C30.9091 36.4545 31.5917 34.7959 32.8068 33.5731C34.0219 32.3502 35.6701 31.6633 37.3885 31.6633C39.1069 31.6633 40.7551 32.3503 41.9702 33.5731C43.1853 34.7958 43.8679 36.4545 43.8679 38.1837C43.8679 39.913 43.1853 41.5716 41.9702 42.7944C41.8542 42.9108 41.7892 43.0686 41.7892 43.2333C41.7892 43.3982 41.8542 43.5559 41.9699 43.6726C42.0856 43.7891 42.2426 43.8545 42.4063 43.8545C42.5699 43.8542 42.7269 43.7888 42.8426 43.6724C44.2892 42.2167 45.1018 40.2424 45.1018 38.1837C45.1018 36.1251 44.2892 34.1508 42.8426 32.6951C41.3961 31.2394 39.4342 30.4217 37.3885 30.4217C35.3429 30.4217 33.381 31.2394 31.9344 32.6951C30.4879 34.1508 29.6753 36.1251 29.6753 38.1837C29.6753 40.2424 30.4879 42.2167 31.9344 43.6723Z" fill="#9426BA"/>
<path d="M41.0975 34.4516C39.772 33.1213 37.8423 32.6028 36.0341 33.0913C34.2261 33.5798 32.8138 35.001 32.3284 36.8204C31.843 38.6401 32.3581 40.582 33.6801 41.916C33.9212 42.1577 34.3113 42.1571 34.552 41.9151C34.7925 41.6728 34.7928 41.2806 34.5528 41.0378C33.8016 40.2813 33.3796 39.255 33.3801 38.1855C33.3804 37.1158 33.803 36.0901 34.5547 35.3338C35.3065 34.5775 36.3257 34.1525 37.3888 34.1525C38.4519 34.1525 39.4711 34.5775 40.2229 35.3338C40.9747 36.09 41.3972 37.1157 41.3975 38.1855C41.3981 39.255 40.9763 40.2813 40.2248 41.0378C40.1091 41.1542 40.0441 41.3122 40.0441 41.4769C40.0441 41.6415 40.1091 41.7996 40.2248 41.916C40.3405 42.0327 40.4975 42.0981 40.6612 42.0978C40.8248 42.0978 40.9818 42.0324 41.0975 41.916C42.0799 40.9255 42.6316 39.5832 42.6316 38.1838C42.6316 36.7844 42.0799 35.4421 41.0975 34.4516Z" fill="#9426BA"/>
<path d="M52.1979 18.3129C50.9599 18.3109 49.7663 18.7778 48.8547 19.6208C47.9432 20.4638 47.3804 21.6212 47.2782 22.8629C47.2351 23.3869 47.2753 23.9098 47.3935 24.413C47.6722 25.5996 47.6604 26.9689 46.8012 27.8335L45.4415 29.2019C45.2054 29.4394 45.2169 29.8251 45.4531 30.0626V30.0626C45.6913 30.3022 46.0813 30.3139 46.3194 30.0743L47.6757 28.7094C48.5315 27.8482 49.8977 27.8353 51.0797 28.1128C51.9055 28.3067 52.7787 28.286 53.6141 28.0346C55.1406 27.5753 56.3529 26.4024 56.8685 24.8854C57.3845 23.3682 57.1407 21.6938 56.2137 20.3898C55.2867 19.0855 53.7911 18.3121 52.1979 18.3129ZM52.1979 27.0064C51.2158 27.0064 50.2743 26.6138 49.5798 25.9152C48.8856 25.2164 48.4955 24.2689 48.4955 23.2806C48.4955 22.2923 48.8856 21.3448 49.5798 20.6459C50.2742 19.9473 51.2158 19.5548 52.1979 19.5548C53.1799 19.5548 54.1215 19.9473 54.8159 20.6459C55.5101 21.3448 55.9002 22.2923 55.9002 23.2806C55.9002 24.2689 55.5101 25.2164 54.8159 25.9152C54.1215 26.6138 53.1799 27.0064 52.1979 27.0064Z" fill="#9426BA"/>
<path d="M22.5791 58.0546C23.8171 58.0565 25.0107 57.5897 25.9223 56.7467C26.8338 55.9036 27.3966 54.7462 27.4987 53.5046C27.5419 52.9805 27.5016 52.4577 27.3835 51.9545C27.1048 50.7679 27.1166 49.3986 27.9757 48.534L29.3355 47.1656C29.5716 46.928 29.5601 46.5423 29.3239 46.3048V46.3048C29.0857 46.0653 28.6957 46.0536 28.4576 46.2932L27.1013 47.6581C26.2455 48.5193 24.8793 48.5321 23.6973 48.2546C22.8715 48.0608 21.9983 48.0815 21.1629 48.3328C19.6364 48.7922 18.4241 49.9651 17.9085 51.482C17.3925 52.9992 17.6363 54.6736 18.5633 55.9777C19.4903 57.282 20.9858 58.0554 22.5791 58.0546ZM22.5791 49.3611C23.5612 49.3611 24.5027 49.7536 25.1972 50.4522C25.8914 51.1511 26.2815 52.0986 26.2815 53.0869C26.2815 54.0752 25.8914 55.0227 25.1972 55.7215C24.5028 56.4201 23.5612 56.8127 22.5791 56.8127C21.5971 56.8127 20.6555 56.4201 19.961 55.7215C19.2668 55.0227 18.8768 54.0752 18.8768 53.0869C18.8768 52.0986 19.2668 51.1511 19.961 50.4522C20.6555 49.7536 21.5971 49.3611 22.5791 49.3611Z" fill="#9426BA"/>
<path d="M45.1727 50.2674C45.1727 50.2674 45.1727 50.2674 45.1727 50.2674L43.7004 47.7502C43.7004 47.7502 43.7003 47.7502 43.7003 47.7502V47.7502C43.7003 47.7503 43.7003 47.7503 43.7003 47.7503C43.5846 47.8276 43.4675 47.9028 43.3492 47.9758C42.9695 48.21 42.8255 48.703 43.0507 49.088L43.4477 49.7669C43.8278 50.4168 43.6476 51.2341 43.2461 51.871C42.7614 52.6398 42.5399 53.5618 42.6405 54.4919C42.789 55.8636 43.6181 57.0661 44.8429 57.6863C46.0676 58.3065 47.5213 58.2596 48.7042 57.5621C49.8873 56.8647 50.6386 55.6114 50.6997 54.2331C50.7609 52.8547 50.124 51.5391 49.0075 50.7379C47.8913 49.9371 46.4476 49.7599 45.1727 50.2675C45.1727 50.2675 45.1727 50.2674 45.1727 50.2674V50.2674ZM49.4216 54.0184C49.4216 54.7594 49.1291 55.4702 48.6084 55.9944C48.0875 56.5184 47.3812 56.8127 46.6448 56.8127C45.9085 56.8127 45.2022 56.5183 44.6813 55.9944C44.1606 55.4702 43.8681 54.7594 43.8681 54.0184C43.8681 53.2774 44.1606 52.5666 44.6813 52.0424C45.2022 51.5185 45.9085 51.2241 46.6448 51.2241C47.3812 51.2241 48.0875 51.5185 48.6084 52.0424C49.1291 52.5666 49.4216 53.2774 49.4216 54.0184Z" fill="#9426BA"/>
<path d="M28.1329 26.3852C28.1329 26.3852 28.1329 26.3852 28.1329 26.3852C28.5211 26.3848 28.9064 26.3274 29.2767 26.2153C29.4682 26.1573 29.6798 26.2278 29.7808 26.4004L31.0773 28.6172C31.0773 28.6172 31.0774 28.6172 31.0774 28.6171V28.6171C31.0774 28.6171 31.0774 28.6171 31.0775 28.6171C31.1931 28.5398 31.3102 28.4646 31.4286 28.3916C31.8082 28.1574 31.9523 27.6644 31.7271 27.2794L31.3288 26.5985C30.9491 25.9492 31.1282 25.1329 31.5259 24.4945C31.9558 23.8045 32.1738 22.9904 32.1336 22.1565C32.0719 20.8803 31.4135 19.709 30.3582 18.9988C29.3028 18.2888 27.9756 18.1236 26.7804 18.5538C25.5848 18.9844 24.6628 19.9591 24.2945 21.1815C23.9262 22.4041 24.1551 23.73 24.9118 24.756C25.6685 25.7816 26.8633 26.386 28.1329 26.3852C28.1329 26.3852 28.1329 26.3852 28.1329 26.3852V26.3852ZM28.1329 19.5546C28.8692 19.5546 29.5756 19.849 30.0965 20.3729C30.6171 20.8971 30.9097 21.6079 30.9097 22.3489C30.9097 23.09 30.6171 23.8007 30.0965 24.3249C29.5756 24.8489 28.8693 25.1433 28.1329 25.1433C27.3965 25.1433 26.6903 24.8489 26.1693 24.3249C25.6487 23.8007 25.3561 23.09 25.3561 22.3489C25.3561 21.6079 25.6487 20.8972 26.1693 20.3729C26.6902 19.849 27.3965 19.5546 28.1329 19.5546Z" fill="#9426BA"/>
</svg>
