<svg width="73" height="73" viewBox="0 0 73 73" fill="none" xmlns="http://www.w3.org/2000/svg">
<circle cx="36.2892" cy="36.1906" r="36.1906" fill="#E6C34B"/>
<path d="M56.7273 27.4626C56.7096 26.9725 56.5097 26.5115 56.166 26.1656C55.7978 25.7947 55.2914 25.5865 54.7519 25.6009C52.8805 25.6628 51.4038 27.247 51.461 29.1332L51.5518 31.9527C51.5588 32.172 51.5359 32.3912 51.4836 32.6043L51.0369 34.4232C51.0349 34.4314 51.0276 34.4359 51.0192 34.4359V34.4359C50.3548 34.4359 49.7324 34.695 49.264 35.1654L46.646 37.8022C46.0851 38.3671 45.3625 38.7438 44.5782 38.8801V38.8801C43.7988 39.0137 43.0615 39.3967 42.5027 39.9595L40.1051 42.3722C39.3991 43.083 38.9976 44.0261 38.9743 45.0291L38.9639 45.4984C38.9166 47.6152 36.9618 49.5865 36.9387 51.7037V51.7037L36.8835 56.9394C36.8668 58.5123 38.125 59.8052 39.688 59.8226L48.3195 59.9153H48.3505C49.094 59.9153 49.796 59.6261 50.3306 59.0995C50.8729 58.5652 51.1756 57.8527 51.1842 57.0935L51.2394 51.8581C51.2474 51.0985 50.9593 50.3793 50.429 49.8343C50.1585 49.5561 49.8409 49.3431 49.4953 49.1979C49.4292 49.1701 49.3884 49.1021 49.3987 49.0312V49.0312C49.5304 48.1413 49.9336 47.3355 50.5644 46.7011L54.6135 42.6257C55.6484 41.5848 56.3015 40.2092 56.4526 38.7539L56.8834 34.6454C56.912 34.4994 56.9283 34.3488 56.9309 34.1924L56.9323 34.177C56.9333 34.169 56.9319 34.1606 56.9323 34.1519C56.9323 34.1268 56.9359 34.1033 56.9356 34.0779L56.7273 27.4626ZM49.8095 51.8422C49.8095 51.8422 49.8095 51.8423 49.8095 51.8423L49.7543 57.0776C49.7499 57.4526 49.5999 57.8051 49.3304 58.0702C49.0606 58.3351 48.7043 58.475 48.3347 58.475L39.7032 58.3823C38.929 58.3736 38.306 57.7335 38.3142 56.9544L38.3694 51.7187C38.3781 50.945 39.0062 50.3209 39.773 50.3209H39.7883L48.4207 50.414C48.7933 50.4177 49.1436 50.5694 49.4064 50.8402C49.6709 51.111 49.8139 51.4669 49.8096 51.8421C49.8096 51.8421 49.8096 51.8422 49.8095 51.8422V51.8422ZM53.603 41.6065L49.554 45.6819C48.705 46.5362 48.1624 47.6209 47.9844 48.8201V48.8201C47.972 48.9056 47.8983 48.9687 47.8119 48.9678L44.1468 48.9281C42.0408 48.9053 40.3589 47.1668 40.406 45.0611V45.0611C40.4203 44.4311 40.6734 43.8372 41.1176 43.3895L43.5152 40.9768C43.8661 40.6236 44.3292 40.3825 44.8206 40.2985L46.2518 40.0494C46.3024 40.0407 46.3506 40.0263 46.3959 40.0076C46.3992 40.0062 46.4025 40.0039 46.4058 40.0022C46.4917 39.9661 46.5678 39.9145 46.6324 39.8506C46.6334 39.8496 46.6347 39.8496 46.6357 39.8485L50.2772 36.1823C50.6711 35.785 51.3694 35.786 51.763 36.1823C51.9599 36.3812 52.0687 36.6464 52.0687 36.9303C52.0687 37.2138 51.9599 37.4793 51.763 37.6782L47.5799 41.8877C47.3004 42.169 47.3004 42.6249 47.5799 42.9058C47.7189 43.0464 47.9022 43.1164 48.0852 43.1164C48.2685 43.1164 48.4515 43.0464 48.5912 42.9058L52.7743 38.6963C53.2417 38.2259 53.4992 37.5985 53.4992 36.9306C53.4992 36.2623 53.2421 35.6353 52.7743 35.1649V35.1649C52.5704 34.9597 52.4501 34.6723 52.519 34.3914L52.9756 32.5311C52.9776 32.5231 52.9776 32.5154 52.9789 32.507C52.9842 32.4829 52.9869 32.4585 52.9895 32.4337C52.9925 32.4083 52.9949 32.3832 52.9949 32.3584C52.9949 32.3504 52.9969 32.343 52.9962 32.335L52.8914 29.0866C52.8591 27.9931 53.7151 27.0742 54.792 27.0381C54.9297 27.0401 55.0594 27.0859 55.1546 27.182C55.2171 27.2443 55.292 27.3524 55.2983 27.5104L55.5062 34.0729L55.4577 34.5379C55.4563 34.5533 55.4533 34.569 55.453 34.5844L55.0318 38.6022C54.9134 39.7307 54.4061 40.7976 53.603 41.6065Z" fill="#9426BA"/>
<path d="M49.3216 52.5022C49.3216 53.1825 48.7736 53.7342 48.0973 53.7342C47.4213 53.7342 46.873 53.1825 46.873 52.5022C46.873 51.8216 47.4213 51.2702 48.0973 51.2702C48.7736 51.2702 49.3216 51.8216 49.3216 52.5022Z" fill="#9426BA"/>
<path d="M35.2448 51.7032C35.224 49.5868 33.2684 47.6163 33.2213 45.5003L33.2107 45.0289C33.1875 44.0269 32.7859 43.0831 32.08 42.3724L29.6824 39.9596C29.1235 39.3971 28.3859 39.0135 27.6091 38.8806V38.8806C26.8232 38.7438 26.0993 38.3663 25.5372 37.8002L22.9207 35.1648C22.4532 34.6951 21.8305 34.4357 21.1661 34.4357V34.4357C21.1576 34.4357 21.1504 34.4312 21.1483 34.423L20.7017 32.604C20.6493 32.391 20.6264 32.1718 20.6335 31.9525L20.7243 29.1313C20.7812 27.2465 19.3044 25.6623 17.4255 25.6004C16.9218 25.5816 16.3881 25.7942 16.0199 26.1652C15.6756 26.5113 15.4756 26.9723 15.458 27.4658L15.2481 34.0858C15.2477 34.1136 15.2514 34.1404 15.2517 34.1685C15.2521 34.1715 15.2514 34.1739 15.2517 34.1766L15.2521 34.1819C15.2544 34.341 15.271 34.4953 15.3006 34.6466L15.7315 38.7524C15.8825 40.2087 16.5359 41.5837 17.5705 42.6245L21.6196 46.7002C22.25 47.3347 22.6536 48.1402 22.7846 49.0283V49.0283C22.7951 49.1006 22.7535 49.1699 22.6862 49.1983C22.3417 49.3435 22.0246 49.5561 21.7546 49.8338C21.2243 50.3795 20.9362 51.0987 20.9442 51.8576L20.9995 57.0929C21.0081 57.8526 21.3108 58.565 21.8531 59.0989C22.388 59.6259 23.0903 59.9148 23.8332 59.9148H23.8638L32.4962 59.8221C34.0585 59.8047 35.3166 58.5117 35.3 56.9389L35.2448 51.7032V51.7032ZM22.6312 45.6827L18.5821 41.607C17.7784 40.7988 17.2713 39.7319 17.1546 38.6026L16.7334 34.5859C16.7331 34.5705 16.7301 34.5551 16.7288 34.5397L16.6795 34.0727L16.8874 27.5152C16.8938 27.3545 16.9686 27.2464 17.0315 27.1834C17.126 27.088 17.2557 27.0388 17.3855 27.0398C18.4703 27.076 19.3266 27.995 19.294 29.0867L19.1892 32.3365C19.1889 32.3445 19.1906 32.3519 19.1906 32.3599C19.1906 32.385 19.1929 32.4098 19.1959 32.4352C19.1982 32.4603 19.2012 32.4848 19.2065 32.5085C19.2085 32.5166 19.2079 32.5243 19.2099 32.5326L19.6664 34.3929C19.7353 34.6737 19.615 34.9613 19.4111 35.1664V35.1664C18.9437 35.6368 18.6862 36.2642 18.6862 36.9321C18.6862 37.6003 18.9434 38.2273 19.4111 38.6978L23.5942 42.9073C23.7336 43.0473 23.9169 43.1172 24.0996 43.1172C24.2822 43.1172 24.4658 43.0473 24.6056 42.9067C24.885 42.6258 24.885 42.1698 24.6056 41.8886L20.4225 37.679C20.2255 37.4808 20.1167 37.2153 20.1167 36.9318C20.1167 36.6482 20.2255 36.3824 20.4225 36.1838C20.8164 35.7878 21.5143 35.7868 21.9082 36.1838L25.5497 39.8507C25.5507 39.8517 25.552 39.8517 25.553 39.8527C25.6169 39.9167 25.6938 39.9682 25.7796 40.0044C25.7829 40.0057 25.7859 40.0081 25.7896 40.0098C25.8355 40.0278 25.8834 40.0422 25.9336 40.0516L27.3671 40.301C27.8558 40.3844 28.3189 40.6251 28.6703 40.9786L31.0678 43.3914C31.5123 43.8393 31.7651 44.4323 31.7795 45.0626V45.0626C31.8265 47.1687 30.1444 48.9075 28.0379 48.9303L24.3759 48.97C24.2882 48.9709 24.2133 48.9068 24.2007 48.82V48.82C24.0227 47.6211 23.4805 46.5363 22.6312 45.6827ZM32.4823 58.3825L23.8499 58.4755C23.4673 58.4755 23.1243 58.3353 22.8552 58.0708C22.586 57.8053 22.4353 57.4531 22.4313 57.0781L22.3758 51.8428C22.3714 51.4678 22.5145 51.1123 22.7783 50.841C23.0415 50.5702 23.3918 50.4192 23.764 50.4149L32.3964 50.3218H32.4117C33.1786 50.3218 33.8074 50.9458 33.8153 51.7196L33.8705 56.9553C33.8792 57.7336 33.2564 58.3745 32.4829 58.3824L32.4823 58.3825Z" fill="#9426BA"/>
<path d="M25.3123 52.5022C25.3123 53.1825 24.764 53.7342 24.088 53.7342C23.4117 53.7342 22.8638 53.1825 22.8638 52.5022C22.8638 51.8216 23.4117 51.2702 24.088 51.2702C24.764 51.2702 25.3123 51.8216 25.3123 52.5022Z" fill="#9426BA"/>
<path d="M26.4685 30.387C26.4685 30.387 26.4686 30.3871 26.4686 30.3871H26.9479C27.4602 30.3871 27.9035 30.7288 28.0957 31.2036C28.102 31.2192 28.1083 31.2347 28.1147 31.2502C28.3198 31.7483 28.2445 32.3311 27.8648 32.7132L27.5527 33.0272C26.9655 33.6181 26.9655 34.5799 27.5527 35.1705L28.8891 36.5153C29.1825 36.8106 29.5681 36.9579 29.9536 36.9579C30.3399 36.9579 30.7254 36.8099 31.0185 36.515L31.3284 36.2032C31.7085 35.8207 32.2913 35.7442 32.7892 35.9512V35.9512C33.2839 36.1569 33.6421 36.621 33.6421 37.1568V37.606C33.6421 38.4426 34.3188 39.1236 35.1501 39.1236H37.0334C37.8648 39.1236 38.5414 38.443 38.5414 37.606V37.1567C38.5414 36.6208 38.8991 36.1568 39.3939 35.9511V35.9511C39.8918 35.7441 40.475 35.8207 40.8551 36.2032L41.165 36.515C41.4584 36.8106 41.844 36.9579 42.2295 36.9579C42.6148 36.9579 43.0013 36.8099 43.2951 36.515L44.6312 35.1704C45.2184 34.5795 45.2184 33.6177 44.6312 33.0271L44.3192 32.7131C43.9395 32.331 43.8631 31.7498 44.0683 31.2516V31.2516C44.2748 30.7504 44.7441 30.387 45.2862 30.387H45.7154C46.5467 30.387 47.2231 29.7064 47.2231 28.8694V26.9735C47.2231 26.1369 46.5467 25.4559 45.7154 25.4559H45.2863C44.7442 25.4559 44.2751 25.0927 44.0686 24.5914V24.5914C43.8635 24.0934 43.9395 23.5119 44.3191 23.1298L44.6319 22.8151C45.2184 22.2242 45.2184 21.2624 44.6316 20.6718L43.2955 19.327C42.7259 18.7549 41.7323 18.7555 41.165 19.327L40.8549 19.639C40.4749 20.0214 39.8921 20.0979 39.3943 19.8909V19.8909C38.8995 19.685 38.5414 19.2209 38.5414 18.685V18.2376C38.5418 17.4006 37.8651 16.72 37.0337 16.72H35.1505C34.3191 16.72 33.6424 17.4006 33.6424 18.2376V18.6864C33.6424 19.2224 33.2844 19.6865 32.7895 19.8924V19.8924C32.2919 20.0995 31.709 20.0231 31.329 19.6408L31.0192 19.329C30.4514 18.7568 29.4576 18.7558 28.8884 19.329L27.5523 20.6735C26.9651 21.2644 26.9651 22.2256 27.5523 22.8168L27.8643 23.1308C28.244 23.5129 28.3204 24.0942 28.1152 24.5923V24.5923C27.9087 25.0936 27.4395 25.457 26.8973 25.457H26.4681C25.6368 25.457 24.9604 26.1376 24.9604 26.9745V28.8704C24.9608 29.7064 25.6371 30.3869 26.4684 30.387C26.4685 30.387 26.4685 30.387 26.4685 30.387V30.387ZM26.3917 26.9736C26.3917 26.9294 26.4246 26.8959 26.4686 26.8959H28.3595H28.3615C28.3628 26.8959 28.3638 26.8956 28.3652 26.8956C28.439 26.8953 28.5092 26.8809 28.5764 26.8591C28.5877 26.8554 28.5994 26.8527 28.6107 26.8484C28.6759 26.8239 28.7361 26.7898 28.7903 26.748C28.8003 26.7403 28.8093 26.7322 28.8189 26.7238C28.8728 26.6783 28.9211 26.6264 28.9597 26.5668C28.964 26.5601 28.967 26.5528 28.971 26.5457C29.0086 26.4828 29.0378 26.4142 29.0548 26.3402C29.0558 26.3368 29.0578 26.3345 29.0585 26.3311C29.2381 25.5113 29.5548 24.7419 29.9993 24.0436C30.0212 24.0091 30.0379 23.973 30.0532 23.9365C30.0555 23.9311 30.0588 23.9264 30.0608 23.9211C30.0938 23.8384 30.1084 23.7527 30.1101 23.6666C30.1101 23.6609 30.1114 23.6556 30.1114 23.6502C30.1111 23.5635 30.0934 23.4775 30.0622 23.3965C30.0602 23.3911 30.0592 23.3854 30.0568 23.3801C30.0226 23.296 29.9713 23.2184 29.9061 23.1517C29.9048 23.1504 29.9041 23.1484 29.9028 23.147L29.8972 23.1413C29.8968 23.141 29.8962 23.1403 29.8958 23.14L28.5634 21.7986C28.5345 21.7698 28.5345 21.7192 28.5631 21.6904L29.8992 20.3459C29.9244 20.3204 29.9813 20.3204 30.0066 20.3459L31.3473 21.6951C31.3503 21.6981 31.3539 21.6984 31.3569 21.7014C31.4182 21.761 31.488 21.8055 31.5635 21.8397C31.5808 21.8474 31.5968 21.8531 31.6144 21.8594C31.6913 21.8869 31.7708 21.906 31.8523 21.906H31.8533H31.8536C31.9341 21.906 32.0143 21.8872 32.0925 21.8591C32.1155 21.8511 32.1357 21.84 32.1584 21.8293C32.185 21.8162 32.2136 21.8092 32.2395 21.7925C32.9328 21.3452 33.6977 21.0265 34.5121 20.8457C34.5287 20.842 34.5437 20.8346 34.5593 20.83C34.5876 20.8213 34.6162 20.8142 34.6429 20.8022C34.6638 20.7931 34.6828 20.7804 34.7031 20.7697C34.7237 20.7583 34.7447 20.7479 34.7636 20.7345C34.7842 20.7201 34.8022 20.7027 34.8212 20.6867C34.8368 20.6726 34.8541 20.6602 34.8684 20.6455C34.8857 20.6277 34.8993 20.608 34.9146 20.5892C34.9286 20.5718 34.9429 20.5558 34.9546 20.5374C34.9675 20.5176 34.9769 20.4965 34.9878 20.4754C34.9985 20.4553 35.0101 20.4359 35.0188 20.4145C35.0284 20.3911 35.0344 20.3656 35.0417 20.3412C35.0474 20.3211 35.0547 20.3017 35.059 20.2812C35.0654 20.2501 35.0667 20.218 35.0687 20.1858C35.0697 20.1714 35.073 20.1574 35.073 20.1426V20.1339V20.1309L35.0733 18.2377C35.0727 18.1932 35.1063 18.16 35.1502 18.16H37.0335C37.0777 18.16 37.1106 18.1932 37.1106 18.2377V20.1313V20.1343V20.143C37.1106 20.1574 37.114 20.1714 37.115 20.1858C37.117 20.218 37.1183 20.2508 37.1246 20.2819C37.1283 20.302 37.1356 20.3214 37.1412 20.3408C37.1486 20.366 37.1546 20.3914 37.1642 20.4152C37.1729 20.4363 37.1842 20.4553 37.1948 20.4758C37.2058 20.4969 37.2154 20.5186 37.2281 20.538C37.2401 20.5561 37.2544 20.5722 37.268 20.5893C37.2833 20.6083 37.2976 20.6288 37.3146 20.6458C37.3292 20.6606 37.3462 20.6733 37.3618 20.687C37.3808 20.7034 37.3991 20.7205 37.42 20.7349C37.439 20.7483 37.46 20.7583 37.4806 20.7694C37.5005 20.7804 37.5198 20.7928 37.5411 20.8025C37.5677 20.8139 37.596 20.8216 37.624 20.83C37.6403 20.8347 37.6549 20.842 37.6715 20.8457C38.4863 21.0265 39.2508 21.3452 39.9441 21.7925C39.9697 21.8089 39.998 21.8166 40.0253 21.8293C40.0472 21.84 40.0682 21.8511 40.0911 21.8591C40.1693 21.8876 40.2495 21.906 40.33 21.906H40.3303H40.3313C40.4129 21.906 40.4927 21.8869 40.5692 21.8594C40.5868 21.8531 40.6031 21.8474 40.6201 21.8397C40.6956 21.8062 40.7655 21.7613 40.8267 21.7014C40.8297 21.6984 40.8334 21.6981 40.8364 21.6951L42.1774 20.3459C42.2017 20.3208 42.2589 20.3208 42.2842 20.3459L43.6203 21.6904C43.6489 21.7192 43.6489 21.7698 43.6203 21.7979L42.2872 23.1393C42.2869 23.1397 42.2862 23.1404 42.2859 23.1407L42.2802 23.1464C42.2789 23.1477 42.2783 23.1497 42.2769 23.1511C42.2117 23.2177 42.1605 23.2957 42.1262 23.3794C42.1239 23.3847 42.1229 23.3904 42.1209 23.3958C42.09 23.4768 42.0723 23.5622 42.0717 23.6496C42.0717 23.6553 42.0727 23.6606 42.073 23.666C42.0743 23.752 42.0896 23.8377 42.1222 23.9204C42.1242 23.9258 42.1276 23.9304 42.1299 23.9358C42.1452 23.9723 42.1618 24.0081 42.1838 24.0429C42.6282 24.7413 42.9449 25.5106 43.1246 26.3305C43.1256 26.3338 43.1276 26.3362 43.1283 26.3402C43.1456 26.4135 43.1745 26.4821 43.2121 26.5451C43.2164 26.5524 43.2194 26.5595 43.2234 26.5662C43.2617 26.6258 43.3096 26.677 43.3635 26.7225C43.3734 26.7305 43.3824 26.7393 43.3931 26.747C43.4473 26.7888 43.5075 26.8223 43.5724 26.8467C43.5837 26.8511 43.5953 26.8541 43.6073 26.8578C43.6745 26.8795 43.7441 26.8939 43.8186 26.8943C43.8199 26.8943 43.8209 26.8946 43.8222 26.8946H43.8242H45.7152C45.7591 26.8946 45.792 26.9277 45.792 26.9723V28.8681C45.792 28.9123 45.7591 28.9458 45.7152 28.9458H43.8345H43.8282H43.8219C43.8122 28.9458 43.8033 28.9482 43.7943 28.9488C43.756 28.9502 43.7181 28.9525 43.6812 28.9602C43.6712 28.9622 43.6625 28.9659 43.6526 28.9682C43.6166 28.977 43.581 28.987 43.5478 29.0007C43.5371 29.0051 43.5281 29.0114 43.5178 29.0161C43.4862 29.0309 43.4553 29.0469 43.4263 29.066C43.4157 29.0734 43.4067 29.0817 43.3967 29.0891C43.3701 29.1089 43.3438 29.1289 43.3205 29.1524C43.3096 29.1631 43.3009 29.1755 43.2909 29.1869C43.271 29.2093 43.2504 29.2321 43.2334 29.2575C43.2214 29.2749 43.2124 29.2943 43.2018 29.3131C43.1898 29.3348 43.1765 29.3553 43.1665 29.3784C43.1552 29.4041 43.1479 29.4323 43.1399 29.4594C43.1346 29.4761 43.1276 29.4919 43.1236 29.5099C42.944 30.3298 42.6272 31.0992 42.1828 31.7975C42.1608 31.832 42.1442 31.8681 42.1289 31.9046C42.1265 31.91 42.1232 31.9147 42.1212 31.92C42.0883 32.0027 42.0737 32.0884 42.072 32.1745C42.072 32.1801 42.0707 32.1855 42.0707 32.1909C42.071 32.2776 42.0886 32.3636 42.1199 32.4446C42.1219 32.45 42.1229 32.4557 42.1252 32.461C42.1595 32.5451 42.2107 32.6227 42.2759 32.6894C42.2773 32.6907 42.2779 32.6927 42.2792 32.694L42.2849 32.6997C42.2852 32.7001 42.2859 32.7007 42.2862 32.7011L43.6193 34.0425C43.6479 34.0713 43.6479 34.1219 43.6193 34.15L42.2838 35.4938C42.2549 35.523 42.205 35.523 42.1761 35.4942L40.847 34.1567C40.8448 34.1544 40.8425 34.1522 40.8403 34.15V34.15L40.836 34.1456V34.1456C40.8337 34.1434 40.8312 34.1414 40.8289 34.1392C40.7628 34.0746 40.6869 34.0245 40.6048 33.9906C40.5985 33.9883 40.5925 33.9873 40.5868 33.9849C40.5073 33.9541 40.4228 33.9371 40.3373 33.9361C40.3306 33.9361 40.3243 33.9374 40.3177 33.9374C40.2332 33.9387 40.1483 33.9538 40.0672 33.9863C40.0618 33.9886 40.0572 33.992 40.0515 33.994C40.0153 34.0094 39.9797 34.0261 39.9451 34.0482C39.2518 34.4951 38.4866 34.8139 37.6716 34.995C37.6569 34.9983 37.644 35.0047 37.6297 35.009C37.5997 35.0178 37.5691 35.0258 37.5408 35.0382C37.5209 35.0469 37.5026 35.0589 37.4836 35.0693C37.462 35.0814 37.4404 35.0917 37.4201 35.1058C37.4001 35.1199 37.3828 35.1359 37.3648 35.152C37.3482 35.1664 37.3306 35.1795 37.3153 35.1952C37.299 35.2119 37.2853 35.2313 37.2704 35.2494C37.256 35.2672 37.2414 35.2839 37.2288 35.3033C37.2165 35.3224 37.2068 35.3432 37.1965 35.3639C37.1855 35.3847 37.1735 35.4041 37.1649 35.4262C37.1552 35.4496 37.1496 35.4747 37.1426 35.4992C37.1369 35.5193 37.1293 35.5387 37.1253 35.5598C37.119 35.5909 37.1177 35.623 37.1157 35.6552C37.1147 35.6696 37.1113 35.6836 37.1113 35.6984V35.7071V35.7101V37.6037C37.1113 37.6478 37.0784 37.6813 37.0342 37.6813H35.1509C35.1066 37.6813 35.0737 37.6482 35.0737 37.6037V35.7101V35.7071V35.6984C35.0737 35.6836 35.0704 35.6696 35.0694 35.6548C35.0674 35.623 35.066 35.5909 35.0597 35.5604C35.0554 35.5393 35.0484 35.5196 35.0421 35.4988C35.0348 35.4747 35.0291 35.45 35.0198 35.4269C35.0108 35.4048 34.9988 35.385 34.9879 35.3639C34.9772 35.3438 34.9679 35.3231 34.9556 35.304C34.9433 35.2849 34.928 35.2678 34.9137 35.2498C34.899 35.2317 34.8854 35.2123 34.8694 35.1955C34.8541 35.1798 34.8365 35.1664 34.8192 35.152C34.8012 35.1366 34.7839 35.1199 34.764 35.1065C34.744 35.0924 34.7214 35.0814 34.7001 35.0696C34.6811 35.0589 34.6635 35.0475 34.6432 35.0385C34.6146 35.0261 34.584 35.0177 34.554 35.0087C34.5397 35.0044 34.5268 34.998 34.5121 34.9946C33.6971 34.8132 32.9319 34.4945 32.2386 34.0479C32.2044 34.0258 32.1681 34.0084 32.1312 33.9933C32.1265 33.9913 32.1222 33.9879 32.1172 33.9859C32.035 33.9528 31.9492 33.9374 31.864 33.9364C31.8584 33.9364 31.853 33.935 31.8477 33.935C31.7619 33.936 31.6771 33.9531 31.5969 33.9839C31.5906 33.9863 31.5849 33.9873 31.5793 33.9896C31.4958 34.0241 31.4189 34.0757 31.3524 34.1413C31.351 34.1426 31.349 34.1433 31.3477 34.1446L31.3424 34.15V34.15C31.3411 34.1513 31.3397 34.1527 31.3384 34.154L30.0074 35.4934C29.9784 35.5222 29.9292 35.5222 29.8999 35.4934L28.5638 34.1489C28.5352 34.1201 28.5352 34.0696 28.5638 34.0414L29.8969 32.7C29.8972 32.6996 29.8979 32.699 29.8982 32.6986L29.9038 32.6929C29.9052 32.6916 29.9058 32.6896 29.9072 32.6883C29.9724 32.6216 30.0236 32.5436 30.0579 32.4599C30.0602 32.4546 30.0612 32.4489 30.0632 32.4435C30.0941 32.3625 30.1118 32.2771 30.1124 32.1898C30.1124 32.1841 30.1114 32.1787 30.1111 32.1734C30.1098 32.0873 30.0945 32.0016 30.0619 31.9189C30.0599 31.9136 30.0565 31.9089 30.0542 31.9035C30.0389 31.867 30.0223 31.8312 30.0003 31.7964C29.5558 31.098 29.2391 30.3287 29.0595 29.5088C29.0552 29.4901 29.0475 29.4734 29.0419 29.4549C29.0339 29.4292 29.0275 29.4027 29.0166 29.3783C29.0053 29.3508 28.9893 29.3264 28.975 29.3009C28.967 29.2865 28.9603 29.2718 28.9507 29.2577C28.9297 29.2269 28.9058 29.1992 28.8805 29.1724C28.8748 29.166 28.8699 29.159 28.8639 29.1533C28.8356 29.1248 28.8047 29.1004 28.7727 29.0773C28.7681 29.074 28.7637 29.0693 28.7584 29.0659C28.7251 29.0435 28.6892 29.0247 28.652 29.008C28.6466 29.0057 28.642 29.0023 28.6367 29.0003C28.5994 28.9849 28.5608 28.9735 28.5219 28.9641C28.5152 28.9628 28.5089 28.9598 28.5022 28.9585C28.4646 28.9508 28.4254 28.9477 28.3858 28.9464C28.3772 28.9461 28.3692 28.9441 28.3602 28.9441H28.3545H28.3482H26.4672C26.4233 28.9441 26.3904 28.9109 26.3904 28.8664L26.3917 26.9736Z" fill="#9426BA"/>
<path d="M36.0925 31.0418C37.8018 31.0418 39.1924 29.6424 39.1924 27.9223C39.1924 26.2022 37.8018 24.8029 36.0925 24.8029C34.3833 24.8029 32.9927 26.2022 32.9927 27.9223C32.9927 29.6424 34.3833 31.0418 36.0925 31.0418ZM36.0925 26.2424C37.0131 26.2424 37.762 26.996 37.762 27.9223C37.762 28.8487 37.0131 29.6023 36.0925 29.6023C35.172 29.6023 34.4231 28.8487 34.4231 27.9223C34.4231 26.996 35.172 26.2424 36.0925 26.2424Z" fill="#9426BA"/>
<path d="M36.0925 33.9213C39.38 33.9213 42.0541 31.2303 42.0541 27.922C42.0541 24.6136 39.38 21.9226 36.0925 21.9226C32.8049 21.9226 30.1309 24.6136 30.1309 27.922C30.1309 31.2303 32.8049 33.9213 36.0925 33.9213ZM36.0925 23.3625C38.5906 23.3625 40.6232 25.408 40.6232 27.9219C40.6232 30.4358 38.5906 32.4813 36.0925 32.4813C33.5944 32.4813 31.5617 30.4358 31.5617 27.9219C31.5617 25.408 33.5944 23.3625 36.0925 23.3625Z" fill="#9426BA"/>
</svg>
