<svg width="74" height="73" viewBox="0 0 74 73" fill="none" xmlns="http://www.w3.org/2000/svg">
<circle cx="37.0002" cy="36.1906" r="36.1906" fill="#E6C34B"/>
<path d="M43.6239 14.5512L40.1056 20.7248C39.7017 21.4335 40.2135 22.3143 41.0292 22.3143V22.3143C43.0139 22.3143 44.644 23.9659 44.644 25.9769V34.7965C44.644 35.6849 45.3132 36.4306 46.1963 36.5264V36.5264C46.5513 36.5825 46.8174 36.8971 46.8174 37.2678V37.2678C46.8174 37.9673 47.2985 38.5673 47.9586 38.7988C48.4144 38.9586 48.8619 39.1453 49.2969 39.3583C49.9187 39.6629 50.6775 39.5811 51.1638 39.0883V39.0883C51.4187 38.8301 51.829 38.785 52.1283 39.0095C52.7602 39.4703 53.348 39.9758 53.8914 40.5263C54.4127 41.0545 54.9004 41.6388 55.3552 42.2563C55.61 42.5595 55.5992 42.9976 55.3107 43.29V43.29C54.8217 43.7855 54.7405 44.5457 55.0413 45.1736C55.2576 45.6249 55.4465 46.0895 55.6073 46.5647C55.8282 47.2173 56.4181 47.6938 57.1071 47.6938V47.6938C57.4729 47.6938 57.7834 47.9634 57.85 48.3341C58.1048 49.8955 58.1048 51.4347 57.85 52.9965C57.7947 53.3562 57.4841 53.6368 57.1183 53.6368V53.6368C56.429 53.6368 55.8384 54.1127 55.6171 54.7655C55.4564 55.2395 55.2677 55.7047 55.0518 56.1566C54.7516 56.7847 54.8329 57.5451 55.3219 58.0406V58.0406C55.5768 58.2988 55.6212 58.7146 55.3997 59.0179C54.4352 60.3772 53.4703 61.3211 52.162 62.3096C51.8627 62.5342 51.4412 62.5118 51.1751 62.2422V62.2422C50.6887 61.7494 49.93 61.6677 49.3086 61.9731C48.8767 62.1854 48.4329 62.3716 47.9804 62.531C47.3208 62.7633 46.8399 63.363 46.8399 64.0623V64.0623C46.8399 64.433 46.585 64.7476 46.2188 64.8037C44.6664 65.0619 43.1586 65.0619 41.6059 64.8037C41.2509 64.7476 40.9848 64.433 40.9848 64.0623V64.0623C40.9848 63.363 40.5039 62.7633 39.844 62.5319C39.3881 62.3721 38.9405 62.1853 38.5054 61.9722C37.8836 61.6676 37.1248 61.7494 36.6384 62.2422V62.2422C36.3836 62.5005 35.9732 62.5455 35.6739 62.321C34.3323 61.3438 33.4119 60.3662 32.4251 59.0406C32.1923 58.7373 32.2143 58.3102 32.4916 58.0406V58.0406C32.9806 57.5451 33.0619 56.7848 32.7608 56.157C32.5472 55.7117 32.3604 55.254 32.2009 54.7871C31.976 54.1286 31.3799 53.6481 30.6841 53.6481V53.6481C30.3182 53.6481 30.0077 53.3785 29.9412 53.0078V53.0078C29.7968 52.1102 29.0566 51.3899 28.1474 51.3899H19.5737C17.589 51.3899 15.959 49.7383 15.959 47.7274V25.9771C15.959 23.9662 17.589 22.3146 19.5737 22.3146V22.3146C27.0184 22.3146 33.8907 18.3203 37.5756 11.8516L37.9576 11.1812C38.0906 10.9453 38.3234 10.8105 38.5674 10.7991C39.6542 10.7431 40.6964 10.9899 41.561 11.5068C42.437 12.0236 43.1686 12.7987 43.6679 13.7872C43.7897 14.0458 43.7681 14.3377 43.6239 14.5512ZM38.3349 23.8576C38.3349 23.8505 38.3254 23.8479 38.3219 23.8541L36.1747 27.6211C35.7389 28.3857 36.291 29.336 37.1712 29.336H38.69C39.1003 29.336 39.4441 29.673 39.4441 30.1001C39.4441 30.5159 39.1116 30.8642 38.69 30.8642H35.3969C34.7388 30.8642 34.1313 31.2174 33.8057 31.7894V31.7894C33.1107 33.01 33.9923 34.5263 35.3969 34.5263H38.6895C39.0999 34.5263 39.4437 34.8633 39.4437 35.2904C39.4437 35.7061 39.1111 36.0545 38.6895 36.0545H35.5313C32.9665 36.0545 30.5991 37.4315 29.3311 39.6609V39.6609V39.6609C29.3231 39.6769 29.3417 39.717 29.3596 39.717H34.3676C34.6452 39.717 34.9124 39.617 35.1294 39.4439C35.2876 39.3176 35.449 39.1952 35.6181 39.0767C35.9174 38.8185 36.361 38.8295 36.6383 39.1218V39.1218C37.1247 39.6146 37.8834 39.6963 38.5048 39.3909C38.9367 39.1786 39.3804 38.9924 39.833 38.833C40.4926 38.6007 40.9735 38.001 40.9735 37.3017V37.3017C40.9735 36.931 41.2284 36.6164 41.5946 36.5603V36.5603C42.4778 36.4645 43.147 35.7187 43.147 34.8304V26.0107C43.147 24.8309 42.1933 23.865 41.0292 23.865L38.3419 23.8646C38.338 23.8646 38.3349 23.8615 38.3349 23.8576V23.8576ZM27.7796 41.2164C27.7795 41.2206 27.7778 41.2245 27.7749 41.2275L27.1881 41.8105C25.9204 43.0703 26.8125 45.2337 28.5997 45.2337V45.2337C29.01 45.2337 29.3538 45.5707 29.3538 45.9978C29.3538 46.4135 29.0212 46.7619 28.5997 46.7619L21.9248 46.7615C21.448 46.7615 21.0489 46.312 21.2264 45.7392L22.2596 41.653C22.3148 41.4348 22.1498 41.2229 21.9248 41.2229V41.2229C21.5145 41.2229 21.1707 40.886 21.1707 40.4589C21.1707 40.0431 21.5032 39.6948 21.9248 39.6948V39.6948C22.4138 39.6948 22.8404 39.3629 22.9607 38.8889L23.5656 36.504V36.504C23.6187 36.2708 23.5099 36.0322 23.2708 36.0322H21.9248C21.5144 36.0322 21.1706 35.6953 21.1706 35.2682C21.1706 34.8524 21.5032 34.5041 21.9248 34.5041H23.61C24.2682 34.5041 24.8758 34.1508 25.2014 33.5787V33.5787C25.8962 32.3579 25.0145 30.8417 23.6098 30.8418L21.9248 30.8419C21.5144 30.8419 21.1706 30.505 21.1706 30.0779C21.1706 29.6621 21.5032 29.3138 21.9248 29.3138H26.0246C27.0134 29.3138 27.9262 28.7834 28.4159 27.9244V27.9244C29.4618 26.0894 28.1367 23.8089 26.0246 23.8089H19.5854C18.421 23.8089 17.4677 24.7751 17.4677 25.9546V47.6938C17.4677 48.8737 18.4214 49.8395 19.5854 49.8395H28.2498C29.1242 49.8395 29.8583 49.1811 29.9529 48.3118V48.3118C30.0082 47.9521 30.3187 47.6825 30.6846 47.6825V47.6825C31.3738 47.6825 31.9645 47.2066 32.1858 46.5538C32.3464 46.0798 32.5351 45.6146 32.7511 45.1627C33.0513 44.5346 32.9699 43.7742 32.4809 43.2787V43.2787C32.226 43.0205 32.1816 42.6047 32.4032 42.3014V42.3014C32.7217 41.8625 32.4096 41.2004 31.8672 41.2004L27.7955 41.2007C27.7868 41.2007 27.7797 41.2077 27.7796 41.2164V41.2164ZM27.9171 38.9683C28.0318 38.8542 28.1306 38.725 28.2108 38.5844L30.2742 34.9653C30.2962 34.9203 30.3186 34.8756 30.3407 34.8419L33.2237 29.7865C33.2458 29.7414 33.2682 29.6968 33.2902 29.6631L37.2154 22.7647C37.2375 22.7197 37.2599 22.686 37.2932 22.6413L41.2068 15.7722C41.7818 14.7632 41.8173 13.408 40.8081 12.8333V12.8333V12.8333C39.8071 12.2628 38.6659 12.9548 38.0957 13.956L32.714 23.405C32.6919 23.4501 32.6695 23.4838 32.6474 23.5285L28.7109 30.4268C28.6889 30.4719 28.6665 30.5165 28.6444 30.5502L25.0943 36.7884C25.0147 36.9282 24.9541 37.0787 24.9144 37.2345V37.2345C24.4635 39.0015 26.6241 40.2543 27.9171 38.9683V38.9683ZM47.9824 54.8058C49.1136 53.6597 49.679 52.1656 49.679 50.6715C49.679 47.447 47.0952 44.8297 43.9133 44.8297C42.4387 44.8297 40.9638 45.4025 39.833 46.5372C37.5823 48.8177 37.5823 52.5252 39.833 54.8062C42.0725 57.0753 45.7317 57.0753 47.9824 54.8058ZM51.1648 50.6715C51.1648 54.7384 47.916 58.0302 43.9021 58.0302C39.8883 58.0302 36.6395 54.7384 36.6395 50.6715C36.6395 46.6046 39.8883 43.3129 43.9021 43.3129C47.916 43.3015 51.1648 46.6046 51.1648 50.6715ZM53.0597 59.4955C53.5047 59.0238 53.4611 58.2899 53.0056 57.8284V57.8284C52.7395 57.5588 52.7175 57.1207 52.9503 56.8284C53.3606 56.2105 53.7044 55.5589 53.9813 54.8958C54.2694 54.1992 54.4802 53.4691 54.6132 52.7388C54.6797 52.3567 55.0123 52.0985 55.3894 52.1208V52.1208C56.0086 52.1208 56.5359 51.6562 56.5539 51.0372C56.5608 50.8008 56.5611 50.5642 56.5549 50.3278C56.538 49.6899 55.9944 49.211 55.3562 49.211V49.211C54.9679 49.211 54.6578 48.9191 54.6133 48.5371C54.4803 47.8181 54.2695 47.1104 53.9922 46.4251C53.7149 45.7397 53.3603 45.0768 52.9387 44.4478C52.728 44.1446 52.7724 43.7402 53.0273 43.4816V43.4816C53.483 43.0261 53.5321 42.2973 53.0911 41.8275C52.9455 41.6725 52.796 41.5209 52.643 41.3734C52.1806 40.9276 51.4525 40.9715 50.9982 41.4256V41.4256C50.7321 41.6952 50.2997 41.7175 50.0112 41.493C49.4014 41.0773 48.7583 40.7289 48.1039 40.4484C47.4163 40.1565 46.6958 39.9429 45.9749 39.8081C45.5979 39.7407 45.343 39.3924 45.3651 39.0217V39.0217C45.3651 38.4003 44.8998 37.8704 44.2786 37.8527C44.0607 37.8465 43.8426 37.8461 43.6247 37.8515C42.9778 37.8675 42.4932 38.4196 42.4932 39.0667V39.0667C42.4932 39.4488 42.2051 39.7744 41.8281 39.8195C41.1184 39.9656 40.42 40.1678 39.7436 40.4597C39.0672 40.7407 38.4129 41.1 37.7922 41.5271C37.4928 41.7407 37.0937 41.6843 36.8385 41.4374V41.4374C36.386 40.9789 35.6546 40.936 35.1918 41.384C35.0409 41.53 34.8934 41.6795 34.7498 41.8318C34.3086 42.2998 34.3545 43.0277 34.8094 43.4824V43.4824C35.0754 43.752 35.0975 44.19 34.8647 44.4824C34.4543 45.1003 34.1105 45.7519 33.8336 46.4259C33.5455 47.1225 33.3348 47.8526 33.2017 48.5829C33.1352 48.965 32.8026 49.2232 32.4256 49.2009V49.2009C31.8063 49.2009 31.279 49.6655 31.261 50.2845C31.2541 50.5209 31.2538 50.7575 31.2601 50.9939C31.277 51.6317 31.8208 52.1102 32.4588 52.1095V52.1095C32.847 52.1095 33.1572 52.4014 33.2017 52.7725C33.3459 53.4915 33.5455 54.1992 33.8336 54.8845C34.1108 55.5698 34.4655 56.2328 34.887 56.8617C35.0978 57.165 35.0533 57.5694 34.7985 57.828V57.828C34.3429 58.2833 34.2942 59.0122 34.7348 59.4821C34.8787 59.6356 35.0263 59.7853 35.1771 59.9309C35.6415 60.3793 36.3741 60.3325 36.8276 59.873V59.873C37.0937 59.6034 37.526 59.581 37.8145 59.8169C38.4244 60.2327 39.0675 60.581 39.7219 60.8616C40.4095 61.1535 41.13 61.367 41.8508 61.5018C42.2279 61.5692 42.4827 61.9176 42.4607 62.2882V62.2882C42.4607 62.9097 42.926 63.4396 43.5471 63.4573C43.7651 63.4635 43.9831 63.4639 44.2011 63.4585C44.848 63.4424 45.3326 62.8903 45.3326 62.2432V62.2432C45.3326 61.8612 45.6207 61.5355 45.9977 61.4905C46.7074 61.3557 47.4058 61.1421 48.0822 60.8612C48.7586 60.5803 49.4129 60.2209 50.0336 59.7938C50.3329 59.5802 50.7321 59.6367 50.9873 59.8835V59.8835C51.4408 60.3368 52.1682 60.378 52.6289 59.932C52.7754 59.7901 52.9192 59.6445 53.0597 59.4955Z" fill="#9426BA"/>
</svg>
