<svg width="74" height="73" viewBox="0 0 74 73" fill="none" xmlns="http://www.w3.org/2000/svg">
<circle cx="37.0051" cy="36.1906" r="36.1906" fill="#E6C34B"/>
<path d="M23.1892 45.1384C23.1892 45.1384 23.1892 45.1384 23.1892 45.1384C24.2813 45.2963 27.3933 45.1499 27.5635 45.1416C28.7667 45.0081 29.0696 45.7446 29.091 45.8005L31.1046 52.7728C31.1866 53.0544 31.4434 53.2472 31.7334 53.2472H35.3156C35.517 53.2472 35.7053 53.1548 35.8297 52.9967C35.9542 52.8387 35.9999 52.631 35.9525 52.4349L33.2839 41.1511C33.2707 41.0968 33.2512 41.0457 33.2266 40.9964C32.3918 39.4016 30.5138 39.2171 30.3762 39.2089H27.6758C27.1617 39.2089 26.7449 38.7921 26.7449 38.278V38.278C26.7449 37.7639 27.1617 37.3471 27.6758 37.3471H46.542C47.0897 37.3471 47.5337 37.7911 47.5337 38.3388V38.3388C47.5337 38.886 47.0906 39.3297 46.5435 39.3305L45.2515 39.3324C44.1814 39.1957 43.3563 39.3082 42.7386 39.508C41.6575 39.8576 40.5759 41.0036 40.2862 42.1023V42.1023C40.0803 42.8831 40.0431 43.3744 39.8719 44.1636L39.2449 47.0543L37.8761 52.4251C37.8254 52.6229 37.8695 52.832 37.9923 52.9936C38.1151 53.1549 38.3067 53.249 38.5098 53.249H42.0215C42.3014 53.249 42.5502 53.0711 42.6404 52.8041L43.4638 50.3988C44.4775 47.4375 47.3154 45.7287 50.4283 45.4017V45.4017C53.3834 45.087 54.2854 42.5565 54.3492 41.2632C54.3657 40.9419 54.7486 33.3417 54.3427 30.7391C54.0217 28.6846 52.2652 28.2085 52.2257 28.1987C49.3147 27.2728 47.7415 28.833 47.6335 28.9483C46.5581 30.2843 44.523 32.5383 43.6372 32.8974C43.3504 33.0133 42.5248 33.0261 41.5976 32.974C40.6427 32.9203 39.3619 32.651 39.001 33.5367V33.5367V33.5367C38.5721 34.5696 38.2601 36.0311 37.1418 36.0311H36.5092C35.4984 36.0311 34.8308 34.9338 35.2173 33.9998V33.9998C35.2697 33.8729 35.2828 33.7344 35.2516 33.6009C35.0992 32.9139 34.3822 32.6734 33.7617 32.7409C32.428 32.9533 30.7057 33.0802 30.2456 32.9122C29.0374 32.474 27.4577 30.7573 26.4115 29.6204C26.1922 29.3816 25.9908 29.164 25.814 28.9778C24.9331 28.0555 22.9258 27.7358 22.1647 27.8773C19.9824 28.2824 19.704 29.3978 19.6108 30.4572C19.3719 33.1458 19.5993 40.9686 19.6092 41.3012C19.6826 43.7577 21.5062 44.8946 23.1892 45.1385C23.1892 45.1385 23.1893 45.1385 23.1892 45.1384V45.1384ZM44.1265 34.12C45.6148 33.5154 48.3437 30.1593 48.6009 29.8314C48.6433 29.7887 49.7142 28.7836 51.8572 29.4624C51.898 29.474 52.8625 29.7605 53.0475 30.9418C53.4323 33.4115 53.0442 41.1171 53.0409 41.1962C53.036 41.3032 52.8806 43.8142 50.2906 44.0892C48.9448 44.231 44.7718 44.0875 44.7292 44.0859C44.4445 44.0975 44.1825 44.2572 44.0874 44.5308L41.809 51.1878C41.6568 51.6324 41.2388 51.9312 40.7689 51.9312V51.9312C40.0516 51.9312 39.5264 51.2555 39.7035 50.5604L40.5183 47.3609L41.4203 43.1829C41.4792 42.5883 41.738 41.6508 42.0718 41.4431C42.1356 41.4036 42.2012 41.341 42.2469 41.2834C42.2779 41.2473 43.0034 40.374 45.1675 40.6474H48.1881C48.5499 40.6474 48.8429 40.3525 48.8429 39.9885V36.69V36.69C48.8429 36.3049 48.6842 35.7548 48.944 35.4705L50.8236 33.4131C51.0676 33.1445 51.0511 32.7277 50.7861 32.4822C50.5175 32.2351 50.1066 32.2533 49.861 32.52L47.9254 34.6378C47.1153 35.5242 45.9697 36.0291 44.7689 36.0291H41.8705C41.6897 36.0291 41.5379 35.8995 41.4148 35.7671V35.7671V35.7671C40.8191 35.1271 41.3554 34.3024 42.2296 34.3193C42.9632 34.3335 43.7006 34.2933 44.1265 34.12ZM20.9185 30.53C20.9741 29.8926 21.015 29.4312 22.4018 29.1757C22.8159 29.0916 24.3483 29.347 24.869 29.8923L25.4487 30.5151C26.6503 31.8202 28.2922 33.6044 29.8016 34.153C30.2318 34.3078 30.9546 34.3261 31.6803 34.2899C32.5803 34.245 33.3787 35.2384 32.788 35.919V35.919V35.919C32.7323 35.981 32.6595 36.0293 32.5761 36.0293H29.6992C28.2576 36.0293 26.8817 35.4268 25.904 34.3675L24.0669 32.377C23.8229 32.11 23.4085 32.0951 23.1418 32.3406C22.8765 32.5877 22.8601 33.0045 23.1057 33.2715L25.3032 35.667C25.5329 35.9173 25.4369 36.3469 25.4369 36.6866V36.6866V39.8664C25.4369 40.2305 25.7299 40.5253 26.0917 40.5253L30.3155 40.5236C30.3224 40.5236 30.753 40.5701 31.2085 40.8012C31.8733 41.1385 32.1184 41.9137 32.29 42.6392L34.1605 50.549C34.3272 51.2537 33.7927 51.9294 33.0686 51.9294V51.9294C32.5688 51.9295 32.1292 51.599 31.9904 51.1188L30.3421 45.4154C30.139 44.7827 29.2827 43.6411 27.464 43.8289C26.5995 43.87 24.1797 43.9508 23.3745 43.8339C22.6558 43.7302 20.9777 43.2704 20.9171 41.2622C20.9152 41.1828 20.6828 33.1875 20.9185 30.5298L20.9185 30.53Z" fill="#9426BA"/>
<path d="M22.5751 26.9596C24.2711 26.9596 25.6496 25.5723 25.6496 23.8656C25.6496 22.1588 24.2711 20.7715 22.5751 20.7715C20.8791 20.7715 19.5005 22.1605 19.5005 23.8656C19.5005 25.5709 20.8807 26.9596 22.5751 26.9596ZM22.5751 22.0896C23.5475 22.0896 24.3398 22.887 24.3398 23.8655C24.3398 24.8441 23.5491 25.6434 22.5751 25.6434C21.601 25.6434 20.8103 24.8458 20.8103 23.8655C20.8103 22.8853 21.6027 22.0896 22.5751 22.0896Z" fill="#9426BA"/>
<path d="M51.2762 26.9596C52.9722 26.9596 54.3508 25.5723 54.3508 23.8656C54.3508 22.1588 52.9722 20.7715 51.2762 20.7715C49.5802 20.7715 48.2017 22.1588 48.2017 23.8656C48.2017 25.5726 49.58 26.9596 51.2762 26.9596ZM51.2762 22.0896C52.2486 22.0896 53.041 22.887 53.041 23.8655C53.041 24.8441 52.2486 25.6414 51.2762 25.6414C50.3038 25.6414 49.5115 24.8441 49.5115 23.8655C49.5112 22.887 50.3036 22.0896 51.2762 22.0896Z" fill="#9426BA"/>
<path d="M55.0531 55.8587C55.0531 56.2227 55.3461 56.5176 55.7078 56.5176C56.0696 56.5176 56.3626 56.2227 56.3626 55.8587L56.3629 32.6125C56.3629 32.2484 56.0699 31.9536 55.7081 31.9536C55.3463 31.9536 55.0533 32.2484 55.0533 32.6125V39.2971C55.0533 42.8233 52.1947 45.682 48.6684 45.682V45.682C48.3067 45.682 48.0137 45.9768 48.0137 46.3409V55.8602C48.0137 56.2243 48.3067 56.5191 48.6684 56.5191C49.0302 56.5191 49.3232 56.2243 49.3232 55.8602V49.8647C49.3232 48.2824 50.6059 46.9996 52.1882 46.9996V46.9996C53.7706 46.9996 55.0533 48.2824 55.0532 49.8648L55.0531 55.8587Z" fill="#9426BA"/>
<path d="M18.3022 56.3417C18.3022 56.3417 18.3023 56.3417 18.3023 56.3417C18.664 56.3417 18.957 56.0469 18.957 55.6828V49.6873C18.957 48.105 20.2397 46.8223 21.8221 46.8223V46.8223C23.4044 46.8223 24.6871 48.105 24.6871 49.6873V55.6828C24.6871 56.0469 24.9801 56.3417 25.3419 56.3417C25.7037 56.3417 25.9967 56.0469 25.9967 55.6828V46.1635C25.9967 45.7994 25.7037 45.5046 25.3419 45.5046V45.5046C21.8156 45.5046 18.957 42.646 18.957 39.1197V32.4365C18.957 32.0724 18.664 31.7776 18.3022 31.7776C17.9405 31.7776 17.6475 32.0724 17.6475 32.4365V55.6827C17.6472 56.0465 17.9404 56.3416 18.3022 56.3416C18.3022 56.3416 18.3022 56.3416 18.3022 56.3417V56.3417Z" fill="#9426BA"/>
<path d="M31.7435 32.3752C32.1053 32.3752 32.3983 32.0804 32.3983 31.7163C32.3983 29.4839 34.2025 27.6685 36.4206 27.6685H37.5895C39.8079 27.6685 41.6136 29.4842 41.6136 31.7163C41.6136 32.0804 41.9065 32.3752 42.2683 32.3752C42.6301 32.3752 42.9231 32.0804 42.9231 31.7163C42.9231 28.7574 40.5312 26.3504 37.5909 26.3504H36.422C33.4817 26.3504 31.0898 28.7574 31.0898 31.7163C31.0885 32.0801 31.3817 32.3752 31.7435 32.3752Z" fill="#9426BA"/>
<path d="M37.0052 25.3668C38.7012 25.3668 40.0798 23.9795 40.0798 22.2727C40.0798 20.566 38.7012 19.1787 37.0052 19.1787C35.3092 19.1787 33.9307 20.566 33.9307 22.2727C33.9307 23.9795 35.3109 25.3668 37.0052 25.3668ZM37.0052 20.4967C37.9776 20.4967 38.77 21.2941 38.77 22.2727C38.77 23.2512 37.9776 24.0486 37.0052 24.0486C36.0328 24.0486 35.2405 23.2512 35.2405 22.2727C35.2405 21.2941 36.0328 20.4967 37.0052 20.4967Z" fill="#9426BA"/>
</svg>
