<svg width="42" height="42" viewBox="0 0 42 42" fill="none" xmlns="http://www.w3.org/2000/svg">
<ellipse cx="20.7275" cy="21.1052" rx="20.5" ry="20.3303" fill="#2E208E"/>
<path d="M22.0414 8.70874V10.4163C23.7444 10.4163 25.3399 10.8432 26.8278 11.697C28.244 12.533 29.3733 13.6536 30.2159 15.0587C31.0764 16.5351 31.5066 18.1181 31.5066 19.8079H33.2275C33.2275 17.798 32.7166 15.9303 31.6948 14.205C30.7089 12.533 29.3733 11.2078 27.6883 10.2295C25.9494 9.21567 24.0671 8.70874 22.0414 8.70874ZM13.1409 11.2701C12.6569 11.2701 12.2356 11.4213 11.8771 11.7237L9.10743 14.5251L9.1881 14.4718C8.73994 14.8453 8.44415 15.3078 8.30074 15.8592C8.17525 16.4106 8.21111 16.9442 8.4083 17.46C8.91024 18.8474 9.58248 20.2704 10.425 21.7289C11.6082 23.7389 13.0154 25.5443 14.6467 27.1451C17.264 29.7598 20.5177 31.8231 24.4077 33.335H24.4346C24.9545 33.5129 25.4743 33.5485 25.9942 33.4418C26.532 33.335 27.007 33.1038 27.4194 32.7481L30.1352 30.0533C30.4937 29.6976 30.673 29.2618 30.673 28.746C30.673 28.2123 30.4937 27.7677 30.1352 27.4119L26.6127 23.8901C26.2541 23.5343 25.806 23.3564 25.2682 23.3564C24.7304 23.3564 24.2822 23.5343 23.9237 23.8901L22.2296 25.5976C20.8672 24.9573 19.6841 24.1658 18.6802 23.223C17.6763 22.2625 16.8786 21.0975 16.287 19.7279L18.0079 18.0203C18.3844 17.629 18.5726 17.1665 18.5726 16.6329C18.5726 16.0815 18.3575 15.6368 17.9273 15.2989L18.0079 15.3789L14.4047 11.7237C14.0462 11.4213 13.6249 11.2701 13.1409 11.2701ZM22.0414 12.1239V13.8314C23.1349 13.8314 24.1388 14.0982 25.0531 14.6319C25.9852 15.1655 26.7202 15.8947 27.258 16.8197C27.7958 17.7268 28.0647 18.7229 28.0647 19.8079H29.7857C29.7857 18.4205 29.4361 17.1309 28.737 15.9392C28.0378 14.783 27.1056 13.8581 25.9404 13.1644C24.7393 12.4707 23.4397 12.1239 22.0414 12.1239ZM13.1409 12.9777C13.1947 12.9777 13.2574 13.0043 13.3291 13.0577L16.8517 16.6329C16.8696 16.7041 16.8517 16.7663 16.7979 16.8197L14.2434 19.3277L14.4316 19.8613L14.7812 20.6083C15.068 21.2131 15.3996 21.8001 15.7761 22.3693C16.296 23.1697 16.8696 23.8545 17.497 24.4237C18.3396 25.2419 19.3524 25.9889 20.5356 26.6649C21.1272 27.0028 21.6291 27.2518 22.0414 27.4119L22.5792 27.652L25.1875 25.064C25.2234 25.0284 25.2502 25.0107 25.2682 25.0107C25.2861 25.0107 25.313 25.0284 25.3488 25.064L28.979 28.6659C29.0148 28.7015 29.0327 28.7282 29.0327 28.746C29.0327 28.746 29.0148 28.7637 28.979 28.7993L26.29 31.4407C25.8956 31.7787 25.4654 31.8676 24.9993 31.7075C21.3423 30.3023 18.2948 28.3813 15.8568 25.9445C14.3509 24.4504 13.0333 22.7517 11.904 20.8485C11.0973 19.4789 10.4698 18.1537 10.0217 16.873V16.8464C9.94998 16.6863 9.94101 16.4995 9.99479 16.2861C10.0486 16.0548 10.1472 15.877 10.2906 15.7524L12.9527 13.0577C13.0064 13.0043 13.0692 12.9777 13.1409 12.9777ZM22.0414 15.539V17.2466C22.7585 17.2466 23.368 17.4956 23.8699 17.9936C24.3718 18.4917 24.6228 19.0964 24.6228 19.8079H26.3438C26.3438 19.0431 26.1466 18.3316 25.7522 17.6735C25.3757 17.0153 24.8559 16.4995 24.1926 16.126C23.5293 15.7347 22.8122 15.539 22.0414 15.539Z" fill="white"/>
</svg>
