<svg width="73" height="73" viewBox="0 0 73 73" fill="none" xmlns="http://www.w3.org/2000/svg">
<circle cx="36.3781" cy="36.3986" r="36.1906" fill="#E6C34B"/>
<path d="M22.5623 43.6789C22.5622 43.6789 22.5622 43.6788 22.5623 43.6788C23.6544 43.8358 26.7664 43.6903 26.9366 43.6821C28.1398 43.5494 28.4427 44.2812 28.4641 44.3369L30.4777 51.2652C30.5596 51.5451 30.8164 51.7367 31.1064 51.7367H34.6886C34.8901 51.7367 35.0784 51.6448 35.2028 51.4878C35.3272 51.3307 35.373 51.1244 35.3256 50.9295L32.6569 39.7166C32.6437 39.6626 32.6243 39.6119 32.5996 39.5629C31.7648 37.9782 29.8868 37.7948 29.7492 37.7866H27.043C26.5321 37.7866 26.118 37.3725 26.118 36.8616V36.8616C26.118 36.3507 26.5321 35.9366 27.043 35.9366H45.9213C46.4656 35.9366 46.9068 36.3778 46.9068 36.9221V36.9221C46.9068 37.4658 46.4664 37.9067 45.9227 37.9075L44.6246 37.9094C43.5487 37.7729 42.7206 37.8865 42.1018 38.087C41.0294 38.4345 39.9507 39.5675 39.6606 40.6568V40.6568C39.4529 41.4363 39.4157 41.928 39.2437 42.7161L38.6179 45.5827L37.2492 50.9198C37.1984 51.1163 37.2426 51.324 37.3654 51.4846C37.4881 51.645 37.6797 51.7384 37.8828 51.7384H41.3946C41.6744 51.7384 41.9233 51.5617 42.0134 51.2964L42.8272 48.9341C43.8471 45.9735 46.6869 44.2656 49.8013 43.9406V43.9406C52.7564 43.6278 53.6584 41.1132 53.7223 39.828C53.7387 39.5087 54.1216 31.9564 53.7157 29.3701C53.3948 27.3285 51.6382 26.8555 51.5987 26.8457C48.6878 25.9256 47.1146 27.476 47.0066 27.5906C45.9311 28.9182 43.8961 31.158 43.0103 31.5148C42.7231 31.6301 41.8963 31.6428 40.968 31.5908C40.0149 31.5375 38.7362 31.2669 38.374 32.1502V32.1502V32.1502C37.946 33.1745 37.6392 34.6289 36.529 34.6289H35.8707C34.8666 34.6289 34.2044 33.5373 34.5904 32.6103V32.6103C34.6427 32.4842 34.6559 32.3466 34.6246 32.214C34.4722 31.5312 33.7552 31.2922 33.1348 31.3594C31.8011 31.5704 30.0788 31.6965 29.6186 31.5296C28.4105 31.0941 26.8308 29.3882 25.7845 28.2585C25.5653 28.0211 25.3638 27.8049 25.1871 27.6199C24.3062 26.7034 22.2988 26.3857 21.5377 26.5263C19.3555 26.9289 19.0771 28.0373 18.9839 29.09C18.7449 31.7617 18.9724 39.5353 18.9822 39.8658C19.0557 42.3068 20.8792 43.4366 22.5622 43.679C22.5623 43.679 22.5623 43.6789 22.5623 43.6789V43.6789ZM43.4996 32.7298C44.9878 32.129 47.7168 28.794 47.9739 28.4681C48.0164 28.4257 49.0872 27.4269 51.2302 28.1014C51.271 28.1129 52.2355 28.3977 52.4205 29.5716C52.8053 32.0257 52.4172 39.6829 52.414 39.7614C52.409 39.8678 52.2536 42.363 49.6636 42.6363C48.3179 42.7771 44.1448 42.6346 44.1023 42.633C43.8175 42.6445 43.5555 42.8032 43.4604 43.0751L41.1829 49.6877C41.0302 50.1312 40.6128 50.4289 40.1437 50.4289V50.4289C39.426 50.4289 38.9008 49.7522 39.079 49.0569L39.8914 45.8874L40.7933 41.7357C40.8523 41.1448 41.111 40.2132 41.4448 40.0068C41.5087 39.9676 41.5742 39.9054 41.62 39.8481C41.6509 39.8122 42.3764 38.9445 44.5405 39.2161H47.5611C47.9229 39.2161 48.2159 38.9231 48.2159 38.5613V35.2836V35.2836C48.2159 34.901 48.0578 34.3537 48.3168 34.072L50.1967 32.0273C50.4406 31.7604 50.4242 31.3463 50.1591 31.1023C49.8905 30.8567 49.4797 30.8748 49.2341 31.1398L47.3009 33.2417C46.4889 34.1245 45.3443 34.6269 44.1449 34.6269H41.2422C41.0621 34.6269 40.9108 34.498 40.7878 34.3665V34.3665V34.3665C40.1931 33.7316 40.7249 32.9105 41.5947 32.9277C42.3309 32.9422 43.0721 32.9026 43.4996 32.7298ZM20.2915 29.1623C20.3472 28.529 20.388 28.0705 21.7749 27.8166C22.189 27.733 23.7213 27.9868 24.2421 28.5286L24.8218 29.1475C26.0233 30.4444 27.6653 32.2174 29.1747 32.7625C29.6069 32.9171 30.3343 32.9347 31.0634 32.8981C31.9583 32.8531 32.7504 33.8427 32.161 34.5175V34.5175V34.5175C32.1054 34.579 32.0328 34.6271 31.9498 34.6271H29.0707C27.6296 34.6271 26.2536 34.0271 25.2728 32.9712L23.4399 30.9977C23.196 30.7324 22.7816 30.7176 22.5149 30.9616C22.2496 31.2071 22.2331 31.6213 22.4787 31.8866L24.6768 34.2675C24.9056 34.5154 24.81 34.9428 24.81 35.2802V35.2802V38.44C24.81 38.8018 25.103 39.0948 25.4647 39.0948L29.6885 39.0931C29.6954 39.0931 30.1263 39.1393 30.5819 39.3691C31.2454 39.7037 31.4917 40.4755 31.6637 41.1985L33.5312 49.0456C33.699 49.7505 33.1645 50.4271 32.4399 50.4272V50.4272C31.941 50.4273 31.5019 50.0978 31.3626 49.6186L29.7151 43.9541C29.512 43.3254 28.6558 42.191 26.837 42.3776C25.9726 42.4185 23.5527 42.4988 22.7475 42.3826C22.0289 42.2795 20.3507 41.8226 20.2902 39.8271C20.2882 39.7481 20.0558 31.8031 20.2915 29.1622L20.2915 29.1623Z" fill="#9426BA"/>
<path d="M21.9481 25.6144C23.6441 25.6144 25.0227 24.2358 25.0227 22.5398C25.0227 20.8438 23.6441 19.4652 21.9481 19.4652C20.2521 19.4652 18.8735 20.8455 18.8735 22.5398C18.8735 24.2344 20.2538 25.6144 21.9481 25.6144ZM21.9481 20.775C22.9205 20.775 23.7129 21.5673 23.7129 22.5397C23.7129 23.5121 22.9221 24.3064 21.9481 24.3064C20.974 24.3064 20.1834 23.5138 20.1834 22.5397C20.1834 21.5656 20.9757 20.775 21.9481 20.775Z" fill="#9426BA"/>
<path d="M50.6493 25.6144C52.3453 25.6144 53.7239 24.2358 53.7239 22.5398C53.7239 20.8438 52.3453 19.4652 50.6493 19.4652C48.9533 19.4652 47.5747 20.8438 47.5747 22.5398C47.5747 24.2361 48.9531 25.6144 50.6493 25.6144ZM50.6493 20.775C51.6217 20.775 52.414 21.5673 52.414 22.5397C52.414 23.5121 51.6217 24.3045 50.6493 24.3045C49.6769 24.3045 48.8845 23.5121 48.8845 22.5397C48.8842 21.5673 49.6766 20.775 50.6493 20.775Z" fill="#9426BA"/>
<path d="M54.4261 54.3317C54.4261 54.6934 54.7191 54.9864 55.0809 54.9864C55.4427 54.9864 55.7356 54.6934 55.7356 54.3317L55.7359 31.2317C55.7359 30.8699 55.4429 30.5769 55.0812 30.5769C54.7194 30.5769 54.4264 30.8699 54.4264 31.2317V37.8341C54.4264 41.3604 51.5678 44.219 48.0415 44.219V44.219C47.6797 44.219 47.3867 44.512 47.3867 44.8737V54.3332C47.3867 54.695 47.6797 54.988 48.0415 54.988C48.4033 54.988 48.6963 54.695 48.6963 54.3332V48.3934C48.6963 46.8111 49.979 45.5284 51.5613 45.5284V45.5284C53.1436 45.5284 54.4263 46.8111 54.4263 48.3935L54.4261 54.3317Z" fill="#9426BA"/>
<path d="M17.6753 54.8116C17.6753 54.8117 17.6753 54.8117 17.6753 54.8117C18.0371 54.8117 18.33 54.5187 18.33 54.1569V48.2172C18.33 46.6348 19.6128 45.3521 21.1951 45.3521V45.3521C22.7774 45.3521 24.0602 46.6348 24.0602 48.2172V54.1569C24.0602 54.5187 24.3532 54.8117 24.7149 54.8117C25.0767 54.8117 25.3697 54.5187 25.3697 54.1569V44.6975C25.3697 44.3357 25.0767 44.0427 24.7149 44.0427V44.0427C21.1887 44.0427 18.33 41.1841 18.33 37.6578V31.0568C18.33 30.695 18.0371 30.402 17.6753 30.402C17.3135 30.402 17.0205 30.695 17.0205 31.0568V54.1568C17.0202 54.5183 17.3135 54.8115 17.6752 54.8116C17.6752 54.8116 17.6753 54.8116 17.6753 54.8116V54.8116Z" fill="#9426BA"/>
<path d="M31.1165 30.996C31.4783 30.996 31.7713 30.703 31.7713 30.3412C31.7713 28.1228 33.5756 26.3188 35.7937 26.3188H36.9626C39.1809 26.3188 40.9866 28.1231 40.9866 30.3412C40.9866 30.703 41.2796 30.996 41.6414 30.996C42.0032 30.996 42.2961 30.703 42.2961 30.3412C42.2961 27.4009 39.9043 25.009 36.964 25.009H35.7951C32.8548 25.009 30.4629 27.4009 30.4629 30.3412C30.4615 30.7027 30.7548 30.996 31.1165 30.996Z" fill="#9426BA"/>
<path d="M36.3783 24.0316C38.0743 24.0316 39.4529 22.653 39.4529 20.957C39.4529 19.261 38.0743 17.8824 36.3783 17.8824C34.6823 17.8824 33.3037 19.261 33.3037 20.957C33.3037 22.653 34.684 24.0316 36.3783 24.0316ZM36.3783 19.1922C37.3507 19.1922 38.143 19.9846 38.143 20.9569C38.143 21.9293 37.3507 22.7217 36.3783 22.7217C35.4059 22.7217 34.6135 21.9293 34.6135 20.9569C34.6135 19.9846 35.4059 19.1922 36.3783 19.1922Z" fill="#9426BA"/>
</svg>
