<svg width="41" height="41" viewBox="0 0 41 41" fill="none" xmlns="http://www.w3.org/2000/svg">
<ellipse cx="20.5" cy="20.3301" rx="20.5" ry="20.3303" fill="#2E208E"/>
<path d="M21.8139 7.93359V9.64116C23.5169 9.64116 25.1123 10.0681 26.6002 10.9218C28.0164 11.7578 29.1458 12.8784 29.9883 14.2836C30.8488 15.7599 31.2791 17.343 31.2791 19.0328H33C33 17.0228 32.4891 15.1552 31.4673 13.4298C30.4813 11.7578 29.1458 10.4327 27.4607 9.45439C25.7218 8.44053 23.8396 7.93359 21.8139 7.93359ZM12.9134 10.4949C12.4293 10.4949 12.0081 10.6461 11.6495 10.9485L8.87989 13.75L8.96056 13.6966C8.5124 14.0702 8.21661 14.5326 8.0732 15.084C7.94771 15.6354 7.98357 16.169 8.18076 16.6849C8.6827 18.0723 9.35494 19.4952 10.1975 20.9538C11.3806 22.9637 12.7879 24.7691 14.4192 26.37C17.0365 28.9847 20.2901 31.048 24.1802 32.5599H24.2071C24.7269 32.7378 25.2468 32.7733 25.7667 32.6666C26.3045 32.5599 26.7795 32.3287 27.1918 31.9729L29.9077 29.2782C30.2662 28.9224 30.4455 28.4866 30.4455 27.9708C30.4455 27.4372 30.2662 26.9925 29.9077 26.6368L26.3851 23.1149C26.0266 22.7592 25.5784 22.5813 25.0406 22.5813C24.5028 22.5813 24.0547 22.7592 23.6961 23.1149L22.0021 24.8225C20.6397 24.1821 19.4565 23.3906 18.4526 22.4479C17.4488 21.4874 16.651 20.3223 16.0595 18.9527L17.7804 17.2452C18.1569 16.8538 18.3451 16.3914 18.3451 15.8578C18.3451 15.3064 18.13 14.8617 17.6997 14.5237L17.7804 14.6038L14.1772 10.9485C13.8186 10.6461 13.3974 10.4949 12.9134 10.4949ZM21.8139 11.3487V13.0563C22.9074 13.0563 23.9113 13.3231 24.8255 13.8567C25.7577 14.3903 26.4927 15.1196 27.0305 16.0445C27.5683 16.9517 27.8372 17.9478 27.8372 19.0328H29.5581C29.5581 17.6454 29.2085 16.3558 28.5094 15.1641C27.8103 14.0079 26.8781 13.083 25.7129 12.3893C24.5118 11.6956 23.2121 11.3487 21.8139 11.3487ZM12.9134 12.2025C12.9671 12.2025 13.0299 12.2292 13.1016 12.2825L16.6241 15.8578C16.6421 15.9289 16.6241 15.9912 16.5704 16.0445L14.0158 18.5525L14.2041 19.0861L14.5536 19.8332C14.8405 20.438 15.1721 21.0249 15.5486 21.5941C16.0684 22.3945 16.6421 23.0793 17.2695 23.6485C18.112 24.4667 19.1249 25.2138 20.308 25.8897C20.8996 26.2277 21.4016 26.4767 21.8139 26.6368L22.3517 26.8769L24.96 24.2889C24.9958 24.2533 25.0227 24.2355 25.0406 24.2355C25.0586 24.2355 25.0855 24.2533 25.1213 24.2889L28.7514 27.8908C28.7873 27.9263 28.8052 27.953 28.8052 27.9708C28.8052 27.9708 28.7873 27.9886 28.7514 28.0242L26.0624 30.6656C25.6681 31.0035 25.2378 31.0924 24.7717 30.9324C21.1147 29.5272 18.0672 27.6062 15.6292 25.1693C14.1234 23.6752 12.8058 21.9765 11.6764 20.0733C10.8697 18.7037 10.2423 17.3786 9.79414 16.0979V16.0712C9.72244 15.9111 9.71347 15.7244 9.76725 15.5109C9.82103 15.2797 9.91963 15.1018 10.063 14.9773L12.7251 12.2825C12.7789 12.2292 12.8416 12.2025 12.9134 12.2025ZM21.8139 14.7639V16.4714C22.5309 16.4714 23.1404 16.7204 23.6424 17.2185C24.1443 17.7165 24.3953 18.3213 24.3953 19.0328H26.1162C26.1162 18.2679 25.919 17.5564 25.5246 16.8983C25.1482 16.2402 24.6283 15.7244 23.965 15.3508C23.3018 14.9595 22.5847 14.7639 21.8139 14.7639Z" fill="white"/>
</svg>
