<svg width="41" height="41" viewBox="0 0 41 41" fill="none" xmlns="http://www.w3.org/2000/svg">
<ellipse cx="20.5" cy="20.3301" rx="20.5" ry="20.3303" fill="#2E208E"/>
<path d="M14.75 9.91699V11.7215L9 15.4194V30.7432H32V15.4194L26.25 11.7215V9.91699H14.75ZM16.6667 11.8103H24.3333V19.0876L20.5 21.543L16.6667 19.0876V11.8103ZM17.625 13.7036V15.5969H23.375V13.7036H17.625ZM14.75 13.9698V17.8451L11.7253 15.9223L14.75 13.9698ZM26.25 13.9698L29.2747 15.9223L26.25 17.8451V13.9698ZM17.625 16.5435V18.4368H23.375V16.5435H17.625ZM10.9167 17.6676L20.5 23.7912L30.0833 17.6676V28.8499H10.9167V17.6676Z" fill="white"/>
</svg>
