<svg width="42" height="42" viewBox="0 0 42 42" fill="none" xmlns="http://www.w3.org/2000/svg">
<ellipse cx="20.7275" cy="20.7658" rx="20.5" ry="20.3303" fill="#2E208E"/>
<path d="M14.9775 10.3528V12.1573L9.22754 15.8551V31.1789H32.2275V15.8551L26.4775 12.1573V10.3528H14.9775ZM16.8942 12.2461H24.5609V19.5234L20.7275 21.9787L16.8942 19.5234V12.2461ZM17.8525 14.1394V16.0326H23.6025V14.1394H17.8525ZM14.9775 14.4056V18.2809L11.9528 16.3581L14.9775 14.4056ZM26.4775 14.4056L29.5023 16.3581L26.4775 18.2809V14.4056ZM17.8525 16.9793V18.8726H23.6025V16.9793H17.8525ZM11.1442 18.1034L20.7275 24.227L30.3109 18.1034V29.2857H11.1442V18.1034Z" fill="white"/>
</svg>
