<svg width="73" height="73" viewBox="0 0 73 73" fill="none" xmlns="http://www.w3.org/2000/svg">
<circle cx="36.6306" cy="36.3986" r="36.1906" fill="#E6C34B"/>
<path d="M20.3585 34.9357C20.3585 34.9357 20.3585 34.9357 20.3585 34.9357C20.9224 34.9362 21.4755 34.7819 21.9576 34.4894C22.0674 34.4227 22.1727 34.3495 22.2727 34.2702C22.8638 33.8015 23.6131 33.4267 24.3382 33.6349L25.3413 33.9228C25.661 34.0146 25.9914 33.8209 26.0869 33.5022V33.5022C26.1839 33.1782 26.0069 32.8296 25.6818 32.7363L23.5806 32.1331C23.4932 32.1081 23.44 32.0253 23.4424 31.9344V31.9344V31.9347C23.4669 31.1163 23.1631 30.3221 22.5986 29.7293C22.0149 29.115 21.2053 28.7665 20.358 28.7651C19.2558 28.7651 18.2371 29.3533 17.6861 30.3081C17.1352 31.2626 17.1352 32.4389 17.6864 33.3934C18.2376 34.3478 19.2563 34.9357 20.3585 34.9357C20.3585 34.9357 20.3585 34.9357 20.3585 34.9357V34.9357ZM19.0855 30.5061C19.4419 30.1686 19.918 29.9866 20.4089 30.0001C20.8995 30.0133 21.3648 30.2213 21.7025 30.5777C22.04 30.9342 22.222 31.4102 22.2085 31.9011C22.1953 32.3917 21.9873 32.857 21.6309 33.1948C21.2744 33.5322 20.7984 33.7143 20.3075 33.7008C19.8169 33.6876 19.3516 33.4796 19.0138 33.1231C18.6747 32.7675 18.4918 32.2912 18.505 31.7997C18.5185 31.3086 18.7273 30.8431 19.0855 30.5061Z" fill="#9426BA"/>
<path d="M55.92 39.2939C55.3363 38.6796 54.5267 38.3312 53.6794 38.3298C53.1155 38.3292 52.5623 38.4835 52.0802 38.776C51.9567 38.851 51.839 38.9343 51.728 39.0252C51.1656 39.4854 50.4439 39.8442 49.7454 39.6438L48.7775 39.3659C48.4525 39.2727 48.1178 39.4742 48.0282 39.8002V39.8002C47.94 40.1209 48.1174 40.4605 48.4371 40.5523L50.4572 41.132C50.5446 41.1571 50.5978 41.2398 50.5954 41.3307V41.3307C50.5709 42.1491 50.8747 42.9433 51.4392 43.5361C52.0017 44.1303 52.7775 44.4769 53.5953 44.4992C54.4132 44.5215 55.2066 44.2179 55.8007 43.6554C56.3949 43.0929 56.7415 42.3171 56.7637 41.4993C56.7861 40.6814 56.4825 39.888 55.92 39.2939L55.92 39.2939ZM54.9523 42.7594C54.5958 43.0969 54.1198 43.279 53.6289 43.2655C53.1382 43.2522 52.6729 43.0443 52.3352 42.6878C51.9978 42.3313 51.8157 41.8553 51.8292 41.3644C51.8424 40.8738 52.0504 40.4085 52.4068 40.0708C52.7633 39.7333 53.2393 39.5512 53.7302 39.5647C54.2209 39.5779 54.6862 39.7859 55.0239 40.1424C55.363 40.498 55.5459 40.9743 55.5327 41.4658C55.5192 41.9569 55.3104 42.4225 54.9523 42.7594Z" fill="#9426BA"/>
<path d="M26.8369 36.7867C26.837 36.7867 26.837 36.7867 26.837 36.7867C26.837 39.4868 27.9097 42.0766 29.819 43.9861C31.7285 45.8954 34.3183 46.9681 37.0185 46.9681C39.7186 46.9681 42.3084 45.8954 44.2179 43.9861C46.1272 42.0766 47.1999 39.4868 47.1999 36.7866C47.1999 34.0865 46.1272 31.4967 44.2179 29.5871C42.3084 27.6779 39.7186 26.6052 37.0185 26.6052C34.3191 26.6082 31.7313 27.682 29.8225 29.5907C27.9138 31.4995 26.84 34.0873 26.8369 36.7867C26.8369 36.7867 26.8369 36.7867 26.8369 36.7867V36.7867ZM35.9278 37.8775C35.6386 37.5883 35.4761 37.1957 35.4761 36.7866C35.4761 36.3775 35.6386 35.985 35.9278 35.6957C36.2171 35.4065 36.6096 35.244 37.0187 35.244C37.4278 35.244 37.8204 35.4065 38.1096 35.6957C38.3989 35.985 38.5614 36.3775 38.5614 36.7866C38.5614 37.1957 38.3989 37.5882 38.1096 37.8775C37.8201 38.1662 37.4278 38.3285 37.0187 38.3285C36.6096 38.3285 36.2174 38.1662 35.9278 37.8775ZM37.0187 27.8396C40.1418 27.839 43.0392 29.4673 44.6625 32.135C46.2861 34.803 46.4007 38.1246 44.965 40.8979C44.0862 42.5958 42.7042 43.9379 41.0496 44.7728C39.3291 45.6411 37.6357 44.074 37.6357 42.1467V42.1467C37.6357 40.5931 38.9948 39.2775 39.5914 37.843C39.5982 37.8265 39.6049 37.81 39.6115 37.7934C39.9489 36.9356 39.8401 35.9668 39.3211 35.2051C38.8024 34.4434 37.9404 33.9874 37.0187 33.9874C36.097 33.9874 35.235 34.4433 34.7164 35.2051C34.1974 35.9668 34.0886 36.9356 34.426 37.7934C34.4325 37.81 34.4392 37.8265 34.4461 37.8429C35.0425 39.2776 36.4017 40.5931 36.4017 42.1468V42.1468C36.4017 44.074 34.7084 45.6411 32.9879 44.7729C31.3333 43.938 29.9513 42.5958 29.0725 40.8979C27.6367 38.1245 27.7513 34.8028 29.375 32.135C30.9983 29.4673 33.8957 27.839 37.0187 27.8396Z" fill="#9426BA"/>
<path d="M31.5648 42.2409C31.8059 42.4811 32.1959 42.4808 32.4364 42.24C32.6772 41.9995 32.6774 41.6095 32.4372 41.3685C31.2221 40.1534 30.5395 38.5052 30.5395 36.7868C30.5395 35.0684 31.2221 33.4202 32.4372 32.2051C33.6523 30.9899 35.3005 30.3074 37.0189 30.3074C38.7373 30.3074 40.3854 30.99 41.6006 32.2051C42.8157 33.4202 43.4983 35.0684 43.4983 36.7868C43.4983 38.5052 42.8157 40.1533 41.6006 41.3685C41.4846 41.4842 41.4196 41.6409 41.4196 41.8045C41.4196 41.9684 41.4846 42.1252 41.6003 42.2412C41.716 42.3568 41.873 42.4219 42.0366 42.4219C42.2003 42.4216 42.3573 42.3566 42.473 42.2409C43.9195 40.7944 44.7321 38.8325 44.7321 36.7868C44.7321 34.7411 43.9195 32.7792 42.473 31.3327C41.0265 29.8862 39.0646 29.0735 37.0189 29.0735C34.9732 29.0735 33.0113 29.8862 31.5648 31.3327C30.1183 32.7792 29.3057 34.7411 29.3057 36.7868C29.3057 38.8325 30.1183 40.7943 31.5648 42.2409Z" fill="#9426BA"/>
<path d="M40.7279 33.0782C39.4023 31.7562 37.4727 31.241 35.6644 31.7264C33.8565 32.2118 32.4442 33.6241 31.9588 35.4321C31.4734 37.2403 31.9885 39.17 33.3105 40.4956C33.5516 40.7358 33.9416 40.7352 34.1824 40.4947C34.4229 40.254 34.4231 39.8642 34.1832 39.6229C33.432 38.8711 33.0099 37.8513 33.0105 36.7886C33.0108 35.7255 33.4333 34.7063 34.1851 33.9548C34.9368 33.2032 35.9561 32.7809 37.0192 32.7809C38.0823 32.7809 39.1015 33.2032 39.8533 33.9548C40.6051 34.7063 41.0276 35.7255 41.0279 36.7886C41.0284 37.8513 40.6067 38.8711 39.8552 39.6229C39.7395 39.7386 39.6745 39.8956 39.6745 40.0592C39.6745 40.2229 39.7395 40.3799 39.8552 40.4956C39.9709 40.6115 40.1279 40.6766 40.2915 40.6763C40.4552 40.6763 40.6122 40.6113 40.7279 40.4956C41.7103 39.5113 42.262 38.1775 42.262 36.7869C42.262 35.3963 41.7103 34.0624 40.7279 33.0782Z" fill="#9426BA"/>
<path d="M51.8282 17.0409C50.5902 17.039 49.3967 17.5029 48.4851 18.3406C47.5735 19.1783 47.0108 20.3284 46.9086 21.5623C46.8656 22.0817 46.9055 22.5999 47.023 23.0988C47.301 24.2796 47.2894 25.6438 46.4317 26.5016L45.0746 27.8586C44.8375 28.0958 44.8491 28.4824 45.0862 28.7195V28.7195C45.3233 28.9566 45.7099 28.9682 45.947 28.7311L47.306 27.3721C48.1632 26.5149 49.5258 26.5019 50.7061 26.7783C51.5331 26.9719 52.4077 26.9517 53.2445 26.7015C54.7709 26.245 55.9833 25.0795 56.4989 23.5721C57.0149 22.0645 56.7711 20.4006 55.8441 19.1048C54.9171 17.8087 53.4215 17.0401 51.8282 17.0409ZM51.8282 25.6797C50.8461 25.6797 49.9046 25.2897 49.2101 24.5955C48.5159 23.901 48.1259 22.9594 48.1259 21.9774C48.1259 20.9953 48.5159 20.0538 49.2101 19.3593C49.9046 18.6651 50.8461 18.275 51.8282 18.275C52.8103 18.275 53.7518 18.6651 54.4463 19.3593C55.1405 20.0537 55.5306 20.9953 55.5306 21.9774C55.5306 22.9594 55.1405 23.901 54.4463 24.5955C53.7518 25.2897 52.8103 25.6797 51.8282 25.6797Z" fill="#9426BA"/>
<path d="M22.2095 56.5328C23.4475 56.5347 24.6411 56.0708 25.5526 55.2331C26.4642 54.3953 27.0269 53.2452 27.1291 52.0114C27.1721 51.492 27.1322 50.9737 27.0148 50.4749C26.7367 49.2941 26.7483 47.9299 27.6061 47.0721L28.9631 45.715C29.2002 45.4779 29.1887 45.0913 28.9516 44.8542V44.8542C28.7144 44.6171 28.3278 44.6055 28.0907 44.8426L26.7317 46.2016C25.8745 47.0588 24.5119 47.0718 23.3316 46.7954C22.5047 46.6017 21.63 46.622 20.7932 46.8722C19.2668 47.3286 18.0545 48.4942 17.5388 50.0015C17.0229 51.5092 17.2667 53.1731 18.1936 54.4689C19.1206 55.765 20.6162 56.5335 22.2095 56.5328ZM22.2095 47.8939C23.1916 47.8939 24.1331 48.284 24.8276 48.9782C25.5218 49.6727 25.9119 50.6142 25.9119 51.5963C25.9119 52.5784 25.5218 53.5199 24.8276 54.2144C24.1331 54.9086 23.1916 55.2987 22.2095 55.2987C21.2274 55.2987 20.2859 54.9086 19.5914 54.2144C18.8972 53.5199 18.5071 52.5784 18.5071 51.5963C18.5071 50.6142 18.8972 49.6727 19.5914 48.9782C20.2859 48.284 21.2274 47.8939 22.2095 47.8939Z" fill="#9426BA"/>
<path d="M44.8031 48.7945C44.8031 48.7945 44.8031 48.7945 44.8031 48.7945L43.3308 46.2931C43.3308 46.2931 43.3307 46.2931 43.3307 46.2931V46.2931C43.3307 46.2932 43.3307 46.2932 43.3306 46.2932C43.2151 46.37 43.0982 46.4446 42.9799 46.5171C42.6007 46.7496 42.4569 47.2417 42.6826 47.6251L43.0779 48.2968C43.4576 48.9419 43.2782 49.7551 42.877 50.3871C42.392 51.1512 42.1702 52.0678 42.2709 52.9925C42.4193 54.3555 43.2485 55.5505 44.4733 56.1667C45.698 56.783 47.1516 56.7364 48.3346 56.0433C49.5177 55.3502 50.269 54.1049 50.3301 52.7352C50.3913 51.3655 49.7544 50.0581 48.6379 49.262C47.5217 48.4662 46.0779 48.2902 44.8031 48.7945C44.8031 48.7945 44.8031 48.7945 44.8031 48.7945V48.7945ZM49.052 52.5219C49.052 53.2582 48.7594 53.9645 48.2388 54.4855C47.7179 55.0061 47.0116 55.2987 46.2752 55.2987C45.5388 55.2987 44.8326 55.0061 44.3116 54.4855C43.791 53.9646 43.4984 53.2583 43.4984 52.5219C43.4984 51.7855 43.791 51.0792 44.3116 50.5583C44.8325 50.0377 45.5388 49.7451 46.2752 49.7451C47.0116 49.7451 47.7179 50.0377 48.2388 50.5583C48.7594 51.0792 49.052 51.7855 49.052 52.5219Z" fill="#9426BA"/>
<path d="M27.7633 25.0625C27.7633 25.0625 27.7633 25.0625 27.7633 25.0625C28.1523 25.0621 28.5384 25.0048 28.9095 24.8929C29.0997 24.8356 29.3098 24.9054 29.4106 25.0766L30.7077 27.2804C30.7077 27.2805 30.7078 27.2805 30.7078 27.2804V27.2804C30.7078 27.2804 30.7078 27.2803 30.7078 27.2803C30.8234 27.2036 30.9403 27.1289 31.0586 27.0565C31.4378 26.824 31.5816 26.3318 31.3559 25.9485L30.9594 25.2748C30.5801 24.6303 30.7583 23.8181 31.1557 23.1846C31.586 22.4987 31.8042 21.6894 31.764 20.8604C31.7023 19.5922 31.0439 18.4283 29.9886 17.7225C28.9332 17.017 27.606 16.8528 26.4108 17.2804C25.2152 17.7082 24.2932 18.6768 23.9249 19.8916C23.5566 21.1064 23.7855 22.424 24.5422 23.4435C25.2989 24.4627 26.4937 25.0633 27.7633 25.0624C27.7633 25.0624 27.7633 25.0625 27.7633 25.0625V25.0625ZM27.7633 18.2748C28.4996 18.2748 29.2059 18.5674 29.7269 19.088C30.2475 19.6089 30.54 20.3152 30.54 21.0516C30.54 21.788 30.2475 22.4943 29.7269 23.0152C29.2059 23.5358 28.4997 23.8284 27.7633 23.8284C27.0269 23.8284 26.3206 23.5358 25.7997 23.0152C25.279 22.4943 24.9865 21.788 24.9865 21.0516C24.9865 20.3152 25.2791 19.609 25.7997 19.088C26.3206 18.5674 27.0269 18.2748 27.7633 18.2748Z" fill="#9426BA"/>
</svg>
