<svg width="159" height="137" viewBox="0 0 159 137" fill="none" xmlns="http://www.w3.org/2000/svg">
<path opacity="0.2" d="M142.694 81.9345L142.794 81.8811C151.452 77.1815 154.584 66.4786 149.931 57.8342C145.001 49.0951 133.823 46.0153 125.083 50.6897C121.785 52.4539 119.366 55.0106 117.807 57.9518L117.573 58.3916L117.085 58.2511L86.3603 49.4115L85.8722 49.271L85.9142 48.7762C86.1945 45.4704 85.4497 41.8626 83.7169 38.7887C78.7891 30.0458 67.6081 26.9639 58.8668 31.6393C49.9617 36.4022 46.8848 47.3194 51.7223 55.9013C53.5474 59.1396 56.1772 61.5225 59.194 63.0677L59.6451 63.2988L59.5048 63.7754L50.6711 93.7731L50.5307 94.2496L50.0247 94.2055C46.6433 93.9092 42.9601 94.6142 39.829 96.2888C30.9239 101.052 27.8469 111.969 32.6843 120.551C37.6143 129.297 48.6268 132.465 57.5345 127.7C66.4395 122.937 69.5164 112.02 64.6793 103.438C62.8539 100.2 60.2242 97.8168 57.2072 96.2717L56.758 96.0417L56.8957 95.5666L65.5585 65.6617L65.6974 65.1826L66.2058 65.2271C69.5871 65.5232 73.2705 64.8183 76.4015 63.1435C79.7001 61.3795 82.1186 58.8229 83.6783 55.8818L83.9095 55.4458L84.3945 55.581L115.196 64.1606L115.689 64.298L115.647 64.7973C115.366 68.1031 116.112 71.711 117.844 74.785C122.772 83.5276 133.953 86.6098 142.694 81.9345ZM43.0032 101.92C48.7594 98.841 55.758 100.854 58.9434 106.506C62.1288 112.157 60.1167 118.99 54.3604 122.068C48.5981 125.151 41.5075 122.959 38.4203 117.482C35.2356 111.832 37.2478 105 43.0032 101.92ZM57.458 52.8339C54.2692 47.1765 56.4623 40.2548 62.0409 37.271C67.6199 34.287 74.7909 36.2004 77.9809 41.8569C81.1663 47.5083 79.1542 54.3412 73.398 57.4199C67.6419 60.4986 60.6433 58.4852 57.458 52.8339ZM123.674 71.8845C120.485 66.227 122.679 59.3053 128.257 56.3214C133.836 53.3375 141.007 55.251 144.197 60.9074C147.383 66.5589 145.371 73.3916 139.615 76.4705C133.858 79.5491 126.86 77.5357 123.674 71.8845Z" stroke="black" stroke-opacity="0.7" stroke-width="4"/>
</svg>
