<svg width="42" height="42" viewBox="0 0 42 42" fill="none" xmlns="http://www.w3.org/2000/svg">
<ellipse cx="20.7275" cy="21.1054" rx="20.5" ry="20.3303" fill="#2E208E"/>
<path d="M21.0335 34.3727C19.6601 32.2994 18.4961 30.5729 17.5092 29.109C15.7543 26.5059 14.5592 24.7332 13.7418 23.3179C13.1154 22.2334 12.7461 21.4155 12.5271 20.6455C12.3101 19.8824 12.2275 19.1199 12.2275 18.1301C12.2275 12.8929 16.2947 8.71704 21.2275 8.71704C26.1604 8.71704 30.2275 12.8929 30.2275 18.1301C30.2275 19.1199 30.145 19.8824 29.928 20.6455C29.709 21.4155 29.3396 22.2334 28.7133 23.3179C27.8959 24.7332 26.7008 26.5059 24.9459 29.109C23.9591 30.5728 22.7952 32.2991 21.422 34.3721C21.3649 34.4574 21.2929 34.4853 21.2275 34.4853C21.1619 34.4853 21.0897 34.4573 21.0326 34.3714L20.2 34.9249L21.0335 34.3727ZM21.2275 23.4689C24.1188 23.4689 26.3942 21.0401 26.3942 18.1301C26.3942 15.2201 24.1188 12.7913 21.2275 12.7913C18.3363 12.7913 16.0609 15.2201 16.0609 18.1301C16.0609 21.0401 18.3363 23.4689 21.2275 23.4689Z" stroke="white" stroke-width="2"/>
</svg>
