<svg width="41" height="41" viewBox="0 0 41 41" fill="none" xmlns="http://www.w3.org/2000/svg">
<ellipse cx="20.5" cy="20.3301" rx="20.5" ry="20.3303" fill="#2E208E"/>
<path d="M20.806 33.5974C19.4325 31.5241 18.2686 29.7975 17.2817 28.3336C15.5267 25.7305 14.3316 23.9578 13.5142 22.5425C12.8879 21.458 12.5186 20.6401 12.2996 19.8701C12.0826 19.107 12 18.3445 12 17.3547C12 12.1175 16.0672 7.94165 21 7.94165C25.9328 7.94165 30 12.1175 30 17.3547C30 18.3445 29.9174 19.107 29.7004 19.8701C29.4814 20.6401 29.1121 21.458 28.4858 22.5425C27.6684 23.9578 26.4733 25.7305 24.7183 28.3336C23.7315 29.7974 22.5677 31.5237 21.1944 33.5968C21.1374 33.6821 21.0654 33.7099 21 33.7099C20.9344 33.7099 20.8622 33.6819 20.8051 33.596L19.9724 34.1495L20.806 33.5974ZM21 22.6935C23.8912 22.6935 26.1667 20.2647 26.1667 17.3547C26.1667 14.4447 23.8912 12.0159 21 12.0159C18.1088 12.0159 15.8333 14.4447 15.8333 17.3547C15.8333 20.2647 18.1088 22.6935 21 22.6935Z" stroke="white" stroke-width="2"/>
</svg>
