<svg width="74" height="73" viewBox="0 0 74 73" fill="none" xmlns="http://www.w3.org/2000/svg">
<circle cx="36.8825" cy="36.3986" r="36.1906" fill="#E6C34B"/>
<path d="M57.3205 26.0325C57.3029 25.5455 57.1029 25.0873 56.7593 24.7437C56.391 24.3751 55.8846 24.1682 55.3451 24.1825C53.4738 24.244 51.9971 25.8182 52.0542 27.6926L52.145 30.4921C52.1521 30.7115 52.129 30.9308 52.0763 31.1439L51.6302 32.9493C51.6281 32.9575 51.6209 32.9619 51.6124 32.9619V32.9619C50.9481 32.9619 50.3256 33.2194 49.8572 33.6868L47.2419 36.3044C46.6792 36.8676 45.9559 37.2427 45.1715 37.3782V37.3782C44.392 37.5109 43.6548 37.8915 43.0959 38.4508L40.6983 40.8484C39.9924 41.5546 39.5908 42.4918 39.5676 43.4885L39.5573 43.9464C39.51 46.0543 37.5551 48.0128 37.532 50.1211V50.1211L37.4767 55.3239C37.4601 56.8869 38.7183 58.1717 40.2812 58.189L48.9128 58.2811H48.9437C49.6873 58.2811 50.3893 57.9937 50.9238 57.4704C51.4661 56.9394 51.7689 56.2315 51.7775 55.477L51.8327 50.2746C51.8407 49.5197 51.5526 48.8051 51.0223 48.2635C50.7516 47.9868 50.4338 47.7751 50.0879 47.6308C50.0223 47.6034 49.9817 47.5358 49.992 47.4654V47.4654C50.1237 46.5812 50.5269 45.7804 51.1577 45.1499L55.2067 41.1002C56.2417 40.0659 56.8947 38.699 57.0458 37.2528L57.4766 33.1701C57.5053 33.025 57.5215 32.8753 57.5242 32.72L57.5255 32.7047C57.5265 32.6967 57.5252 32.6884 57.5255 32.6797C57.5255 32.6548 57.5292 32.6315 57.5289 32.6062L57.3205 26.0325ZM50.4028 50.2588C50.4028 50.2588 50.4027 50.2588 50.4027 50.2589L50.3475 55.4612C50.3432 55.8338 50.1932 56.1842 49.9237 56.4476C49.6539 56.7108 49.2976 56.8498 48.928 56.8498L40.2964 56.7577C39.5223 56.749 38.8992 56.113 38.9075 55.3388L38.9627 50.136C38.9713 49.3672 39.5995 48.7471 40.3662 48.7471H40.3815L49.014 48.8396C49.3866 48.8432 49.7369 48.9939 49.9997 49.2631C50.2641 49.5322 50.4072 49.8858 50.4029 50.2587C50.4029 50.2587 50.4028 50.2587 50.4028 50.2588V50.2588ZM54.1963 40.0874L50.1472 44.1372C49.2982 44.9862 48.7556 46.064 48.5776 47.2557V47.2557C48.5653 47.3406 48.4919 47.4034 48.4061 47.4024L44.716 47.3628C42.6233 47.3403 40.9522 45.6126 40.9992 43.5203V43.5203C41.0135 42.8942 41.2667 42.3041 41.7108 41.8593L44.1084 39.4617C44.4594 39.1107 44.9225 38.8712 45.4139 38.7877L46.8451 38.5401C46.8956 38.5315 46.9439 38.5172 46.9891 38.4986C46.9924 38.4972 46.9958 38.4949 46.9991 38.4932C47.0849 38.4573 47.1611 38.4061 47.2257 38.3425C47.2267 38.3415 47.228 38.3415 47.229 38.3405L50.8705 34.6974C51.2644 34.3025 51.9627 34.3035 52.3562 34.6974C52.5532 34.895 52.662 35.1585 52.662 35.4406C52.662 35.7224 52.5532 35.9862 52.3562 36.1838L48.1731 40.3669C47.8937 40.6464 47.8937 41.0995 48.1731 41.3786C48.3122 41.5183 48.4955 41.5878 48.6785 41.5878C48.8618 41.5878 49.0448 41.5183 49.1845 41.3786L53.3676 37.1955C53.835 36.7281 54.0925 36.1046 54.0925 35.4409C54.0925 34.7769 53.8353 34.1538 53.3676 33.6863V33.6863C53.1637 33.4825 53.0436 33.196 53.1127 32.9161L53.5688 31.0692C53.5708 31.0612 53.5708 31.0535 53.5722 31.0452C53.5775 31.0213 53.5801 30.997 53.5828 30.9723C53.5858 30.9471 53.5881 30.9221 53.5881 30.8975C53.5881 30.8895 53.5901 30.8822 53.5895 30.8742L53.4847 27.6462C53.4524 26.5597 54.3084 25.6466 55.3852 25.6106C55.523 25.6126 55.6527 25.6582 55.7478 25.7537C55.8104 25.8155 55.8852 25.923 55.8916 26.08L56.0995 32.6012L56.0509 33.0633C56.0496 33.0786 56.0466 33.0942 56.0463 33.1095L55.6251 37.102C55.5067 38.2235 54.9993 39.2836 54.1963 40.0874Z" fill="#9426BA"/>
<path d="M49.9148 50.9146C49.9148 51.5906 49.3669 52.1388 48.6906 52.1388C48.0146 52.1388 47.4663 51.5906 47.4663 50.9146C47.4663 50.2382 48.0146 49.6903 48.6906 49.6903C49.3669 49.6903 49.9148 50.2382 49.9148 50.9146Z" fill="#9426BA"/>
<path d="M35.8381 50.1205C35.8172 48.013 33.8616 46.0552 33.8143 43.9481L33.804 43.4881C33.7807 42.4925 33.3792 41.5546 32.6733 40.8483L30.2757 38.4508C29.7168 37.8919 28.9792 37.5106 28.2024 37.3785V37.3785C27.4164 37.2426 26.6917 36.8666 26.1279 36.3024L23.5139 33.6861C23.0465 33.2194 22.4237 32.9616 21.7593 32.9616V32.9616C21.7509 32.9616 21.7436 32.9571 21.7416 32.9489L21.2954 31.1435C21.2428 30.9305 21.2197 30.7112 21.2268 30.4918L21.3175 27.6906C21.3744 25.8176 19.8977 24.2434 18.0187 24.1819C17.515 24.1632 16.9814 24.3745 16.6131 24.7431C16.2688 25.0871 16.0689 25.5452 16.0512 26.0356L15.8413 32.614C15.841 32.6416 15.8447 32.6682 15.845 32.6961C15.8453 32.6991 15.8447 32.7014 15.845 32.7041L15.8453 32.7094C15.8477 32.8675 15.8643 33.0208 15.8939 33.1712L16.3247 37.2512C16.4757 38.6983 17.1291 40.0646 18.1638 41.0989L22.2128 45.149C22.8433 45.7794 23.2468 46.5799 23.3779 47.4625V47.4625C23.3884 47.5342 23.347 47.6031 23.2801 47.6311C22.9353 47.7754 22.618 47.9868 22.3479 48.2629C21.8176 48.8051 21.5295 49.5198 21.5375 50.2739L21.5927 55.4763C21.6014 56.2312 21.9041 56.9392 22.4463 57.4697C22.9813 57.9934 23.6835 58.2805 24.4264 58.2805H24.457L33.0895 58.1883C34.6517 58.171 35.9099 56.8862 35.8933 55.3233L35.8381 50.1205V50.1205ZM23.2244 44.1379L19.1754 40.0878C18.3716 39.2847 17.8646 38.2245 17.7478 37.1023L17.3267 33.1108C17.3263 33.0955 17.3233 33.0802 17.322 33.0649L17.2728 32.6009L17.4807 26.0846C17.487 25.925 17.5619 25.8175 17.6248 25.755C17.7192 25.6601 17.849 25.6112 17.9787 25.6122C19.0636 25.6482 19.9199 26.5614 19.8873 27.6463L19.7825 30.8756C19.7822 30.8836 19.7838 30.8909 19.7838 30.8989C19.7838 30.9238 19.7861 30.9484 19.7891 30.9737C19.7915 30.9987 19.7945 31.0229 19.7998 31.0466C19.8018 31.0546 19.8011 31.0622 19.8031 31.0705L20.2593 32.9175C20.3284 33.1973 20.2082 33.4839 20.0044 33.6877V33.6877C19.537 34.1551 19.2795 34.7786 19.2795 35.4423C19.2795 36.1063 19.5366 36.7294 20.0044 37.1969L24.1875 41.38C24.3269 41.519 24.5102 41.5885 24.6928 41.5885C24.8755 41.5885 25.0591 41.519 25.1988 41.3793C25.4783 41.1002 25.4783 40.6471 25.1988 40.3676L21.0157 36.1845C20.8188 35.9876 20.71 35.7237 20.71 35.442C20.71 35.1602 20.8188 34.896 21.0157 34.6988C21.4096 34.3052 22.1076 34.3042 22.5014 34.6988L26.143 38.3426C26.144 38.3436 26.1453 38.3436 26.1463 38.3446C26.2102 38.4081 26.287 38.4594 26.3729 38.4953C26.3762 38.4966 26.3792 38.4989 26.3828 38.5006C26.4287 38.5186 26.4767 38.5329 26.5269 38.5422L27.9604 38.79C28.4491 38.8729 28.9122 39.1121 29.2635 39.4634L31.6611 41.861C32.1056 42.3061 32.3584 42.8953 32.3727 43.5217V43.5217C32.4198 45.6144 30.7483 47.3423 28.6552 47.3648L24.9682 47.4045C24.881 47.4054 24.8066 47.3417 24.794 47.2554V47.2554C24.616 46.0641 24.0738 44.9861 23.2244 44.1379ZM33.0756 56.7578L24.4432 56.8502C24.0606 56.8502 23.7176 56.7109 23.4484 56.448C23.1793 56.1842 23.0286 55.8342 23.0246 55.4616L22.969 50.2592C22.9647 49.8866 23.1078 49.5333 23.3716 49.2638C23.6347 48.9946 23.985 48.8446 24.3573 48.8403L32.9897 48.7478H33.005C33.7718 48.7478 34.4006 49.3679 34.4085 50.1368L34.4638 55.3395C34.4724 56.113 33.8496 56.7498 33.0762 56.7577L33.0756 56.7578Z" fill="#9426BA"/>
<path d="M25.9056 50.9146C25.9056 51.5906 25.3573 52.1388 24.6813 52.1388C24.005 52.1388 23.457 51.5906 23.457 50.9146C23.457 50.2382 24.005 49.6903 24.6813 49.6903C25.3573 49.6903 25.9056 50.2382 25.9056 50.9146Z" fill="#9426BA"/>
<path d="M27.0618 28.9385C27.0618 28.9385 27.0618 28.9385 27.0619 28.9385H27.5403C28.0533 28.9385 28.4973 29.2802 28.6911 29.7552C28.6963 29.7679 28.7015 29.7805 28.7067 29.7931C28.9121 30.2895 28.8368 30.8712 28.457 31.2511L28.146 31.562C27.5588 32.1492 27.5588 33.105 28.146 33.6919L29.4823 35.0282C29.7757 35.3216 30.1613 35.468 30.5469 35.468C30.9331 35.468 31.3187 35.321 31.6118 35.0279L31.9227 34.7169C32.3026 34.3371 32.8827 34.2609 33.3792 34.4663V34.4663C33.8756 34.6717 34.2353 35.1368 34.2353 35.674V36.112C34.2353 36.9434 34.912 37.6201 35.7434 37.6201H37.6266C38.458 37.6201 39.1347 36.9437 39.1347 36.112V35.6739C39.1347 35.1367 39.494 34.6715 39.9904 34.4662V34.4662C40.4869 34.2608 41.0674 34.337 41.4473 34.717L41.7582 35.0279C42.0516 35.3216 42.4372 35.468 42.8228 35.468C43.208 35.468 43.5946 35.321 43.8884 35.0279L45.2245 33.6918C45.8116 33.1046 45.8116 32.1488 45.2245 31.5619L44.9136 31.2511C44.5336 30.8711 44.4574 30.2908 44.6629 29.7944V29.7944C44.8685 29.2979 45.3337 28.9384 45.871 28.9384H46.3086C47.14 28.9384 47.8163 28.2621 47.8163 27.4304V25.5464C47.8163 24.7151 47.14 24.0384 46.3086 24.0384H45.8711C45.3338 24.0384 44.8688 23.679 44.6633 23.1826V23.1826C44.4578 22.6863 44.5336 22.1057 44.9135 21.7258L45.2252 21.4142C45.8117 20.827 45.8117 19.8712 45.2248 19.2843L43.8887 17.948C43.3192 17.3795 42.3255 17.3801 41.7582 17.948L41.4471 18.2591C41.0673 18.6389 40.4872 18.7151 39.9909 18.5097V18.5097C39.4944 18.3042 39.1347 17.839 39.1347 17.3016V16.8655C39.135 16.0338 38.4584 15.3574 37.627 15.3574H35.7437C34.9124 15.3574 34.2357 16.0338 34.2357 16.8655V17.3031C34.2357 17.8405 33.8761 18.3057 33.3795 18.5112V18.5112C32.8833 18.7167 32.3031 18.6406 31.9234 18.2609L31.6125 17.95C31.0446 17.3814 30.0509 17.3804 29.4816 17.95L28.1456 19.286C27.5584 19.8732 27.5584 20.8283 28.1456 21.4159L28.4565 21.7268C28.8364 22.1067 28.9126 22.687 28.7071 23.1835V23.1835C28.5016 23.6799 28.0363 24.0394 27.499 24.0394H27.0614C26.23 24.0394 25.5537 24.7157 25.5537 25.5474V27.4314C25.554 28.2621 26.2304 28.9384 27.0617 28.9384C27.0617 28.9384 27.0618 28.9384 27.0618 28.9385V28.9385ZM26.985 25.5465C26.985 25.5026 27.0179 25.4693 27.0618 25.4693H28.9528H28.9548C28.9561 25.4693 28.9571 25.469 28.9584 25.469C29.0323 25.4687 29.1025 25.4543 29.1697 25.4327C29.181 25.4291 29.1926 25.4264 29.2039 25.4221C29.2691 25.3978 29.3294 25.3639 29.3836 25.3223C29.3936 25.3146 29.4025 25.3066 29.4122 25.2983C29.4661 25.2531 29.5143 25.2015 29.5529 25.1423C29.5572 25.1356 29.5602 25.1283 29.5642 25.1213C29.6018 25.0588 29.6311 24.9906 29.6481 24.9171C29.6491 24.9137 29.6511 24.9114 29.6517 24.9081C29.8314 24.0934 30.1481 23.3289 30.5925 22.6349C30.6145 22.6007 30.6311 22.5647 30.6464 22.5285C30.6488 22.5232 30.6521 22.5185 30.6541 22.5132C30.687 22.431 30.7017 22.3458 30.7033 22.2603C30.7033 22.2547 30.7047 22.2493 30.7047 22.244C30.7043 22.1579 30.6867 22.0724 30.6554 21.9919C30.6534 21.9865 30.6524 21.9809 30.6501 21.9756C30.6158 21.8921 30.5646 21.8149 30.4994 21.7487C30.4981 21.7473 30.4974 21.7453 30.4961 21.744L30.4904 21.7384C30.4901 21.738 30.4894 21.7374 30.4891 21.737L29.1567 20.404C29.1277 20.3754 29.1277 20.3252 29.1563 20.2966L30.4924 18.9605C30.5177 18.9352 30.5746 18.9352 30.5999 18.9605L31.9406 20.3012C31.9435 20.3041 31.9472 20.3045 31.9502 20.3075C32.0114 20.3667 32.0813 20.4109 32.1568 20.4449C32.1741 20.4525 32.1901 20.4582 32.2077 20.4645C32.2845 20.4918 32.364 20.5107 32.4456 20.5107H32.4466H32.4469C32.5274 20.5107 32.6076 20.4921 32.6858 20.4642C32.7087 20.4562 32.729 20.4452 32.7516 20.4346C32.7782 20.4216 32.8069 20.4146 32.8328 20.398C33.5261 19.9535 34.2909 19.6368 35.1054 19.4571C35.122 19.4535 35.137 19.4462 35.1526 19.4415C35.1809 19.4329 35.2095 19.4259 35.2361 19.4139C35.2571 19.4049 35.276 19.3923 35.2963 19.3816C35.317 19.3703 35.3379 19.36 35.3569 19.3467C35.3775 19.3324 35.3955 19.3151 35.4144 19.2991C35.4301 19.2851 35.4474 19.2728 35.4617 19.2582C35.479 19.2406 35.4926 19.2209 35.5079 19.2023C35.5219 19.185 35.5362 19.169 35.5478 19.1507C35.5608 19.1311 35.5701 19.1102 35.5811 19.0892C35.5917 19.0692 35.6034 19.0499 35.612 19.0286C35.6217 19.0054 35.6277 18.9801 35.635 18.9558C35.6407 18.9358 35.648 18.9165 35.6523 18.8962C35.6586 18.8653 35.6599 18.8334 35.6619 18.8014C35.6629 18.7871 35.6663 18.7731 35.6663 18.7585V18.7499V18.7469L35.6666 16.8655C35.6659 16.8213 35.6995 16.7884 35.7434 16.7884H37.6267C37.671 16.7884 37.7039 16.8213 37.7039 16.8655V18.7472V18.7502V18.7588C37.7039 18.7732 37.7072 18.7871 37.7082 18.8014C37.7102 18.8334 37.7116 18.866 37.7179 18.8969C37.7215 18.9169 37.7289 18.9362 37.7345 18.9555C37.7418 18.9804 37.7478 19.0057 37.7575 19.0293C37.7661 19.0503 37.7774 19.0692 37.7881 19.0895C37.799 19.1105 37.8087 19.1321 37.8213 19.1514C37.8333 19.1694 37.8476 19.1853 37.8613 19.2023C37.8766 19.2213 37.8909 19.2416 37.9078 19.2585C37.9225 19.2732 37.9394 19.2858 37.9551 19.2995C37.974 19.3158 37.9923 19.3327 38.0133 19.347C38.0323 19.3603 38.0532 19.3703 38.0738 19.3813C38.0938 19.3923 38.1131 19.4046 38.1344 19.4142C38.161 19.4255 38.1893 19.4332 38.2172 19.4415C38.2335 19.4462 38.2482 19.4535 38.2648 19.4571C39.0795 19.6368 39.844 19.9535 40.5374 20.398C40.563 20.4143 40.5913 20.4219 40.6185 20.4346C40.6405 20.4452 40.6615 20.4562 40.6844 20.4642C40.7626 20.4924 40.8428 20.5107 40.9233 20.5107H40.9236H40.9246C41.0061 20.5107 41.086 20.4918 41.1625 20.4645C41.1801 20.4582 41.1964 20.4525 41.2134 20.4449C41.2889 20.4116 41.3588 20.367 41.42 20.3075C41.423 20.3045 41.4266 20.3042 41.4296 20.3012L42.7706 18.9605C42.7949 18.9355 42.8521 18.9355 42.8774 18.9605L44.2135 20.2966C44.2421 20.3252 44.2421 20.3754 44.2135 20.4033L42.8805 21.7364C42.8802 21.7367 42.8795 21.7374 42.8792 21.7377L42.8735 21.7434C42.8722 21.7447 42.8715 21.7467 42.8702 21.748C42.805 21.8142 42.7537 21.8917 42.7195 21.9749C42.7172 21.9802 42.7162 21.9859 42.7142 21.9912C42.6832 22.0717 42.6656 22.1565 42.6649 22.2434C42.6649 22.249 42.6659 22.2543 42.6663 22.2597C42.6676 22.3452 42.6829 22.4303 42.7155 22.5125C42.7175 22.5178 42.7208 22.5225 42.7231 22.5278C42.7384 22.5641 42.7551 22.5997 42.777 22.6343C43.2215 23.3282 43.5382 24.0927 43.7179 24.9074C43.7189 24.9108 43.7209 24.9131 43.7215 24.9171C43.7388 24.9899 43.7678 25.0581 43.8054 25.1207C43.8097 25.128 43.8127 25.135 43.8167 25.1416C43.8549 25.2009 43.9028 25.2518 43.9567 25.297C43.9667 25.305 43.9757 25.3136 43.9863 25.3213C44.0406 25.3629 44.1008 25.3961 44.1656 25.4204C44.177 25.4247 44.1886 25.4277 44.2006 25.4314C44.2678 25.453 44.3373 25.4673 44.4118 25.4677C44.4132 25.4677 44.4142 25.468 44.4155 25.468H44.4175H46.3084C46.3523 25.468 46.3853 25.5009 46.3853 25.5452V27.4291C46.3853 27.473 46.3523 27.5063 46.3084 27.5063H44.4278H44.4215H44.4152C44.4055 27.5063 44.3965 27.5086 44.3875 27.5093C44.3493 27.5106 44.3114 27.513 44.2744 27.5206C44.2645 27.5226 44.2558 27.5263 44.2458 27.5286C44.2099 27.5373 44.1743 27.5472 44.141 27.5609C44.1304 27.5652 44.1214 27.5715 44.1111 27.5762C44.0795 27.5908 44.0485 27.6068 44.0196 27.6257C44.009 27.6331 44 27.6414 43.99 27.6487C43.9634 27.6683 43.9371 27.6883 43.9138 27.7116C43.9028 27.7222 43.8942 27.7345 43.8842 27.7458C43.8642 27.7681 43.8436 27.7908 43.8266 27.816C43.8147 27.8333 43.8057 27.8526 43.795 27.8713C43.7831 27.8929 43.7698 27.9132 43.7598 27.9361C43.7485 27.9618 43.7411 27.9897 43.7332 28.0166C43.7278 28.0333 43.7209 28.0489 43.7169 28.0669C43.5372 28.8816 43.2205 29.6461 42.776 30.34C42.7541 30.3743 42.7374 30.4102 42.7221 30.4465C42.7198 30.4518 42.7165 30.4565 42.7145 30.4618C42.6816 30.544 42.6669 30.6291 42.6653 30.7146C42.6653 30.7203 42.6639 30.7256 42.6639 30.7309C42.6643 30.8171 42.6819 30.9026 42.7132 30.9831C42.7152 30.9884 42.7162 30.9941 42.7185 30.9994C42.7527 31.0829 42.804 31.1601 42.8692 31.2263C42.8705 31.2276 42.8712 31.2296 42.8725 31.231L42.8782 31.2366C42.8785 31.237 42.8792 31.2376 42.8795 31.238L44.2125 32.571C44.2411 32.5996 44.2411 32.6498 44.2125 32.6778L42.8771 34.0132C42.8482 34.0421 42.7983 34.0421 42.7693 34.0135L41.4402 32.6844C41.438 32.6822 41.4358 32.68 41.4336 32.6777V32.6777L41.4293 32.6734V32.6734C41.427 32.6712 41.4244 32.6693 41.4221 32.6671C41.3561 32.6028 41.2801 32.5531 41.198 32.5194C41.1917 32.5171 41.1857 32.5161 41.1801 32.5137C41.1006 32.4831 41.0161 32.4662 40.9306 32.4652C40.9239 32.4652 40.9176 32.4665 40.9109 32.4665C40.8264 32.4678 40.7416 32.4828 40.6604 32.5151C40.6551 32.5174 40.6504 32.5207 40.6448 32.5227C40.6085 32.538 40.5729 32.5547 40.5383 32.5766C39.845 33.0207 39.0799 33.3374 38.2648 33.5174C38.2502 33.5208 38.2372 33.5271 38.2229 33.5314C38.193 33.5401 38.1624 33.548 38.1341 33.5604C38.1141 33.569 38.0958 33.581 38.0769 33.5913C38.0552 33.6033 38.0336 33.6136 38.0133 33.6276C37.9934 33.6415 37.9761 33.6575 37.9581 33.6735C37.9415 33.6878 37.9238 33.7007 37.9085 33.7164C37.8922 33.733 37.8786 33.7523 37.8636 33.7703C37.8493 33.7879 37.8347 33.8045 37.822 33.8238C37.8097 33.8428 37.8001 33.8634 37.7898 33.8841C37.7788 33.9047 37.7668 33.924 37.7582 33.9459C37.7485 33.9692 37.7429 33.9942 37.7359 34.0185C37.7302 34.0384 37.7226 34.0577 37.7186 34.0787C37.7122 34.1096 37.7109 34.1415 37.7089 34.1735C37.7079 34.1878 37.7046 34.2018 37.7046 34.2164V34.225V34.228V36.1097C37.7046 36.1536 37.6717 36.1869 37.6274 36.1869H35.7441C35.6999 36.1869 35.667 36.1539 35.667 36.1097V34.228V34.225V34.2164C35.667 34.2018 35.6636 34.1878 35.6626 34.1732C35.6606 34.1415 35.6593 34.1096 35.653 34.0793C35.6487 34.0584 35.6417 34.0387 35.6354 34.0181C35.628 33.9942 35.6224 33.9695 35.6131 33.9466C35.6041 33.9246 35.5921 33.905 35.5811 33.8841C35.5705 33.8641 35.5612 33.8435 35.5489 33.8245C35.5365 33.8055 35.5212 33.7886 35.5069 33.7706C35.4923 33.7526 35.4787 33.7333 35.4627 33.7167C35.4474 33.7011 35.4298 33.6878 35.4125 33.6735C35.3945 33.6582 35.3772 33.6415 35.3572 33.6282C35.3373 33.6142 35.3147 33.6033 35.2934 33.5916C35.2744 33.581 35.2568 33.5697 35.2365 33.5607C35.2079 33.5484 35.1773 33.5401 35.1473 33.5311C35.133 33.5268 35.12 33.5204 35.1054 33.5171C34.2903 33.3368 33.5251 33.0201 32.8319 32.5763C32.7976 32.5543 32.7614 32.537 32.7244 32.522C32.7198 32.5201 32.7155 32.5167 32.7105 32.5147C32.6283 32.4818 32.5425 32.4665 32.4573 32.4655C32.4516 32.4655 32.4463 32.4642 32.441 32.4642C32.3552 32.4652 32.2703 32.4821 32.1901 32.5127C32.1838 32.5151 32.1782 32.5161 32.1725 32.5184C32.089 32.5527 32.0122 32.6039 31.9456 32.6691C31.9443 32.6704 31.9423 32.6711 31.941 32.6724L31.9356 32.6777V32.6777C31.9343 32.6791 31.933 32.6804 31.9316 32.6817L30.6006 34.0128C30.5717 34.0414 30.5225 34.0414 30.4932 34.0128L29.1571 32.6767C29.1285 32.6481 29.1285 32.5978 29.1571 32.5699L30.4901 31.2369C30.4904 31.2365 30.4911 31.2359 30.4914 31.2355L30.4971 31.2299C30.4984 31.2285 30.4991 31.2266 30.5004 31.2252C30.5656 31.159 30.6169 31.0815 30.6511 30.9983C30.6535 30.993 30.6545 30.9874 30.6565 30.982C30.6874 30.9015 30.705 30.8167 30.7057 30.7299C30.7057 30.7242 30.7047 30.7189 30.7044 30.7136C30.703 30.6281 30.6877 30.5429 30.6551 30.4607C30.6531 30.4554 30.6498 30.4507 30.6475 30.4454C30.6322 30.4092 30.6155 30.3736 30.5936 30.339C30.1491 29.645 29.8324 28.8805 29.6527 28.0658C29.6484 28.0472 29.6408 28.0305 29.6351 28.0122C29.6271 27.9866 29.6208 27.9603 29.6098 27.9361C29.5985 27.9088 29.5825 27.8845 29.5682 27.8592C29.5603 27.8449 29.5536 27.8303 29.544 27.8163C29.523 27.7857 29.499 27.7581 29.4738 27.7315C29.4681 27.7251 29.4631 27.7181 29.4571 27.7125C29.4289 27.6842 29.3979 27.6599 29.366 27.637C29.3613 27.6336 29.357 27.629 29.3517 27.6257C29.3184 27.6034 29.2825 27.5847 29.2452 27.5681C29.2399 27.5658 29.2352 27.5625 29.2299 27.5605C29.1927 27.5452 29.1541 27.5338 29.1151 27.5245C29.1085 27.5232 29.1022 27.5202 29.0955 27.5189C29.0579 27.5112 29.0187 27.5082 28.9791 27.5069C28.9704 27.5066 28.9624 27.5046 28.9535 27.5046H28.9478H28.9415H27.0605C27.0166 27.5046 26.9837 27.4716 26.9837 27.4274L26.985 25.5465Z" fill="#9426BA"/>
<path d="M36.6858 29.5891C38.3951 29.5891 39.7857 28.1986 39.7857 26.4893C39.7857 24.78 38.3951 23.3894 36.6858 23.3894C34.9765 23.3894 33.5859 24.78 33.5859 26.4893C33.5859 28.1986 34.9765 29.5891 36.6858 29.5891ZM36.6858 24.8199C37.6064 24.8199 38.3552 25.5687 38.3552 26.4893C38.3552 27.4098 37.6064 28.1587 36.6858 28.1587C35.7652 28.1587 35.0164 27.4098 35.0164 26.4893C35.0164 25.5687 35.7652 24.8199 36.6858 24.8199Z" fill="#9426BA"/>
<path d="M36.6857 32.4505C39.9733 32.4505 42.6473 29.7765 42.6473 26.4889C42.6473 23.2013 39.9733 20.5273 36.6857 20.5273C33.3982 20.5273 30.7241 23.2013 30.7241 26.4889C30.7241 29.7765 33.3982 32.4505 36.6857 32.4505ZM36.6857 21.9581C39.1838 21.9581 41.2165 23.9907 41.2165 26.4888C41.2165 28.9869 39.1838 31.0196 36.6857 31.0196C34.1876 31.0196 32.155 28.9869 32.155 26.4888C32.155 23.9907 34.1876 21.9581 36.6857 21.9581Z" fill="#9426BA"/>
</svg>
