<svg width="74" height="73" viewBox="0 0 74 73" fill="none" xmlns="http://www.w3.org/2000/svg">
<circle cx="37.1262" cy="36.3986" r="36.1906" fill="#E6C34B"/>
<path d="M43.7499 13.2023L40.2359 19.3295C39.8307 20.0361 40.3407 20.9166 41.1552 20.9166V20.9166C43.1399 20.9166 44.77 22.5578 44.77 24.5561V33.3106C44.77 34.1987 45.4393 34.9441 46.3223 35.0393V35.0393C46.6773 35.095 46.9434 35.4077 46.9434 35.776V35.776C46.9434 36.4709 47.4218 37.0668 48.0781 37.2951C48.5368 37.4546 48.987 37.6412 49.4247 37.8543C50.046 38.1568 50.8028 38.0754 51.2898 37.5851V37.5851C51.5447 37.3285 51.955 37.2837 52.2543 37.5068C52.8862 37.9647 53.474 38.467 54.0174 39.014C54.5387 39.5389 55.0263 40.1195 55.4812 40.7331C55.736 41.0345 55.7252 41.4698 55.4367 41.7603V41.7603C54.9483 42.2521 54.8672 43.0095 55.1682 43.6339C55.3831 44.0798 55.571 44.5387 55.7311 45.008C55.9536 45.6603 56.5438 46.1365 57.233 46.1365V46.1365C57.5989 46.1365 57.9094 46.4044 57.9759 46.7727C58.2308 48.3243 58.2308 49.8538 57.9759 51.4058C57.9206 51.7632 57.6101 52.042 57.2442 52.042V52.042C56.5548 52.042 55.9638 52.5177 55.7408 53.1701C55.5809 53.6382 55.3932 54.0978 55.1786 54.5442C54.8783 55.1689 54.9595 55.9265 55.4479 56.4182V56.4182C55.7028 56.6748 55.7472 57.0879 55.5256 57.3893C54.5611 58.74 53.5963 59.678 52.288 60.6604C51.9887 60.8835 51.5671 60.8613 51.3011 60.5934V60.5934C50.814 60.1031 50.0574 60.0217 49.4364 60.3251C49.0018 60.5374 48.5553 60.7235 48.0999 60.8826C47.4441 61.1117 46.9658 61.7073 46.9658 62.402V62.402C46.9658 62.7704 46.711 63.083 46.3448 63.1387C44.7924 63.3953 43.2846 63.3953 41.7319 63.1387C41.3769 63.083 41.1108 62.7704 41.1108 62.402V62.402C41.1108 61.7073 40.6326 61.1117 39.9764 60.8835C39.5177 60.724 39.0673 60.5373 38.6295 60.3241C38.0082 60.0216 37.2514 60.1031 36.7644 60.5934V60.5934C36.5095 60.85 36.0992 60.8948 35.7999 60.6717C34.4583 59.7006 33.5379 58.7291 32.5511 57.4118C32.3182 57.1105 32.3403 56.6861 32.6176 56.4182V56.4182C33.106 55.9264 33.1871 55.1689 32.8859 54.5447C32.6737 54.1048 32.4879 53.6527 32.3291 53.1917C32.1025 52.5335 31.5061 52.0533 30.81 52.0533V52.0533C30.4442 52.0533 30.1337 51.7854 30.0671 51.417V51.417C29.9227 50.5251 29.1871 49.8093 28.2835 49.8093H19.6997C17.715 49.8093 16.085 48.1681 16.085 46.1698V24.5564C16.085 22.5581 17.715 20.9169 19.6997 20.9169V20.9169C27.1475 20.9169 34.0259 16.9315 37.73 10.4701L38.0835 9.85345C38.2166 9.61905 38.4494 9.48511 38.6934 9.47382C39.7801 9.41814 40.8223 9.66344 41.687 10.177C42.563 10.6906 43.2946 11.4608 43.7939 12.4431C43.9157 12.7001 43.8941 12.9901 43.7499 13.2023ZM38.4609 22.4502C38.4609 22.443 38.4515 22.4405 38.4479 22.4467L36.3065 26.1799C35.8687 26.943 36.4196 27.8942 37.2994 27.8942H38.816C39.2263 27.8942 39.5701 28.229 39.5701 28.6534C39.5701 29.0665 39.2375 29.4127 38.816 29.4127H35.5129C34.8607 29.4127 34.2583 29.7618 33.9341 30.3277V30.3277C33.2392 31.5408 34.1149 33.0518 35.5129 33.0518H38.8155C39.2258 33.0518 39.5696 33.3867 39.5696 33.8111C39.5696 34.2242 39.237 34.5704 38.8155 34.5704H35.6376C33.0839 34.5704 30.7256 35.9378 29.4571 38.1541V38.1541V38.1541C29.4491 38.17 29.4675 38.2098 29.4853 38.2098H34.4977C34.7727 38.2098 35.0376 38.1112 35.253 37.9403C35.412 37.8142 35.5741 37.6919 35.7441 37.5736C36.0434 37.317 36.487 37.3279 36.7643 37.6183V37.6183C37.2513 38.1087 38.008 38.1901 38.6289 37.8867C39.0635 37.6743 39.51 37.4882 39.9654 37.3291C40.6213 37.1 41.0995 36.5044 41.0995 35.8097V35.8097C41.0995 35.4414 41.3544 35.1287 41.7206 35.073V35.073C42.6036 34.9778 43.2729 34.2324 43.2729 33.3442V24.5898C43.2729 23.4173 42.3193 22.4575 41.1552 22.4575L38.4678 22.4571C38.464 22.4571 38.4609 22.454 38.4609 22.4502V22.4502ZM27.9055 39.6998C27.9055 39.7039 27.9038 39.7079 27.9008 39.7108L27.3249 40.2795C26.0567 41.5318 26.9434 43.6918 28.7257 43.6918V43.6918C29.136 43.6918 29.4798 44.0267 29.4798 44.4511C29.4798 44.8642 29.1472 45.2104 28.7257 45.2104L22.0508 45.21C21.5739 45.21 21.1748 44.7634 21.3523 44.1942L22.3849 40.1362C22.4404 39.9182 22.2757 39.7063 22.0507 39.7063V39.7063C21.6404 39.7063 21.2966 39.3714 21.2966 38.947C21.2966 38.5339 21.6292 38.1877 22.0507 38.1877V38.1877C22.5399 38.1877 22.9669 37.8561 23.0879 37.3821L23.6916 35.017V35.017C23.7447 34.7854 23.637 34.5482 23.3994 34.5482H22.0507C21.6404 34.5482 21.2966 34.2134 21.2966 33.789C21.2966 33.3758 21.6292 33.0297 22.0507 33.0297H23.7459C24.3983 33.0297 25.0007 32.6805 25.3249 32.1144V32.1144C26.0197 30.9013 25.1438 29.3903 23.7458 29.3904L22.0507 29.3906C21.6404 29.3906 21.2966 29.0557 21.2966 28.6313C21.2966 28.2182 21.6292 27.872 22.0507 27.872H26.1656C27.1455 27.872 28.0506 27.3478 28.5381 26.4978V26.4978C29.5841 24.6744 28.2677 22.4017 26.1656 22.4017H19.7114C18.547 22.4017 17.5937 23.3619 17.5937 24.534V46.1365C17.5937 47.3089 18.5473 48.2687 19.7114 48.2687H28.3854C29.2544 48.2687 29.9842 47.6145 30.0788 46.7506V46.7506C30.1341 46.3932 30.4447 46.1253 30.8105 46.1253V46.1253C31.5 46.1253 32.091 45.6496 32.3139 44.9972C32.4739 44.5291 32.6616 44.0695 32.8762 43.6231C33.1765 42.9984 33.0953 42.2408 32.6069 41.7491V41.7491C32.352 41.4925 32.3075 41.0794 32.5291 40.778V40.778C32.847 40.3428 32.5376 39.6839 31.9986 39.6839L27.9214 39.6842C27.9127 39.6842 27.9057 39.6911 27.9055 39.6998V39.6998ZM28.0422 37.4667C28.1575 37.3527 28.2569 37.2236 28.3375 37.083L30.4001 33.4881C30.4222 33.4433 30.4446 33.3989 30.4667 33.3654L33.3497 28.3418C33.3717 28.297 33.3942 28.2526 33.4162 28.2191L37.3414 21.3642C37.3635 21.3194 37.3859 21.2859 37.4192 21.2415L41.3313 14.4184C41.9066 13.4149 41.9408 12.0649 40.9341 11.4952V11.4952V11.4952C39.9317 10.9274 38.7907 11.6181 38.2178 12.6176L32.8399 22.0005C32.8179 22.0452 32.7955 22.0787 32.7734 22.1231L28.8369 28.9781C28.8149 29.0228 28.7924 29.0672 28.7704 29.1007L25.221 35.2984C25.141 35.4381 25.0801 35.5881 25.04 35.7441V35.7441C24.587 37.5083 26.7467 38.747 28.0422 37.4667V37.4667ZM48.1084 53.2037C49.2396 52.0648 49.805 50.5802 49.805 49.0954C49.805 45.8912 47.2212 43.2903 44.0393 43.2903C42.5647 43.2903 41.0898 43.8596 39.959 44.9872C37.7083 47.2533 37.7083 50.9375 39.959 53.2041C42.1985 55.459 45.8577 55.459 48.1084 53.2037ZM51.2908 49.0954C51.2908 53.1367 48.0419 56.4078 44.0281 56.4078C40.0143 56.4078 36.7655 53.1367 36.7655 49.0954C36.7655 45.0541 40.0143 41.7831 44.0281 41.7831C48.0419 41.7718 51.2908 45.0541 51.2908 49.0954ZM53.1854 57.8643C53.6297 57.3962 53.5864 56.6652 53.1316 56.2073V56.2073C52.8655 55.9394 52.8435 55.5041 53.0763 55.2136C53.4866 54.5996 53.8304 53.9521 54.1073 53.2932C54.3954 52.6009 54.6062 51.8755 54.7392 51.1497C54.8057 50.7701 55.1383 50.5135 55.5153 50.5357V50.5357C56.1347 50.5357 56.6623 50.0712 56.6801 49.4521C56.6867 49.2217 56.687 48.9913 56.681 48.7609C56.6644 48.1228 56.1205 47.6442 55.4822 47.6442V47.6442C55.0939 47.6442 54.7837 47.3541 54.7393 46.9744C54.6062 46.2599 54.3955 45.5567 54.1182 44.8757C53.8409 44.1947 53.4863 43.5359 53.0647 42.9109C52.854 42.6095 52.8984 42.2077 53.1533 41.9507V41.9507C53.6083 41.4988 53.6571 40.7728 53.2167 40.3066C53.0712 40.1526 52.9216 40.002 52.7687 39.8555C52.3055 39.4118 51.5792 39.4557 51.1241 39.9077V39.9077C50.8581 40.1756 50.4257 40.1978 50.1372 39.9747C49.5273 39.5615 48.8842 39.2154 48.2298 38.9366C47.5422 38.6465 46.8217 38.4343 46.1009 38.3004C45.7239 38.2334 45.469 37.8872 45.491 37.5189V37.5189C45.491 36.9015 45.0286 36.3752 44.4114 36.3574C44.1889 36.351 43.9661 36.3506 43.7436 36.3562C43.1008 36.3724 42.6192 36.9207 42.6192 37.5637V37.5637C42.6192 37.9433 42.3311 38.2669 41.954 38.3116C41.2444 38.4569 40.5459 38.6578 39.8696 38.9479C39.1932 39.2271 38.5389 39.5841 37.9181 40.0086C37.6188 40.2208 37.2197 40.1647 36.9645 39.9194V39.9194C36.5113 39.4631 35.7816 39.4201 35.3181 39.866C35.1673 40.0111 35.0197 40.1596 34.8761 40.311C34.4355 40.7753 34.4812 41.5004 34.9353 41.9515V41.9515C35.2014 42.2194 35.2234 42.6547 34.9906 42.9452C34.5803 43.5592 34.2365 44.2067 33.9596 44.8765C33.6715 45.5688 33.4607 46.2942 33.3277 47.02C33.2612 47.3996 32.9286 47.6562 32.5516 47.634V47.634C31.9322 47.634 31.4046 48.0985 31.3868 48.7176C31.3802 48.948 31.3799 49.1784 31.3859 49.4088C31.4025 50.0467 31.9466 50.525 32.5847 50.5244V50.5244C32.973 50.5244 33.2832 50.8145 33.3276 51.1832C33.4719 51.8977 33.6714 52.6009 33.9595 53.2819C34.2368 53.9629 34.5914 54.6217 35.013 55.2467C35.2238 55.5481 35.1793 55.9499 34.9245 56.2069V56.2069C34.4696 56.6586 34.4211 57.3847 34.8611 57.851C35.0051 58.0035 35.1526 58.1523 35.3034 58.2969C35.7686 58.7432 36.4993 58.6964 36.9536 58.239V58.239C37.2197 57.9711 37.652 57.9489 37.9405 58.1833C38.5504 58.5965 39.1935 58.9426 39.8479 59.2214C40.5355 59.5115 41.256 59.7237 41.9768 59.8576C42.3539 59.9246 42.6087 60.2708 42.5867 60.6391V60.6391C42.5867 61.2565 43.0492 61.7828 43.6663 61.8006C43.8889 61.807 44.1116 61.8074 44.3342 61.8018C44.9769 61.7856 45.4585 61.2373 45.4585 60.5944V60.5944C45.4585 60.2147 45.7466 59.8911 46.1237 59.8464C46.8333 59.7124 47.5318 59.5002 48.2082 59.221C48.8846 58.9419 49.5389 58.5848 50.1596 58.1604C50.4589 57.9481 50.858 58.0042 51.1133 58.2495V58.2495C51.5675 58.7007 52.2931 58.7418 52.7545 58.298C52.9011 58.157 53.0448 58.0123 53.1854 57.8643Z" fill="#9426BA"/>
</svg>
