<svg width="256" height="89" viewBox="0 0 256 89" fill="none" xmlns="http://www.w3.org/2000/svg">
<path d="M106.623 46.8084C106.623 46.3891 106.242 46.0842 106.242 46.0842C105.484 46.3129 95.4119 52.9263 95.45 52.9263C95.4881 52.6976 97.1985 49.2022 97.1985 47.0333C97.1985 44.9407 96.4405 44.449 95.2595 44.449C93.8919 44.449 90.5472 47.4526 88.7606 48.8211C86.292 50.685 85.6825 50.7994 85.2254 50.7994L85.1873 50.7231C85.1873 50.2657 86.4406 48.0244 87.1263 47.262C87.6596 46.6522 87.8501 46.1604 87.8501 45.8174C87.8501 45.3981 87.6215 45.2075 87.2406 45.2075C86.8901 45.2075 86.3416 45.4705 85.8425 46.0842C85.8387 46.0842 85.8349 46.0842 85.8349 46.0842C85.7206 46.0842 80.5931 49.9608 77.8541 49.9608C75.8389 49.9608 75.2713 48.6305 75.2713 47.4145C75.2713 46.3891 75.6903 45.4362 75.6903 45.3981C75.6903 45.3981 90.852 28.7445 90.8901 24.9442C90.8901 24.2581 90.471 23.995 90.0177 23.995C87.6254 23.995 76.9855 36.0478 73.7551 43.9153C73.7551 43.9153 67.4085 50.948 65.0543 50.948C64.8638 50.948 64.7495 50.8718 64.7495 50.7193C64.7495 49.6558 67.8276 46.8427 69.4237 46.4235C70.3342 46.1947 70.677 45.3981 70.677 44.8263C70.677 44.5976 70.5628 43.9153 69.9913 43.9153C69.2675 43.9153 66.9514 45.2189 65.119 47.0486C63.3705 48.1959 60.4372 49.9608 58.5896 49.9608C56.5744 49.9608 56.0068 48.6305 56.0068 47.4145C56.0068 46.3891 56.4258 45.4362 56.4258 45.3981C56.4258 45.3981 71.5875 28.7445 71.6256 24.9442C71.6256 24.2581 71.2066 23.995 70.7532 23.995C68.3609 23.995 57.721 36.0478 54.4906 43.9153C54.4906 43.9153 48.144 50.948 45.7898 50.948C45.5993 50.948 45.485 50.8718 45.485 50.7193C45.485 49.6558 48.5631 46.8427 50.1593 46.4235C51.0697 46.1947 51.4126 45.3981 51.4126 44.8263C51.4126 44.5976 51.2983 43.9153 50.7269 43.9153C50.0259 43.9153 47.8393 45.1351 46.0412 46.8618C40.0146 50.6164 15.7255 65.6233 3.75994 65.6233C2.88758 65.6233 2.39235 65.3565 2.39235 64.7885C2.39235 60.7976 20.2892 48.3636 27.6986 43.1187C28.7234 42.4325 28.7234 41.5215 28.7234 41.0641C28.7234 40.7211 28.3805 40.0388 27.8129 39.6957C22.9101 36.734 2.62091 32.1713 2.62091 27.0368C2.62091 20.1947 46.7345 1.82965 66.5666 1.82965C68.6199 1.82965 69.1875 2.51576 69.1875 3.31242C69.1875 10.4976 51.8621 27.1512 49.0126 28.8589C49.0126 28.8589 47.8736 29.6555 47.1879 29.6555C46.0488 29.6555 45.5917 30.7952 45.5917 31.4813C45.5917 32.1675 46.2774 32.3924 47.8698 32.3924C49.3516 32.3924 71.4656 11.9766 71.4656 2.8512C71.4656 0.571764 68.6161 0 66.3381 0C48.8983 0.00762352 0.342852 16.8861 0.342852 27.2655C0.342852 34.5651 25.6491 39.3564 25.6491 41.5215C25.6453 43.233 0 58.0608 0 65.1316C0 67.2242 1.3676 68.059 3.61137 68.059C15.2341 68.059 35.4166 55.2439 43.866 49.774C43.5955 50.3763 43.4355 50.9899 43.4355 51.596C43.4355 52.507 44.1936 53.2313 45.2222 53.2313C48.7574 53.2313 53.923 47.1096 53.923 47.1096L53.8849 47.7957C53.8849 49.126 54.2659 51.6722 58.2544 51.6722C59.8467 51.6722 61.5572 50.9061 63.0238 50.0294C62.8181 50.5478 62.7 51.0738 62.7 51.596C62.7 52.507 63.4581 53.2313 64.4867 53.2313C68.0218 53.2313 73.1875 47.1096 73.1875 47.1096L73.1494 47.7957C73.1494 49.126 73.5303 51.6722 77.5188 51.6722C79.8883 51.6722 82.5283 49.976 84.2311 48.7448C83.7435 49.7397 83.3702 50.7612 83.3702 51.5198C83.3702 52.244 83.9797 52.8501 84.8521 52.8501C87.6635 52.8501 93.3243 46.2748 94.8824 46.2748C95.1872 46.2748 95.3776 46.351 95.3776 46.9609C95.3776 49.2785 92.4139 55.0952 92.4139 55.0952C92.4139 55.0952 66.5781 78.6672 66.5781 86.4584C66.5781 87.4838 67.2257 88.208 68.2504 88.208C75.9646 88.208 94.1243 56.5018 94.1243 56.5018C97.9604 52.8158 106.623 47.8338 106.623 46.8084ZM82.7988 32.9679C85.6102 29.3925 88.0406 26.9225 88.193 26.9225C88.193 27.0749 86.3301 29.888 83.5188 33.4253C80.7074 37.0008 76.6808 42.0171 76.5284 42.0171C76.5284 41.8646 79.9874 36.5434 82.7988 32.9679ZM63.5343 32.9679C66.3457 29.3925 68.7761 26.9225 68.9285 26.9225C68.9285 27.0749 67.0657 29.888 64.2543 33.4253C61.4429 37.0008 57.4163 42.0171 57.2639 42.0171C57.2639 41.8646 60.7191 36.5434 63.5343 32.9679ZM68.6275 86.1191C68.4752 86.1191 68.399 86.0048 68.399 85.8523C68.399 80.493 90.7796 58.8574 90.7796 58.8574C90.7796 58.8574 74.1741 86.1191 68.6275 86.1191Z" fill="white"/>
<path d="M164.721 46.9228C165.898 46.9228 166.356 46.961 166.47 47.1134C166.622 47.2278 166.775 47.304 166.965 47.304C167.498 47.304 168.104 46.656 168.104 46.05C168.104 45.1008 167.003 45.0627 165.255 45.0627L162.291 45.1008C173.917 23.0117 179.007 12.2167 179.007 8.14579C179.007 6.77736 178.397 6.16748 177.296 6.16748C175.586 6.16748 172.698 8.03143 168.443 11.7936C160.272 19.055 145.228 35.4418 145.228 35.4418C145.647 34.8319 156.55 19.8936 156.969 19.8936C156.969 19.9318 156.931 20.0461 156.855 20.1605C156.779 20.3129 156.74 20.4654 156.74 20.5798C156.74 20.999 157.083 21.3764 157.499 21.3764C158.146 21.3764 158.676 19.8555 162.401 14.3056C165.441 9.66668 166.161 8.52696 166.161 7.9552C166.161 7.76461 166.047 7.65026 165.933 7.45967C165.704 7.11661 165.552 6.92602 165.365 6.92602C163.54 6.92602 139.868 39.7339 136.337 44.8302C135.541 45.9699 135.198 46.313 134.627 46.3892C133.373 46.5798 124.368 46.9991 120.985 46.9991C117.678 46.9991 113.88 47.2278 109.511 47.6852C107.915 47.8758 106.28 48.0283 106.28 48.9774C106.28 49.511 107.343 50.1933 108.143 50.1933C108.448 50.1933 108.715 50.079 108.867 49.8122C109.476 48.7487 118.253 49.1642 133.868 48.2913C130.79 52.5109 128.474 55.2858 128.474 55.8957C128.474 56.3913 128.969 56.7686 129.385 56.7686C130.143 56.7686 135.994 48.5581 136.566 48.215L159.022 47.1134C159.022 47.1134 140.253 82.3189 138.2 85.4369C137.48 86.5004 137.175 86.9578 137.175 87.2627C137.175 87.6439 137.785 88.0594 138.009 88.0594C138.39 88.0594 139.263 87.4876 140.402 85.3607L161.186 47.0372C161.186 47.0372 163.655 46.9228 164.721 46.9228ZM140.135 46.0843C139.148 46.0843 138.539 46.0461 138.539 46.008C138.539 45.7793 157.308 24.0332 169.696 13.0858C172.927 10.2346 176.306 7.87896 177.144 7.87896L177.258 7.91708C177.334 7.99331 177.373 8.14579 177.373 8.33637C177.373 12.6703 160.047 45.1771 160.047 45.1771C160.047 45.1771 145.114 46.0843 140.135 46.0843Z" fill="white"/>
<path d="M84.2921 61.3619C84.9321 60.7291 85.5492 60.123 86.1359 59.5513C81.7855 59.8676 77.4998 60.2107 73.2904 60.5843C45.3174 63.0619 21.5349 66.9804 2.58284 72.2406C2.0838 72.4388 1.96952 72.7476 1.9619 72.9687C1.94666 73.468 2.30094 73.8377 3.04759 74.0741C4.19424 74.2342 5.16947 74.3295 5.9466 74.3562C6.09517 74.36 6.23612 74.3638 6.37326 74.3638C6.60945 74.3638 6.82659 74.3561 7.02087 74.3409C7.99228 74.2647 8.53323 74.0931 8.73132 73.8034C8.91036 73.5366 8.99798 73.3079 9.0056 73.1059C9.01322 72.9039 8.96751 72.6866 8.87227 72.4541C19.5045 69.6906 31.6186 67.3578 44.8793 65.5281C57.3973 63.8014 70.6466 62.4025 84.2921 61.3619Z" fill="white"/>
<path d="M244.956 58.9831C243.973 58.8992 240.96 58.7315 235.745 58.4647C230.587 58.2017 223.711 57.9272 215.311 57.6452C205.944 57.3326 196.401 57.1153 186.755 56.9895C186.504 57.0429 186.256 57.081 186.005 57.081C185.761 57.081 185.544 57.0353 185.338 56.9705C180.816 56.9171 176.268 56.8828 171.704 56.8714C171.304 57.0048 170.9 57.0848 170.5 57.0848C170.135 57.0848 169.815 57.0048 169.536 56.8676C165.392 56.8599 161.232 56.8714 157.06 56.898L156.306 58.2932C161.799 58.2169 167.171 58.175 172.382 58.1712C185.376 58.1597 195.387 58.2398 202.153 58.4075C208.942 58.579 213.879 58.7124 216.82 58.8116C224.671 59.0746 232.899 59.4977 241.284 60.0732L245.101 60.3477C245.345 60.3553 245.558 60.2981 245.722 60.1762C245.897 60.0466 245.992 59.8903 245.996 59.7226C246.004 59.3223 245.657 59.0746 244.956 58.9831Z" fill="white"/>
<path d="M152.55 56.9324C152.081 56.9362 151.613 56.94 151.144 56.9438C144.139 57.02 137.24 57.1535 130.455 57.3479C129.983 57.7633 129.701 57.8434 129.385 57.8434C128.973 57.8434 128.547 57.6833 128.192 57.4165C116.387 57.7748 104.935 58.3122 93.8995 59.0174C93.5985 59.5282 93.2518 60.1114 92.8633 60.7556C105.587 59.9017 118.368 59.2576 130.954 58.8649C138.051 58.6439 145.007 58.4761 151.788 58.358C152.043 57.8739 152.299 57.3974 152.55 56.9324Z" fill="white"/>
<path d="M250.945 46.0841C250.831 46.0841 245.703 49.9607 242.964 49.9607C240.949 49.9607 240.381 48.6303 240.381 47.4144C240.381 46.389 240.8 45.4361 240.8 45.398C240.8 45.398 255.962 28.7444 256 24.9441C256 24.2579 255.581 23.9949 255.128 23.9949C252.735 23.9949 242.096 36.0477 238.865 43.9152C238.865 43.9152 232.519 50.9479 230.164 50.9479C229.974 50.9479 229.86 50.8717 229.86 50.7192C229.86 49.6557 232.938 46.8426 234.534 46.4233C235.444 46.1946 235.787 45.398 235.787 44.8262C235.787 44.5975 235.673 43.9152 235.101 43.9152C234.431 43.9152 232.4 45.032 230.652 46.6406C228.999 47.6126 225.738 49.5032 222.599 49.5032C221.574 49.5032 221.231 49.1221 221.231 48.5922C221.231 47.9823 221.802 47.3 221.802 46.7664C221.802 46.2327 221.345 45.8554 220.93 45.8554L220.549 45.9697C218.043 48.0243 215.307 50.3037 213.254 50.3037C212.568 50.3037 212.344 49.9988 212.344 49.5452C212.344 48.596 213.445 47.1133 213.597 47.1133C213.94 47.1133 214.279 46.3166 214.279 46.0879C214.279 45.6305 213.822 45.4056 213.14 45.4056C213.003 45.4056 212.69 45.6724 212.321 46.0993C211.829 46.1794 210.298 47.1933 208.694 47.1933C206.187 47.1933 204.21 46.2823 203.829 45.9392C203.601 45.7487 203.22 45.5581 202.995 45.5581C202.629 45.5581 202.031 45.863 201.353 46.3471C199.121 47.5326 196.885 48.0738 193.151 48.7142C193.151 48.7142 193.456 47.7651 193.456 47.2695C193.456 46.1298 192.809 45.1045 191.517 45.1045C190.378 45.1045 188.477 46.6635 187.605 47.3458L187.91 46.8884C199.422 38.3348 204.21 28.6415 204.21 24.5324C204.21 23.507 203.525 23.164 202.957 23.164C200.793 23.164 190.725 38.0718 186.058 46.2289C183.757 47.4944 181.498 48.051 177.651 48.7104C177.651 48.7104 177.956 47.7613 177.956 47.2657C177.956 46.126 177.308 45.1007 176.016 45.1007C174.877 45.1007 172.977 46.6597 172.104 47.342L172.409 46.8846C183.921 38.331 188.71 28.6377 188.71 24.5286C188.71 23.5032 188.024 23.1602 187.456 23.1602C184.95 23.1602 171.841 43.1567 168.801 49.5071C168.344 49.9645 166.634 51.5616 166.634 52.7013C166.634 53.2731 167.205 53.6123 167.43 53.6123C168.569 53.6123 169.14 52.7013 170.737 49.9645C171.384 49.3927 174.535 46.8083 175.677 46.8083C176.02 46.8083 176.135 47.1895 176.135 47.605C176.135 48.2911 175.716 49.2783 175.716 49.2783C174.005 49.9645 169.331 51.0661 169.331 54.4852C169.331 55.057 169.598 56.0061 170.508 56.0061C172.447 56.0061 175.144 53.3455 176.969 50.723C178.554 50.2542 182.374 49.3775 184.877 48.3711C184.66 48.7828 184.466 49.1678 184.302 49.5071C183.845 49.9645 182.134 51.5616 182.134 52.7013C182.134 53.2731 182.706 53.6123 182.931 53.6123C184.07 53.6123 184.641 52.7013 186.237 49.9645C186.885 49.3927 190.035 46.8083 191.178 46.8083C191.521 46.8083 191.635 47.1895 191.635 47.605C191.635 48.2911 191.216 49.2783 191.216 49.2783C189.506 49.9645 184.832 51.0661 184.832 54.4852C184.832 55.057 185.098 56.0061 186.009 56.0061C187.948 56.0061 190.645 53.3455 192.47 50.723C193.677 50.3647 196.188 49.7701 198.42 49.0611C197.612 50.0178 197.033 50.9631 197.033 51.5959C197.033 52.1677 197.224 52.9262 198.21 52.9262C198.706 52.9262 199.311 52.7737 199.845 52.4688C200.869 51.9733 202.999 49.7319 203.528 48.6685C203.719 48.2111 203.833 48.0205 204.138 48.0205C204.29 48.0205 205.848 48.779 208.546 48.779C209.319 48.779 210.134 48.5732 210.873 48.3025C210.553 48.9696 210.332 49.6557 210.332 50.2618C210.332 51.3253 211.205 52.1257 213.144 52.1257C214.968 52.0114 218.275 50.1855 219.757 48.5884L219.643 49.3127C219.643 50.0712 220.062 51.2147 222.378 51.2147C224.321 51.2147 226.576 50.3456 228.442 49.3698C228.054 50.0941 227.814 50.8488 227.814 51.5921C227.814 52.5031 228.576 53.2273 229.6 53.2273C233.136 53.2273 238.301 47.1056 238.301 47.1056L238.263 47.7918C238.263 49.1221 238.644 51.6683 242.633 51.6683C246.054 51.6683 250.042 48.131 250.953 47.5631C251.067 47.4487 251.295 47.22 251.295 46.652C251.284 46.1984 251.055 46.0841 250.945 46.0841ZM247.905 32.9678C250.716 29.3924 253.147 26.9224 253.299 26.9224C253.299 27.0748 251.436 29.8879 248.625 33.4252C245.814 37.0007 241.787 42.0169 241.635 42.0169C241.635 41.8645 245.09 36.5433 247.905 32.9678ZM201.925 25.7826H201.963C202.115 25.7826 202.191 26.0876 202.191 26.3925C202.191 29.8536 196.759 37.0007 189.121 44.0334C195.239 34.9842 200.976 25.7826 201.925 25.7826ZM186.42 25.7826H186.458C186.611 25.7826 186.687 26.0876 186.687 26.3925C186.687 29.8536 181.255 37.0007 173.617 44.0334C179.735 34.9842 185.472 25.7826 186.42 25.7826ZM171.377 53.9173C171.377 53.2311 172.858 52.1677 174.302 51.6721C173.045 52.93 171.868 53.9173 171.377 53.9173ZM186.877 53.9173C186.877 53.2311 188.359 52.1677 189.803 51.6721C188.55 52.93 187.373 53.9173 186.877 53.9173ZM198.649 51.3443C198.649 51.1423 199.403 50.1894 200.508 49.1335C201.159 48.4817 201.612 48.1272 201.814 48.1272H201.864C201.86 48.4779 200.256 50.3876 198.649 51.3443Z" fill="white"/>
</svg>
