<svg width="418" height="432" viewBox="0 0 418 432" fill="none" xmlns="http://www.w3.org/2000/svg">
<g opacity="0.3" filter="url(#filter0_f_222_91)">
<path fill-rule="evenodd" clip-rule="evenodd" d="M205.958 123.06C200.128 141.344 186.783 155.331 174.696 170.241C164.282 183.088 153.183 194.54 139.96 204.475C125.231 215.541 111.34 230.942 92.9277 231.675C74.4561 232.409 58.9436 218.733 43.6834 208.305C29.3356 198.5 19.1195 184.99 6.75144 172.785C-10.1761 156.081 -39.3896 146.603 -42.7009 123.06C-45.902 100.3 -22.6649 82.6341 -8.47132 64.5502C4.10808 48.5229 18.1492 34.3272 35.4255 23.5195C53.1656 12.4216 72.2212 -1.92364 92.9277 1.11694C113.6 4.15253 122.39 30.5006 141.437 39.0864C163.642 49.0958 196.737 35.2897 211.573 54.5987C225.768 73.0736 213.036 100.866 205.958 123.06Z" fill="#9426BA"/>
</g>
<defs>
<filter id="filter0_f_222_91" x="-243" y="-199.297" width="661" height="631" filterUnits="userSpaceOnUse" color-interpolation-filters="sRGB">
<feFlood flood-opacity="0" result="BackgroundImageFix"/>
<feBlend mode="normal" in="SourceGraphic" in2="BackgroundImageFix" result="shape"/>
<feGaussianBlur stdDeviation="100" result="effect1_foregroundBlur_222_91"/>
</filter>
</defs>
</svg>
