<svg width="107" height="89" viewBox="0 0 107 89" fill="none" xmlns="http://www.w3.org/2000/svg">
<path d="M106.623 46.8084C106.623 46.3891 106.242 46.0842 106.242 46.0842C105.484 46.3129 95.4119 52.9263 95.45 52.9263C95.4881 52.6976 97.1985 49.2022 97.1985 47.0333C97.1985 44.9407 96.4405 44.449 95.2595 44.449C93.8919 44.449 90.5472 47.4526 88.7606 48.8211C86.292 50.685 85.6825 50.7994 85.2254 50.7994L85.1873 50.7231C85.1873 50.2657 86.4406 48.0244 87.1263 47.262C87.6596 46.6522 87.8501 46.1604 87.8501 45.8174C87.8501 45.3981 87.6215 45.2075 87.2406 45.2075C86.8901 45.2075 86.3416 45.4705 85.8425 46.0842C85.8387 46.0842 85.8349 46.0842 85.8349 46.0842C85.7206 46.0842 80.5931 49.9608 77.8541 49.9608C75.8389 49.9608 75.2713 48.6305 75.2713 47.4145C75.2713 46.3891 75.6903 45.4362 75.6903 45.3981C75.6903 45.3981 90.852 28.7445 90.8901 24.9442C90.8901 24.2581 90.471 23.995 90.0177 23.995C87.6254 23.995 76.9855 36.0478 73.7551 43.9153C73.7551 43.9153 67.4085 50.948 65.0543 50.948C64.8638 50.948 64.7495 50.8718 64.7495 50.7193C64.7495 49.6558 67.8276 46.8427 69.4237 46.4235C70.3342 46.1947 70.677 45.3981 70.677 44.8263C70.677 44.5976 70.5628 43.9153 69.9913 43.9153C69.2675 43.9153 66.9514 45.2189 65.119 47.0486C63.3705 48.1959 60.4372 49.9608 58.5896 49.9608C56.5744 49.9608 56.0068 48.6305 56.0068 47.4145C56.0068 46.3891 56.4258 45.4362 56.4258 45.3981C56.4258 45.3981 71.5875 28.7445 71.6256 24.9442C71.6256 24.2581 71.2066 23.995 70.7532 23.995C68.3609 23.995 57.721 36.0478 54.4906 43.9153C54.4906 43.9153 48.144 50.948 45.7898 50.948C45.5993 50.948 45.485 50.8718 45.485 50.7193C45.485 49.6558 48.5631 46.8427 50.1593 46.4235C51.0697 46.1947 51.4126 45.3981 51.4126 44.8263C51.4126 44.5976 51.2983 43.9153 50.7269 43.9153C50.0259 43.9153 47.8393 45.1351 46.0412 46.8618C40.0146 50.6164 15.7255 65.6233 3.75994 65.6233C2.88758 65.6233 2.39235 65.3565 2.39235 64.7885C2.39235 60.7976 20.2892 48.3636 27.6986 43.1187C28.7234 42.4325 28.7234 41.5215 28.7234 41.0641C28.7234 40.7211 28.3805 40.0388 27.8129 39.6957C22.9101 36.734 2.62091 32.1713 2.62091 27.0368C2.62091 20.1947 46.7345 1.82965 66.5666 1.82965C68.6199 1.82965 69.1875 2.51576 69.1875 3.31242C69.1875 10.4976 51.8621 27.1512 49.0126 28.8589C49.0126 28.8589 47.8736 29.6555 47.1879 29.6555C46.0488 29.6555 45.5917 30.7952 45.5917 31.4813C45.5917 32.1675 46.2774 32.3924 47.8698 32.3924C49.3516 32.3924 71.4656 11.9766 71.4656 2.8512C71.4656 0.571764 68.6161 0 66.3381 0C48.8983 0.00762352 0.342852 16.8861 0.342852 27.2655C0.342852 34.5651 25.6491 39.3564 25.6491 41.5215C25.6453 43.233 0 58.0608 0 65.1316C0 67.2242 1.3676 68.059 3.61137 68.059C15.2341 68.059 35.4166 55.2439 43.866 49.774C43.5955 50.3763 43.4355 50.9899 43.4355 51.596C43.4355 52.507 44.1936 53.2313 45.2222 53.2313C48.7574 53.2313 53.923 47.1096 53.923 47.1096L53.8849 47.7957C53.8849 49.126 54.2659 51.6722 58.2544 51.6722C59.8467 51.6722 61.5572 50.9061 63.0238 50.0294C62.8181 50.5478 62.7 51.0738 62.7 51.596C62.7 52.507 63.4581 53.2313 64.4867 53.2313C68.0218 53.2313 73.1875 47.1096 73.1875 47.1096L73.1494 47.7957C73.1494 49.126 73.5303 51.6722 77.5188 51.6722C79.8883 51.6722 82.5283 49.976 84.2311 48.7448C83.7435 49.7397 83.3702 50.7612 83.3702 51.5198C83.3702 52.244 83.9797 52.8501 84.8521 52.8501C87.6635 52.8501 93.3243 46.2748 94.8824 46.2748C95.1872 46.2748 95.3776 46.351 95.3776 46.9609C95.3776 49.2785 92.4139 55.0952 92.4139 55.0952C92.4139 55.0952 66.5781 78.6672 66.5781 86.4584C66.5781 87.4838 67.2257 88.208 68.2504 88.208C75.9646 88.208 94.1243 56.5018 94.1243 56.5018C97.9604 52.8158 106.623 47.8338 106.623 46.8084ZM82.7988 32.9679C85.6102 29.3925 88.0406 26.9225 88.193 26.9225C88.193 27.0749 86.3301 29.888 83.5188 33.4253C80.7074 37.0008 76.6808 42.0171 76.5284 42.0171C76.5284 41.8646 79.9874 36.5434 82.7988 32.9679ZM63.5343 32.9679C66.3457 29.3925 68.7761 26.9225 68.9285 26.9225C68.9285 27.0749 67.0657 29.888 64.2543 33.4253C61.4429 37.0008 57.4163 42.0171 57.2639 42.0171C57.2639 41.8646 60.7191 36.5434 63.5343 32.9679ZM68.6275 86.1191C68.4752 86.1191 68.399 86.0048 68.399 85.8523C68.399 80.493 90.7796 58.8574 90.7796 58.8574C90.7796 58.8574 74.1741 86.1191 68.6275 86.1191Z" fill="white"/>
</svg>
