<svg width="90" height="5" viewBox="0 0 90 5" fill="none" xmlns="http://www.w3.org/2000/svg">
<path d="M88.9563 2.98308C87.9734 2.89922 84.9601 2.73151 79.745 2.46468C74.587 2.20167 67.7109 1.92723 59.311 1.64516C49.9435 1.33259 40.4008 1.11532 30.7552 0.989532C30.5038 1.0429 30.2562 1.08101 30.0048 1.08101C29.7609 1.08101 29.5438 1.03527 29.3381 0.970472C24.8163 0.917107 20.2678 0.882798 15.704 0.871362C15.304 1.00477 14.9002 1.08483 14.5002 1.08483C14.1345 1.08483 13.8145 1.00478 13.5364 0.867553C9.39173 0.859929 5.2318 0.871365 1.06043 0.898048L0.306152 2.29315C5.7994 2.21692 11.1708 2.17499 16.3821 2.17117C29.3762 2.15974 39.3875 2.23979 46.1531 2.40751C52.9415 2.57904 57.8786 2.71245 60.8195 2.81155C68.6708 3.07457 76.8993 3.49767 85.2839 4.07325L89.101 4.34769C89.3448 4.35532 89.5582 4.29814 89.722 4.17617C89.8972 4.04657 89.9924 3.89028 89.9962 3.72256C90.0039 3.32233 89.6572 3.07456 88.9563 2.98308Z" fill="white"/>
</svg>
