<svg width="90" height="34" viewBox="0 0 90 34" fill="none" xmlns="http://www.w3.org/2000/svg">
<path d="M84.9449 23.0841C84.8306 23.0841 79.7031 26.9607 76.9641 26.9607C74.9489 26.9607 74.3813 25.6303 74.3813 24.4144C74.3813 23.389 74.8003 22.4361 74.8003 22.398C74.8003 22.398 89.962 5.74439 90.0001 1.94406C90.0001 1.25794 89.581 0.994932 89.1277 0.994932C86.7353 0.994932 76.0955 13.0477 72.8651 20.9152C72.8651 20.9152 66.5185 27.9479 64.1643 27.9479C63.9738 27.9479 63.8595 27.8717 63.8595 27.7192C63.8595 26.6557 66.9375 23.8426 68.5337 23.4233C69.4442 23.1946 69.787 22.398 69.787 21.8262C69.787 21.5975 69.6728 20.9152 69.1013 20.9152C68.4309 20.9152 66.4004 22.032 64.6519 23.6406C62.9986 24.6126 59.7377 26.5032 56.5987 26.5032C55.5739 26.5032 55.2311 26.1221 55.2311 25.5922C55.2311 24.9823 55.8025 24.3 55.8025 23.7664C55.8025 23.2327 55.3453 22.8554 54.9301 22.8554L54.5492 22.9697C52.0425 25.0243 49.3073 27.3037 47.254 27.3037C46.5683 27.3037 46.3436 26.9988 46.3436 26.5452C46.3436 25.596 47.4445 24.1133 47.5969 24.1133C47.9397 24.1133 48.2788 23.3166 48.2788 23.0879C48.2788 22.6305 47.8216 22.4056 47.1398 22.4056C47.0026 22.4056 46.6902 22.6724 46.3207 23.0993C45.8293 23.1794 44.2979 24.1933 42.6941 24.1933C40.1875 24.1933 38.2104 23.2823 37.8294 22.9392C37.6008 22.7487 37.2199 22.5581 36.9951 22.5581C36.6294 22.5581 36.0313 22.863 35.3533 23.3471C33.1209 24.5326 30.8848 25.0738 27.1515 25.7142C27.1515 25.7142 27.4562 24.7651 27.4562 24.2695C27.4562 23.1298 26.8086 22.1045 25.5172 22.1045C24.3782 22.1045 22.4773 23.6635 21.6049 24.3458L21.9097 23.8884C33.4219 15.3348 38.2104 5.64147 38.2104 1.53239C38.2104 0.507025 37.5247 0.163967 36.9571 0.163967C34.7933 0.163967 24.7249 15.0718 20.0583 23.2289C17.7573 24.4944 15.4983 25.051 11.6508 25.7104C11.6508 25.7104 11.9555 24.7613 11.9555 24.2657C11.9555 23.126 11.3079 22.1007 10.0165 22.1007C8.87747 22.1007 6.97655 23.6597 6.10418 24.342L6.40893 23.8846C17.9211 15.331 22.7096 5.63766 22.7096 1.52858C22.7096 0.503215 22.0239 0.160156 21.4563 0.160156C18.9497 0.160156 5.84132 20.1567 2.80136 26.5071C2.34423 26.9645 0.633789 28.5616 0.633789 29.7013C0.633789 30.2731 1.20521 30.6123 1.42997 30.6123C2.569 30.6123 3.14041 29.7013 4.73658 26.9645C5.38419 26.3927 8.53462 23.8083 9.67746 23.8083C10.0203 23.8083 10.1346 24.1895 10.1346 24.605C10.1346 25.2911 9.71556 26.2783 9.71556 26.2783C8.00511 26.9645 3.33089 28.0661 3.33089 31.4852C3.33089 32.057 3.59755 33.0061 4.50801 33.0061C6.44703 33.0061 9.14413 30.3455 10.9689 27.723C12.5536 27.2542 16.3745 26.3775 18.8773 25.3711C18.6602 25.7828 18.4659 26.1678 18.3021 26.5071C17.8449 26.9645 16.1345 28.5616 16.1345 29.7013C16.1345 30.2731 16.7059 30.6123 16.9307 30.6123C18.0697 30.6123 18.6411 29.7013 20.2373 26.9645C20.8849 26.3927 24.0353 23.8083 25.1782 23.8083C25.521 23.8083 25.6353 24.1895 25.6353 24.605C25.6353 25.2911 25.2163 26.2783 25.2163 26.2783C23.5058 26.9645 18.8316 28.0661 18.8316 31.4852C18.8316 32.057 19.0983 33.0061 20.0087 33.0061C21.9477 33.0061 24.6448 30.3455 26.4696 27.723C27.6772 27.3647 30.1876 26.7701 32.42 26.0611C31.6124 27.0178 31.0333 27.9631 31.0333 28.5959C31.0333 29.1677 31.2238 29.9262 32.2105 29.9262C32.7057 29.9262 33.3114 29.7737 33.8447 29.4688C34.8695 28.9733 36.999 26.7319 37.5285 25.6685C37.7189 25.2111 37.8332 25.0205 38.138 25.0205C38.2904 25.0205 39.8484 25.779 42.5455 25.779C43.3189 25.779 44.1341 25.5732 44.8731 25.3025C44.5531 25.9696 44.3322 26.6557 44.3322 27.2618C44.3322 28.3253 45.2045 29.1257 47.1436 29.1257C48.9683 29.0114 52.2749 27.1855 53.7568 25.5884L53.6425 26.3127C53.6425 27.0712 54.0616 28.2147 56.3777 28.2147C58.3205 28.2147 60.5757 27.3456 62.4424 26.3698C62.0538 27.0941 61.8138 27.8488 61.8138 28.5921C61.8138 29.5031 62.5757 30.2273 63.6005 30.2273C67.1357 30.2273 72.3013 24.1056 72.3013 24.1056L72.2632 24.7918C72.2632 26.1221 72.6441 28.6683 76.6326 28.6683C80.0535 28.6683 84.0421 25.131 84.9525 24.5631C85.0668 24.4487 85.2954 24.22 85.2954 23.652C85.2839 23.1984 85.0554 23.0841 84.9449 23.0841ZM81.9049 9.96782C84.7163 6.39239 87.1468 3.92236 87.2991 3.92236C87.2991 4.07484 85.4363 6.88791 82.6249 10.4252C79.8136 14.0007 75.7869 19.0169 75.6346 19.0169C75.6346 18.8645 79.0898 13.5433 81.9049 9.96782ZM35.9247 2.78265H35.9628C36.1151 2.78265 36.1913 3.08759 36.1913 3.39253C36.1913 6.85361 30.7591 14.0007 23.1211 21.0334C29.2391 11.9842 34.9761 2.78265 35.9247 2.78265ZM20.4201 2.78265H20.4582C20.6106 2.78265 20.6868 3.08759 20.6868 3.39253C20.6868 6.85361 15.2545 14.0007 7.61654 21.0334C13.7345 11.9842 19.4716 2.78265 20.4201 2.78265ZM5.37657 30.9173C5.37657 30.2311 6.85845 29.1677 8.30224 28.6721C7.04511 29.93 5.86799 30.9173 5.37657 30.9173ZM20.8773 30.9173C20.8773 30.2311 22.3592 29.1677 23.803 28.6721C22.5496 29.93 21.3725 30.9173 20.8773 30.9173ZM32.6486 28.3443C32.6486 28.1423 33.4028 27.1894 34.5076 26.1335C35.159 25.4817 35.6123 25.1272 35.8142 25.1272H35.8637C35.8599 25.4779 34.2561 27.3876 32.6486 28.3443Z" fill="white"/>
</svg>
