<svg width="74" height="83" viewBox="0 0 74 83" fill="none" xmlns="http://www.w3.org/2000/svg">
<path d="M58.7213 40.9228C59.8984 40.9228 60.3556 40.961 60.4698 41.1134C60.6222 41.2278 60.7746 41.304 60.9651 41.304C61.4984 41.304 62.1041 40.656 62.1041 40.05C62.1041 39.1008 61.0032 39.0627 59.2546 39.0627L56.2909 39.1008C67.9174 17.0117 73.0068 6.21675 73.0068 2.14579C73.0068 0.777363 72.3973 0.16748 71.2964 0.16748C69.5859 0.16748 66.6983 2.03143 62.4432 5.79364C54.2719 13.055 39.2283 29.4418 39.2283 29.4418C39.6473 28.8319 50.55 13.8936 50.969 13.8936C50.969 13.9318 50.9309 14.0461 50.8548 14.1605C50.7786 14.3129 50.7405 14.4654 50.7405 14.5798C50.7405 14.999 51.0833 15.3764 51.4986 15.3764C52.1462 15.3764 52.6757 13.8555 56.4013 8.30559C59.4413 3.66668 60.1613 2.52696 60.1613 1.9552C60.1613 1.76461 60.047 1.65026 59.9327 1.45967C59.7041 1.11661 59.5518 0.926021 59.3651 0.926021C57.5404 0.926021 33.8684 33.7339 30.337 38.8302C29.5408 39.9699 29.1979 40.313 28.6265 40.3892C27.3732 40.5798 18.3676 40.9991 14.9848 40.9991C11.6782 40.9991 7.88016 41.2278 3.51071 41.6852C1.91454 41.8758 0.280273 42.0283 0.280273 42.9774C0.280273 43.511 1.34312 44.1933 2.14311 44.1933C2.44787 44.1933 2.71453 44.079 2.8669 43.8122C3.47642 42.7487 12.2534 43.1642 27.8684 42.2913C24.7904 46.5109 22.4742 49.2858 22.4742 49.8957C22.4742 50.3913 22.9695 50.7686 23.3847 50.7686C24.1428 50.7686 29.9941 42.5581 30.5655 42.215L53.0223 41.1134C53.0223 41.1134 34.2531 76.3189 32.1998 79.4369C31.4798 80.5004 31.1751 80.9578 31.1751 81.2627C31.1751 81.6439 31.7846 82.0594 32.0093 82.0594C32.3903 82.0594 33.2626 81.4876 34.4017 79.3607L55.1861 41.0372C55.1861 41.0372 57.6547 40.9228 58.7213 40.9228ZM34.135 40.0843C33.1483 40.0843 32.5388 40.0461 32.5388 40.008C32.5388 39.7793 51.3081 18.0332 63.6965 7.08583C66.9269 4.23463 70.3059 1.87896 71.144 1.87896L71.2583 1.91708C71.3344 1.99331 71.3725 2.14579 71.3725 2.33637C71.3725 6.67035 54.0471 39.1771 54.0471 39.1771C54.0471 39.1771 39.114 40.0843 34.135 40.0843Z" fill="white"/>
</svg>
