<svg width="86" height="16" viewBox="0 0 86 16" fill="none" xmlns="http://www.w3.org/2000/svg">
<path d="M83.2921 2.36186C83.9321 1.7291 84.5492 1.12303 85.1359 0.55127C80.7855 0.867646 76.4998 1.2107 72.2904 1.58425C44.3174 4.0619 20.5349 7.98039 1.58284 13.2406C1.0838 13.4388 0.969516 13.7476 0.961897 13.9687C0.946659 14.468 1.30094 14.8377 2.04759 15.0741C3.19424 15.2342 4.16947 15.3295 4.9466 15.3562C5.09517 15.36 5.23612 15.3638 5.37326 15.3638C5.60945 15.3638 5.82659 15.3561 6.02087 15.3409C6.99228 15.2647 7.53323 15.0931 7.73132 14.8034C7.91036 14.5366 7.99798 14.3079 8.0056 14.1059C8.01322 13.9039 7.96751 13.6866 7.87227 13.4541C18.5045 10.6906 30.6186 8.35775 43.8793 6.52811C56.3973 4.80138 69.6466 3.40247 83.2921 2.36186Z" fill="white"/>
</svg>
