<svg width="26" height="26" viewBox="0 0 26 26" fill="none" xmlns="http://www.w3.org/2000/svg">
<path d="M24.8042 24.1733L17.7003 17.0889C19.2031 15.3178 20.0909 13.07 20.0909 10.6176C20.0909 5.09995 15.5826 0.604004 10.0499 0.604004C4.51709 0.603766 0.00878906 5.09977 0.00878906 10.6176C0.00878906 16.1354 4.51715 20.6311 10.0499 20.6311C12.5089 20.6311 14.7631 19.7456 16.4707 18.3152L23.5746 25.3315C23.7111 25.4676 23.9843 25.604 24.1892 25.604C24.3941 25.604 24.599 25.5358 24.8038 25.3315C25.0771 24.9908 25.0771 24.514 24.8038 24.1735L24.8042 24.1733ZM1.71652 10.6176C1.71652 6.05362 5.4735 2.30699 10.0499 2.30699C14.6264 2.30699 18.3833 6.05368 18.3833 10.6176C18.3833 15.1814 14.6263 18.9281 10.0499 18.9281C5.47344 18.9281 1.71652 15.2497 1.71652 10.6176Z" fill="white"/>
</svg>
