<svg width="30" height="23" viewBox="0 0 30 23" fill="none" xmlns="http://www.w3.org/2000/svg">
<path d="M29.4309 7.59479C29.658 7.40911 29.9958 7.58281 29.9958 7.8763V20.125C29.9958 21.7122 28.7437 23 27.2005 23H2.97406C1.4308 23 0.178711 21.7122 0.178711 20.125V7.88229C0.178711 7.58281 0.510659 7.4151 0.743605 7.60078C2.0481 8.64297 3.77773 9.96667 9.71786 14.4049C10.9466 15.3273 13.0199 17.268 15.0873 17.256C17.1663 17.274 19.2803 15.2914 20.4625 14.4049C26.4026 9.96667 28.1264 8.63698 29.4309 7.59479ZM15.0873 15.3333C16.4384 15.3573 18.3835 13.5844 19.3618 12.8536C27.0898 7.08568 27.678 6.58255 29.46 5.14505C29.7978 4.87552 29.9958 4.45625 29.9958 4.01302V2.875C29.9958 1.28776 28.7437 0 27.2005 0H2.97406C1.4308 0 0.178711 1.28776 0.178711 2.875V4.01302C0.178711 4.45625 0.376715 4.86953 0.714487 5.14505C2.49653 6.57656 3.08471 7.08568 10.8127 12.8536C11.7911 13.5844 13.7362 15.3573 15.0873 15.3333Z" fill="#9486C8"/>
</svg>
