<svg width="505" height="326" viewBox="0 0 505 326" fill="none" xmlns="http://www.w3.org/2000/svg">
<path d="M396.361 199.636L396.652 199.932L396.997 199.701L398.59 198.63C409.163 191.522 421.832 187.281 435.911 187.322C473.214 187.433 504.103 218.214 504.008 256.769C503.18 294.508 473.02 325.002 435.943 325.126C435.942 325.126 435.942 325.126 435.941 325.126L435.516 325.124C398.204 325.014 367.309 294.217 367.419 255.651C367.458 242.094 371.725 228.526 378.787 217.856L378.37 217.58L378.787 217.856L379.861 216.232L380.087 215.892L379.798 215.603L378.427 214.229L292.878 128.458L291.531 127.107L291.24 126.815L290.898 127.045L289.319 128.106L289.581 128.497L289.319 128.106C278.746 135.214 266.077 139.455 251.998 139.413C238.635 139.374 225.261 135.047 214.741 127.887L213.147 126.802L212.802 126.567L212.509 126.865L211.154 128.243L211.498 128.581L211.154 128.243L126.587 214.256L125.243 215.622L124.961 215.909L125.181 216.246L126.232 217.855C133.241 228.579 137.424 241.432 137.384 255.717C137.275 293.574 106.9 324.899 68.8907 324.788C30.8676 324.675 0.683841 293.9 0.794247 255.314C0.902577 217.455 31.2778 186.132 69.287 186.243C82.6498 186.283 96.0234 190.609 106.543 197.77L106.543 197.77L108.13 198.849L108.474 199.083L108.766 198.788L110.121 197.422L109.766 197.07L110.121 197.422L195.426 111.406L196.781 110.04L197.066 109.752L196.845 109.414L195.789 107.798C188.781 97.0738 184.597 84.2214 184.639 69.9371C184.746 32.0785 215.122 0.754399 253.131 0.866266C290.442 0.976084 321.338 31.7728 321.227 70.3392C321.189 83.8965 316.921 97.4633 309.86 108.134L308.795 109.743L308.572 110.081L308.855 110.369L310.202 111.744L310.559 111.394L310.202 111.744L395.014 198.261L396.361 199.636ZM113.719 255.645C113.791 230.27 94.2559 210.333 69.2194 210.259C44.1837 210.19 24.5348 230.012 24.4621 255.382C24.3918 279.977 43.892 300.696 68.9608 300.769C93.9973 300.843 113.646 281.02 113.719 255.645ZM253.061 24.8845C228.794 24.8131 208.377 44.6006 208.304 70.0083C208.231 95.3832 227.766 115.321 252.802 115.395C277.838 115.469 297.487 95.6458 297.56 70.2705C297.627 44.8638 277.33 24.956 253.061 24.8845ZM435.842 211.34C411.575 211.269 391.156 231.056 391.084 256.465C391.011 281.839 410.546 301.777 435.583 301.851C460.619 301.924 480.267 282.102 480.34 256.726C480.408 231.32 460.11 211.412 435.842 211.34Z" stroke="url(#paint0_linear_24_5283)"/>
<defs>
<linearGradient id="paint0_linear_24_5283" x1="275.318" y1="11.9151" x2="279.482" y2="346.857" gradientUnits="userSpaceOnUse">
<stop stop-color="#9426BA"/>
<stop offset="0.65623" stop-color="#4D35A3"/>
</linearGradient>
</defs>
</svg>
