<svg width="416" height="351" viewBox="0 0 416 351" fill="none" xmlns="http://www.w3.org/2000/svg">
<g opacity="0.3" filter="url(#filter0_f_24_5222)">
<path fill-rule="evenodd" clip-rule="evenodd" d="M448.958 322.357C443.128 340.641 429.783 354.628 417.696 369.538C407.282 382.385 396.183 393.837 382.96 403.772C368.231 414.838 354.34 430.239 335.928 430.972C317.456 431.706 301.944 418.03 286.683 407.602C272.336 397.797 262.12 384.287 249.751 372.082C232.824 355.378 203.61 345.9 200.299 322.357C197.098 299.596 220.335 281.931 234.529 263.847C247.108 247.82 261.149 233.624 278.425 222.816C296.166 211.718 315.221 197.373 335.928 200.414C356.6 203.449 365.39 229.798 384.437 238.383C406.642 248.393 439.737 234.587 454.573 253.896C468.768 272.37 456.036 300.163 448.958 322.357Z" fill="#9426BA"/>
</g>
<defs>
<filter id="filter0_f_24_5222" x="0" y="-7.62939e-06" width="661" height="631" filterUnits="userSpaceOnUse" color-interpolation-filters="sRGB">
<feFlood flood-opacity="0" result="BackgroundImageFix"/>
<feBlend mode="normal" in="SourceGraphic" in2="BackgroundImageFix" result="shape"/>
<feGaussianBlur stdDeviation="100" result="effect1_foregroundBlur_24_5222"/>
</filter>
</defs>
</svg>
