<svg width="505" height="327" viewBox="0 0 505 327" fill="none" xmlns="http://www.w3.org/2000/svg">
<path d="M108.319 126.859L108.028 126.562L107.683 126.794L106.089 127.865C95.5069 134.979 82.8265 139.224 68.7358 139.182C31.4009 139.072 0.485523 108.264 0.581474 69.6768C1.40991 31.9059 31.5952 1.38579 68.7044 1.26177C68.7048 1.26177 68.7053 1.26177 68.7057 1.26177L69.1318 1.26296C106.475 1.37335 137.396 32.1966 137.286 70.7955C137.247 84.364 132.976 97.9432 125.909 108.623L126.282 108.87L125.909 108.623L124.833 110.248L124.608 110.588L124.896 110.877L126.269 112.253L211.891 198.096L213.239 199.448L213.53 199.74L213.872 199.51L215.452 198.448L215.173 198.033L215.452 198.448C226.034 191.334 238.713 187.089 252.805 187.132C266.179 187.17 279.564 191.501 290.093 198.667L291.688 199.753L292.034 199.988L292.326 199.69L293.683 198.311L293.326 197.961L293.683 198.311L378.321 112.225L379.666 110.858L379.948 110.571L379.728 110.234L378.676 108.624L378.257 108.898L378.676 108.624C371.661 97.8904 367.474 85.0266 367.515 70.7298C367.624 32.8398 398.025 1.48858 436.066 1.60012C474.122 1.71283 504.331 32.5139 504.221 71.1327C504.112 109.024 473.711 140.374 435.67 140.262C422.296 140.222 408.911 135.893 398.382 128.726L398.382 128.726L396.794 127.646L396.45 127.412L396.157 127.707L394.801 129.074L395.156 129.426L394.801 129.074L309.424 215.163L308.068 216.53L307.783 216.818L308.005 217.156L309.061 218.773C316.075 229.507 320.263 242.37 320.221 256.666C320.113 294.557 289.712 325.908 251.671 325.796C214.327 325.686 183.405 294.863 183.516 256.264C183.555 242.695 187.826 229.117 194.893 218.437L195.959 216.826L196.182 216.489L195.899 216.2L194.551 214.825L109.667 128.234L108.319 126.859ZM391.201 70.8015C391.128 96.1973 410.68 116.152 435.737 116.226C460.794 116.294 480.459 96.4558 480.532 71.0646C480.603 46.4494 461.086 25.7132 435.996 25.6402C410.939 25.566 391.274 45.4057 391.201 70.8015ZM251.74 301.757C276.028 301.828 296.462 282.024 296.535 256.595C296.608 231.199 277.057 211.244 252 211.171C226.942 211.097 207.278 230.936 207.204 256.333C207.137 281.761 227.451 301.685 251.74 301.757ZM68.8052 115.144C93.0927 115.214 113.528 95.4112 113.6 69.9811C113.673 44.5853 94.1219 24.6309 69.0647 24.5567C44.0076 24.4837 24.3426 44.3222 24.2695 69.7192C24.2023 95.1468 44.5165 115.072 68.8052 115.144Z" stroke="url(#paint0_linear_24_5282)"/>
<defs>
<linearGradient id="paint0_linear_24_5282" x1="229.465" y1="314.737" x2="225.297" y2="-20.4879" gradientUnits="userSpaceOnUse">
<stop stop-color="#9426BA"/>
<stop offset="0.65623" stop-color="#4D35A3"/>
</linearGradient>
</defs>
</svg>
