<svg width="25" height="25" viewBox="0 0 25 25" fill="none" xmlns="http://www.w3.org/2000/svg">
<path d="M24.7954 23.5693L17.6915 16.4849C19.1943 14.7137 20.0821 12.466 20.0821 10.0136C20.0821 4.49595 15.5738 9.41425e-09 10.0411 9.41425e-09C4.5083 -0.000237557 0 4.49576 0 10.0136C0 15.5314 4.50836 20.0271 10.0411 20.0271C12.5001 20.0271 14.7543 19.1416 16.4619 17.7112L23.5658 24.7275C23.7023 24.8636 23.9755 25 24.1804 25C24.3853 25 24.5902 24.9318 24.7951 24.7275C25.0683 24.3868 25.0683 23.91 24.7951 23.5695L24.7954 23.5693ZM1.70773 10.0136C1.70773 5.44962 5.46471 1.70299 10.0411 1.70299C14.6176 1.70299 18.3745 5.44968 18.3745 10.0136C18.3745 14.5774 14.6176 18.3241 10.0411 18.3241C5.46465 18.3241 1.70773 14.6457 1.70773 10.0136Z" fill="white"/>
</svg>
