<svg width="123" height="105" viewBox="0 0 123 105" fill="none" xmlns="http://www.w3.org/2000/svg">
<path opacity="0.2" d="M111.846 54.7266L111.943 54.6732C120.377 49.9736 123.429 39.2707 118.895 30.6263C114.093 21.8873 103.203 18.8074 94.6894 23.4819C91.4765 25.246 89.1201 27.8027 87.6008 30.7439L87.3735 31.1837L86.8981 31.0432L56.9667 22.2036L56.4913 22.0631L56.5322 21.5683C56.8053 18.2625 56.0797 14.6547 54.3917 11.5808C49.5911 2.83791 38.699 -0.244031 30.1835 4.43137C21.5084 9.19431 18.511 20.1115 23.2235 28.6934C25.0015 31.9317 27.5634 34.3146 30.5022 35.8599L30.9417 36.0909L30.805 36.5675L22.1995 66.5652L22.0628 67.0417L21.5698 66.9976C18.2757 66.7013 14.6877 67.4063 11.6374 69.0809C2.9624 73.844 -0.0350634 84.761 4.67733 93.343C9.48 102.089 20.208 105.257 28.8856 100.493C37.5606 95.7294 40.558 84.8121 35.8458 76.2303C34.0676 72.992 31.5058 70.6089 28.5668 69.0638L28.1292 68.8338L28.2633 68.3587L36.7023 38.4538L36.8376 37.9747L37.3329 38.0192C40.6268 38.3153 44.2152 37.6104 47.2652 35.9356C50.4786 34.1716 52.8347 31.615 54.354 28.6739L54.5793 28.2379L55.0517 28.3731L85.0572 36.9527L85.5381 37.0901L85.4969 37.5894C85.2235 40.8952 85.9495 44.5031 87.6373 47.5771C92.438 56.3197 103.33 59.4019 111.846 54.7266ZM14.7297 74.7118C20.3372 71.6331 27.155 73.6465 30.2581 79.2977C33.3612 84.9489 31.4011 91.7819 25.7935 94.8605C20.1801 97.9428 13.2726 95.7515 10.2652 90.2746C7.16269 84.6244 9.12299 77.7917 14.7297 74.7118ZM28.8111 25.626C25.7047 19.9686 27.8411 13.0469 33.2756 10.0631C38.7105 7.07916 45.6963 8.99254 48.8039 14.649C51.9069 20.3004 49.9468 27.1333 44.3394 30.212C38.7319 33.2908 31.9141 31.2773 28.8111 25.626ZM93.3171 44.6766C90.2103 39.0191 92.3471 32.0975 97.7815 29.1135C103.216 26.1296 110.202 28.0431 113.31 33.6995C116.413 39.351 114.453 46.1837 108.845 49.2626C103.238 52.3412 96.4201 50.3279 93.3171 44.6766Z" stroke="black" stroke-opacity="0.7" stroke-width="4"/>
</svg>
