<svg width="115" height="109" viewBox="0 0 115 109" fill="none" xmlns="http://www.w3.org/2000/svg">
<path d="M113.138 55.889L58.8847 107.051C58.0279 107.859 56.6298 107.859 55.773 107.051L1.54207 55.889C0.685196 55.081 0.685196 53.7626 1.54207 52.9546L55.773 1.81404C56.6298 1.006 58.0279 1.006 58.8847 1.81404L113.138 52.9758C113.995 53.7839 113.995 55.081 113.138 55.889Z" stroke="#9426BA" stroke-width="1.6628" stroke-miterlimit="10"/>
<path d="M85.3574 58.9298L62.1091 80.8533C59.4708 83.3412 55.209 83.3412 52.5708 80.8533L29.3 58.9298C26.6617 56.4419 26.6617 52.4229 29.3 49.935L52.5482 28.0116C55.1865 25.5237 59.4483 25.5237 62.0865 28.0116L85.3348 49.935C87.9956 52.4229 87.9956 56.4419 85.3574 58.9298Z" fill="#4D35A3"/>
</svg>
