<svg width="83" height="83" viewBox="0 0 83 83" fill="none" xmlns="http://www.w3.org/2000/svg">
<path d="M80.8632 42.2593L42.2593 80.8632C41.6496 81.4729 40.6548 81.4729 40.0451 80.8632L1.45728 42.2593C0.847574 41.6496 0.847574 40.6548 1.45728 40.0451L40.0451 1.45728C40.6548 0.847574 41.6496 0.847574 42.2593 1.45728L80.8632 40.0612C81.4729 40.6709 81.4729 41.6496 80.8632 42.2593Z" stroke="#9426BA" stroke-width="1.6628" stroke-miterlimit="10"/>
<path d="M61.0952 44.5537L44.553 61.0959C42.6757 62.9732 39.6433 62.9732 37.766 61.0959L21.2077 44.5537C19.3305 42.6764 19.3305 39.6439 21.2077 37.7667L37.75 21.2245C39.6272 19.3472 42.6597 19.3472 44.5369 21.2245L61.0792 37.7667C62.9725 39.6439 62.9725 42.6764 61.0952 44.5537Z" fill="#4D35A3"/>
</svg>
